Capriola.glyphspackage
{
color = 6;
glyphname = exclam;
layers = (
{
layerId = "997F8AB0-1B91-48A1-A6B5-F95345F1D981";
shapes = (
{
closed = 1;
nodes = (
(427,459,ls),
(479,459,o),
(522,500,o),
(523,556,cs),
(562,1477,ls),
(564,1535,o),
(522,1576,o),
(467,1576,cs),
(297,1576,ls),
(244,1576,o),
(200,1535,o),
(201,1478,c),
(252,556,l),
(253,499,o),
(296,459,o),
(347,459,cs)
);
},
{
closed = 1;
nodes = (
(502,-61,o),
(597,32,o),
(597,145,cs),
(597,258,o),
(502,351,o),
(387,351,cs),
(270,351,o),
(175,258,o),
(175,145,cs),
(175,32,o),
(270,-61,o),
(387,-61,cs)
);
}
);
width = 764;
},
{
background = {
shapes = (
{
closed = 1;
nodes = (
(387,550,ls),
(400,550,o),
(409,561,o),
(409,576,cs),
(448,1528,ls),
(448,1542,o),
(440,1552,o),
(427,1552,cs),
(257,1552,ls),
(245,1552,o),
(235,1541,o),
(235,1528,cs),
(286,576,ls),
(286,561,o),
(295,550,o),
(307,550,cs)
);
},
{
closed = 1;
nodes = (
(422,13,o),
(483,75,o),
(483,151,cs),
(483,225,o),
(422,287,o),
(347,287,cs),
(270,287,o),
(209,225,o),
(209,151,cs),
(209,75,o),
(270,13,o),
(347,13,cs)
);
}
);
};
guides = (
{
pos = (-30,1527);
}
);
layerId = m001;
shapes = (
{
closed = 1;
nodes = (
(351,531,ls),
(374,531,o),
(379,551,o),
(380,574,cs),
(426,1529,ls),
(428,1562,o),
(417,1590,o),
(380,1590,cs),
(251,1590,ls),
(214,1590,o),
(203,1560,o),
(205,1529,cs),
(263,574,ls),
(264,551,o),
(269,531,o),
(293,531,cs)
);
},
{
closed = 1;
nodes = (
(399,-25,o),
(461,38,o),
(461,114,cs),
(461,189,o),
(398,251,o),
(321,251,cs),
(241,251,o),
(179,188,o),
(179,114,cs),
(179,38,o),
(241,-25,o),
(321,-25,cs)
);
}
);
width = 632;
},
{
guides = (
{
pos = (0,1527);
}
);
layerId = m002;
shapes = (
{
closed = 1;
nodes = (
(387,512,ls),
(418,512,o),
(443,540,o),
(443,575,cs),
(482,1527,ls),
(483,1562,o),
(460,1590,o),
(427,1590,cs),
(257,1590,ls),
(226,1590,o),
(201,1562,o),
(201,1527,cs),
(252,575,ls),
(252,540,o),
(277,512,o),
(307,512,cs)
);
},
{
closed = 1;
nodes = (
(440,-25,o),
(517,54,o),
(517,151,cs),
(517,247,o),
(440,325,o),
(347,325,cs),
(252,325,o),
(175,247,o),
(175,151,cs),
(175,54,o),
(252,-25,o),
(347,-25,cs)
);
}
);
width = 684;
}
);
unicode = 33;
userData = {
KernOnName = exclam;
KernOnSpecialSpacing = {
L = "spaced-off";
};
};
}
{
color = 6;
glyphname = percent;
layers = (
{
background = {
shapes = (
{
closed = 1;
nodes = (
(620,-27,o),
(641,-9,o),
(660,17,cs),
(1672,1412,ls),
(1685,1430,o),
(1691,1448,o),
(1691,1466,cs),
(1691,1493,o),
(1677,1516,o),
(1654,1530,cs),
(1540,1599,ls),
(1523,1609,o),
(1509,1612,o),
(1496,1612,cs),
(1469,1612,o),
(1444,1599,o),
(1422,1569,cs),
(408,176,ls),
(397,161,o),
(391,145,o),
(391,127,cs),
(391,101,o),
(405,77,o),
(431,60,cs),
(532,-6,ls),
(555,-21,o),
(574,-27,o),
(589,-27,cs)
);
},
{
closed = 1;
nodes = (
(750,787,o),
(934,954,o),
(934,1200,cs),
(934,1447,o),
(785,1612,o),
(520,1612,cs),
(288,1612,o),
(104,1446,o),
(104,1200,cs),
(104,961,o),
(269,787,o),
(520,787,cs)
);
},
{
closed = 1;
nodes = (
(441,1030,o),
(394,1095,o),
(394,1192,cs),
(394,1295,o),
(435,1369,o),
(519,1369,cs),
(607,1369,o),
(646,1293,o),
(646,1198,cs),
(646,1086,o),
(605,1030,o),
(522,1030,cs)
);
},
{
closed = 1;
nodes = (
(1792,-26,o),
(1976,141,o),
(1976,387,cs),
(1976,634,o),
(1827,799,o),
(1562,799,cs),
(1330,799,o),
(1146,633,o),
(1146,387,cs),
(1146,148,o),
(1311,-26,o),
(1562,-26,cs)
);
},
{
closed = 1;
nodes = (
(1483,217,o),
(1436,282,o),
(1436,379,cs),
(1436,482,o),
(1477,556,o),
(1561,556,cs),
(1649,556,o),
(1688,480,o),
(1688,385,cs),
(1688,273,o),
(1647,217,o),
(1564,217,cs)
);
}
);
};
guides = (
{
angle = 144.88;
pos = (431,60);
},
{
angle = 144.88;
pos = (363,68);
}
);
hints = (
{
name = _corner.round;
origin = (0,0);
type = Corner;
},
{
name = _corner.round;
origin = (0,1);
scale = (-1,1);
type = Corner;
},
{
name = _corner.round;
origin = (0,2);
type = Corner;
},
{
name = _corner.round;
origin = (0,3);
scale = (-1,1);
type = Corner;
}
);
layerId = "997F8AB0-1B91-48A1-A6B5-F95345F1D981";
shapes = (
{
closed = 1;
nodes = (
(1671,1440,l),
(1425,1613,l),
(352,83,l),
(598,-90,l)
);
},
{
closed = 1;
nodes = (
(750,787,o),
(934,954,o),
(934,1200,cs),
(934,1447,o),
(785,1612,o),
(520,1612,cs),
(288,1612,o),
(104,1446,o),
(104,1200,cs),
(104,961,o),
(269,787,o),
(520,787,cs)
);
},
{
closed = 1;
nodes = (
(441,1030,o),
(394,1095,o),
(394,1192,cs),
(394,1295,o),
(435,1369,o),
(519,1369,cs),
(607,1369,o),
(646,1293,o),
(646,1198,cs),
(646,1086,o),
(605,1030,o),
(522,1030,cs)
);
},
{
closed = 1;
nodes = (
(1792,-26,o),
(1976,141,o),
(1976,387,cs),
(1976,634,o),
(1827,799,o),
(1562,799,cs),
(1330,799,o),
(1146,633,o),
(1146,387,cs),
(1146,148,o),
(1311,-26,o),
(1562,-26,cs)
);
},
{
closed = 1;
nodes = (
(1483,217,o),
(1436,282,o),
(1436,379,cs),
(1436,482,o),
(1477,556,o),
(1561,556,cs),
(1649,556,o),
(1688,480,o),
(1688,385,cs),
(1688,273,o),
(1647,217,o),
(1564,217,cs)
);
}
);
width = 2144;
},
{
background = {
guides = (
{
angle = 144.88;
pos = (363,68);
}
);
shapes = (
{
closed = 1;
nodes = (
(477,-4,o),
(484,4,o),
(496,20,cs),
(1529,1495,ls),
(1533,1500,o),
(1536,1509,o),
(1536,1517,cs),
(1536,1527,o),
(1532,1534,o),
(1527,1537,cs),
(1454,1584,ls),
(1449,1587,o),
(1446,1588,o),
(1442,1588,cs),
(1435,1588,o),
(1428,1582,o),
(1418,1568,cs),
(380,92,ls),
(377,88,o),
(375,81,o),
(375,75,cs),
(375,64,o),
(382,55,o),
(391,49,cs),
(451,6,ls),
(462,-2,o),
(467,-4,o),
(472,-4,cs)
);
},
{
closed = 1;
nodes = (
(654,827,o),
(812,978,o),
(812,1209,cs),
(812,1435,o),
(693,1588,o),
(454,1588,cs),
(252,1588,o),
(94,1438,o),
(94,1209,cs),
(94,983,o),
(237,827,o),
(454,827,cs)
);
},
{
closed = 1;
nodes = (
(303,951,o),
(236,1074,o),
(236,1200,cs),
(236,1328,o),
(291,1465,o),
(453,1465,cs),
(621,1465,o),
(672,1321,o),
(672,1206,cs),
(672,1067,o),
(615,951,o),
(456,951,cs)
);
},
{
closed = 1;
nodes = (
(1667,5,o),
(1825,156,o),
(1825,387,cs),
(1825,613,o),
(1706,766,o),
(1467,766,cs),
(1265,766,o),
(1107,616,o),
(1107,387,cs),
(1107,161,o),
(1250,5,o),
(1467,5,cs)
);
},
{
closed = 1;
nodes = (
(1316,129,o),
(1249,252,o),
(1249,378,cs),
(1249,506,o),
(1304,643,o),
(1466,643,cs),
(1634,643,o),
(1685,499,o),
(1685,384,cs),
(1685,245,o),
(1628,129,o),
(1469,129,cs)
);
}
);
};
guides = (
{
angle = 144.88;
pos = (375,59);
}
);
hints = (
{
name = _corner.round;
origin = (0,2);
type = Corner;
},
{
name = _corner.round;
origin = (0,3);
scale = (-1,1);
type = Corner;
},
{
name = _corner.round;
origin = (0,0);
type = Corner;
},
{
name = _corner.round;
origin = (0,1);
scale = (-1,1);
type = Corner;
}
);
layerId = m001;
shapes = (
{
closed = 1;
nodes = (
(1559,1511,l),
(1428,1603,l),
(355,73,l),
(486,-19,l)
);
},
{
closed = 1;
nodes = (
(656,827,o),
(814,977,o),
(814,1206,cs),
(814,1432,o),
(671,1588,o),
(454,1588,cs),
(252,1588,o),
(94,1438,o),
(94,1209,cs),
(94,983,o),
(237,827,o),
(454,827,cs)
);
},
{
closed = 1;
nodes = (
(312,965,o),
(249,1082,o),
(249,1200,cs),
(249,1321,o),
(300,1450,o),
(452,1450,cs),
(596,1450,o),
(659,1333,o),
(659,1215,cs),
(659,1094,o),
(608,965,o),
(456,965,cs)
);
},
{
closed = 1;
nodes = (
(1669,-25,o),
(1827,125,o),
(1827,354,cs),
(1827,580,o),
(1684,736,o),
(1467,736,cs),
(1265,736,o),
(1107,586,o),
(1107,357,cs),
(1107,131,o),
(1250,-25,o),
(1467,-25,cs)
);
},
{
closed = 1;
nodes = (
(1325,113,o),
(1262,230,o),
(1262,348,cs),
(1262,469,o),
(1313,598,o),
(1465,598,cs),
(1609,598,o),
(1672,481,o),
(1672,363,cs),
(1672,242,o),
(1621,113,o),
(1469,113,cs)
);
}
);
width = 1983;
},
{
background = {
shapes = (
{
closed = 1;
nodes = (
(524,-29,o),
(538,-11,o),
(550,5,cs),
(1583,1480,ls),
(1592,1492,o),
(1596,1505,o),
(1596,1517,cs),
(1596,1534,o),
(1588,1549,o),
(1573,1558,cs),
(1500,1605,ls),
(1490,1611,o),
(1480,1613,o),
(1472,1613,cs),
(1451,1613,o),
(1435,1599,o),
(1423,1582,cs),
(386,107,ls),
(378,96,o),
(375,85,o),
(375,75,cs),
(375,57,o),
(386,40,o),
(404,28,cs),
(463,-14,ls),
(478,-25,o),
(491,-29,o),
(502,-29,cs)
);
},
{
closed = 1;
nodes = (
(701,802,o),
(872,965,o),
(872,1209,cs),
(872,1451,o),
(738,1613,o),
(484,1613,cs),
(265,1613,o),
(94,1451,o),
(94,1209,cs),
(94,971,o),
(248,802,o),
(484,802,cs)
);
},
{
closed = 1;
nodes = (
(354,976,o),
(296,1083,o),
(296,1200,cs),
(296,1321,o),
(345,1440,o),
(483,1440,cs),
(627,1440,o),
(672,1315,o),
(672,1206,cs),
(672,1077,o),
(623,976,o),
(486,976,cs)
);
},
{
closed = 1;
nodes = (
(1714,-20,o),
(1885,143,o),
(1885,387,cs),
(1885,629,o),
(1751,791,o),
(1497,791,cs),
(1278,791,o),
(1107,629,o),
(1107,387,cs),
(1107,149,o),
(1261,-20,o),
(1497,-20,cs)
);
},
{
closed = 1;
nodes = (
(1367,154,o),
(1309,261,o),
(1309,378,cs),
(1309,499,o),
(1358,618,o),
(1496,618,cs),
(1640,618,o),
(1685,493,o),
(1685,384,cs),
(1685,255,o),
(1636,154,o),
(1499,154,cs)
);
}
);
};
guides = (
{
angle = 144.88;
pos = (375,60);
}
);
hints = (
{
name = _corner.round;
origin = (0,0);
type = Corner;
},
{
name = _corner.round;
origin = (0,1);
scale = (-1,1);
type = Corner;
},
{
name = _corner.round;
origin = (0,2);
type = Corner;
},
{
name = _corner.round;
origin = (0,3);
scale = (-1,1);
type = Corner;
}
);
layerId = m002;
shapes = (
{
closed = 1;
nodes = (
(1595,1490,l),
(1439,1600,l),
(366,70,l),
(522,-40,l)
);
},
{
closed = 1;
nodes = (
(701,802,o),
(872,965,o),
(872,1209,cs),
(872,1451,o),
(738,1613,o),
(484,1613,cs),
(265,1613,o),
(94,1451,o),
(94,1209,cs),
(94,971,o),
(248,802,o),
(484,802,cs)
);
},
{
closed = 1;
nodes = (
(354,976,o),
(296,1083,o),
(296,1200,cs),
(296,1321,o),
(345,1440,o),
(483,1440,cs),
(627,1440,o),
(672,1315,o),
(672,1206,cs),
(672,1077,o),
(623,976,o),
(486,976,cs)
);
},
{
closed = 1;
nodes = (
(1714,-25,o),
(1885,138,o),
(1885,382,cs),
(1885,624,o),
(1751,786,o),
(1497,786,cs),
(1278,786,o),
(1107,624,o),
(1107,382,cs),
(1107,144,o),
(1261,-25,o),
(1497,-25,cs)
);
},
{
closed = 1;
nodes = (
(1367,149,o),
(1309,256,o),
(1309,373,cs),
(1309,494,o),
(1358,613,o),
(1496,613,cs),
(1640,613,o),
(1685,488,o),
(1685,379,cs),
(1685,250,o),
(1636,149,o),
(1499,149,cs)
);
}
);
width = 2043;
}
);
unicode = 37;
userData = {
KernOnName = percent;
KernOnSpecialSpacing = {
L = "spaced-off";
};
};
}
{
color = 6;
glyphname = quotesingle;
layers = (
{
layerId = "997F8AB0-1B91-48A1-A6B5-F95345F1D981";
shapes = (
{
closed = 1;
nodes = (
(328,1054,ls),
(376,1054,o),
(414,1090,o),
(418,1141,cs),
(461,1641,ls),
(465,1693,o),
(426,1733,o),
(373,1733,cs),
(215,1733,ls),
(165,1733,o),
(125,1691,o),
(130,1640,cs),
(177,1140,ls),
(182,1089,o),
(220,1054,o),
(264,1054,cs)
);
}
);
width = 591;
},
{
background = {
shapes = (
{
closed = 1;
nodes = (
(296,1115,o),
(307,1128,o),
(308,1147,cs),
(351,1663,ls),
(352,1678,o),
(345,1691,o),
(333,1691,cs),
(175,1691,ls),
(167,1691,o),
(158,1681,o),
(160,1663,cs),
(207,1147,ls),
(209,1127,o),
(219,1115,o),
(224,1115,cs),
(288,1115,ls)
);
}
);
};
layerId = m001;
shapes = (
{
closed = 1;
nodes = (
(258,1175,ls),
(266,1175,o),
(277,1188,o),
(278,1207,cs),
(317,1710,ls),
(319,1733,o),
(307,1751,o),
(276,1751,cs),
(173,1751,ls),
(144,1751,o),
(132,1734,o),
(134,1710,cs),
(177,1207,ls),
(179,1187,o),
(189,1175,o),
(194,1175,cs)
);
}
);
width = 451;
},
{
layerId = m002;
shapes = (
{
closed = 1;
nodes = (
(258,1190,ls),
(286,1190,o),
(305,1215,o),
(308,1245,cs),
(361,1711,ls),
(364,1741,o),
(344,1766,o),
(313,1766,cs),
(155,1766,ls),
(127,1766,o),
(106,1741,o),
(110,1711,cs),
(167,1245,ls),
(171,1215,o),
(188,1190,o),
(214,1190,cs)
);
}
);
width = 471;
}
);
unicode = 39;
userData = {
KernOnName = quotesingle;
KernOnSpecialSpacing = {
L = quotes;
R = quotes;
};
};
}
{
color = 6;
glyphname = plus;
layers = (
{
background = {
shapes = (
{
closed = 1;
nodes = (
(779,25,ls),
(831,25,o),
(872,64,o),
(872,115,cs),
(872,458,l),
(1225,458,ls),
(1277,458,o),
(1321,495,o),
(1321,548,cs),
(1321,629,ls),
(1321,680,o),
(1277,716,o),
(1225,716,cs),
(872,716,l),
(872,1054,ls),
(872,1103,o),
(831,1143,o),
(784,1143,cs),
(680,1143,ls),
(632,1143,o),
(591,1103,o),
(591,1054,cs),
(591,716,l),
(237,716,ls),
(186,716,o),
(142,680,o),
(142,634,cs),
(142,542,ls),
(142,495,o),
(186,458,o),
(237,458,cs),
(591,458,l),
(591,115,ls),
(591,64,o),
(632,25,o),
(686,25,cs)
);
}
);
};
hints = (
{
name = _corner.round;
origin = (0,6);
scale = (-1,1);
type = Corner;
},
{
name = _corner.round;
origin = (0,5);
type = Corner;
},
{
name = _corner.round;
origin = (0,8);
scale = (-1,1);
type = Corner;
},
{
name = _corner.round;
origin = (0,9);
type = Corner;
},
{
name = _corner.round;
origin = (0,11);
type = Corner;
},
{
name = _corner.round;
origin = (0,0);
scale = (-1,1);
type = Corner;
},
{
name = _corner.round;
origin = (0,2);
scale = (-1,1);
type = Corner;
},
{
name = _corner.round;
origin = (0,3);
type = Corner;
}
);
layerId = "997F8AB0-1B91-48A1-A6B5-F95345F1D981";
shapes = (
{
closed = 1;
nodes = (
(837,25,l),
(837,453,l),
(1246,453,l),
(1246,721,l),
(837,721,l),
(837,1143,l),
(531,1143,l),
(531,721,l),
(122,721,l),
(122,453,l),
(531,453,l),
(531,25,l)
);
}
);
width = 1368;
},
{
background = {
shapes = (
{
closed = 1;
nodes = (
(761,86,l),
(761,525,l),
(1211,525,l),
(1211,683,l),
(761,683,l),
(761,1115,l),
(581,1115,l),
(581,683,l),
(131,683,l),
(131,525,l),
(581,525,l),
(581,86,l)
);
}
);
};
hints = (
{
name = _corner.round;
origin = (0,6);
scale = (-1,1);
type = Corner;
},
{
name = _corner.round;
origin = (0,5);
type = Corner;
},
{
name = _corner.round;
origin = (0,8);
scale = (-1,1);
type = Corner;
},
{
name = _corner.round;
origin = (0,9);
type = Corner;
},
{
name = _corner.round;
origin = (0,11);
type = Corner;
},
{
name = _corner.round;
origin = (0,0);
scale = (-1,1);
type = Corner;
},
{
name = _corner.round;
origin = (0,2);
scale = (-1,1);
type = Corner;
},
{
name = _corner.round;
origin = (0,3);
type = Corner;
}
);
layerId = m001;
shapes = (
{
closed = 1;
nodes = (
(721,86,l),
(721,525,l),
(1131,525,l),
(1131,683,l),
(721,683,l),
(721,1115,l),
(541,1115,l),
(541,683,l),
(131,683,l),
(131,525,l),
(541,525,l),
(541,86,l)
);
}
);
width = 1262;
},
{
background = {
shapes = (
{
closed = 1;
nodes = (
(729,61,ls),
(760,61,o),
(782,86,o),
(782,117,cs),
(782,508,l),
(1175,508,ls),
(1206,508,o),
(1231,530,o),
(1231,563,cs),
(1231,647,ls),
(1231,678,o),
(1206,700,o),
(1175,700,cs),
(782,700,l),
(782,1085,ls),
(782,1115,o),
(760,1140,o),
(734,1140,cs),
(630,1140,ls),
(603,1140,o),
(581,1115,o),
(581,1085,cs),
(581,700,l),
(187,700,ls),
(157,700,o),
(132,678,o),
(132,652,cs),
(132,557,ls),
(132,530,o),
(157,508,o),
(187,508,cs),
(581,508,l),
(581,117,ls),
(581,86,o),
(603,61,o),
(636,61,cs)
);
}
);
};
hints = (
{
name = _corner.round;
origin = (0,6);
scale = (-1,1);
type = Corner;
},
{
name = _corner.round;
origin = (0,5);
type = Corner;
},
{
name = _corner.round;
origin = (0,8);
scale = (-1,1);
type = Corner;
},
{
name = _corner.round;
origin = (0,9);
type = Corner;
},
{
name = _corner.round;
origin = (0,11);
type = Corner;
},
{
name = _corner.round;
origin = (0,0);
scale = (-1,1);
type = Corner;
},
{
name = _corner.round;
origin = (0,2);
scale = (-1,1);
type = Corner;
},
{
name = _corner.round;
origin = (0,3);
type = Corner;
}
);
layerId = m002;
shapes = (
{
closed = 1;
nodes = (
(824,61,l),
(824,498,l),
(1261,498,l),
(1261,710,l),
(824,710,l),
(824,1140,l),
(579,1140,l),
(579,710,l),
(142,710,l),
(142,498,l),
(579,498,l),
(579,61,l)
);
}
);
width = 1403;
}
);
metricRight = "=|";
unicode = 43;
userData = {
KernOnSpecialSpacing = {
L = math;
R = math;
};
};
}
{
color = 6;
glyphname = three;
layers = (
{
layerId = "997F8AB0-1B91-48A1-A6B5-F95345F1D981";
shapes = (
{
closed = 1;
nodes = (
(807,-264,o),
(1073,-91,o),
(1073,197,cs),
(1073,345,o),
(972,475,o),
(812,518,c),
(914,575,o),
(1025,676,o),
(1025,843,cs),
(1025,1102,o),
(792,1225,o),
(561,1225,cs),
(360,1225,o),
(89,1118,o),
(89,894,cs),
(89,842,o),
(114,768,o),
(265,768,cs),
(313,768,o),
(356,789,o),
(369,841,cs),
(386,910,o),
(471,946,o),
(540,946,cs),
(628,946,o),
(705,904,o),
(705,808,cs),
(705,697,o),
(607,628,o),
(373,576,cs),
(320,564,o),
(302,539,o),
(302,496,cs),
(302,427,o),
(341,334,o),
(382,334,cs),
(403,334,o),
(462,348,o),
(528,348,cs),
(668,348,o),
(755,297,o),
(755,193,cs),
(755,76,o),
(644,19,o),
(540,19,cs),
(447,19,o),
(372,45,o),
(282,102,cs),
(252,121,o),
(231,129,o),
(207,129,cs),
(183,129,o),
(154,116,o),
(128,78,cs),
(87,18,ls),
(74,-1,o),
(68,-17,o),
(68,-34,cs),
(68,-71,o),
(94,-102,o),
(129,-130,cs),
(242,-220,o),
(390,-264,o),
(559,-264,cs)
);
}
);
width = 1195;
},
{
background = {
shapes = (
{
closed = 1;
nodes = (
(769,-270,o),
(1010,-114,o),
(1010,159,cs),
(1010,338,o),
(862,494,o),
(636,494,c),
(753,534,o),
(959,641,o),
(959,872,cs),
(959,1114,o),
(754,1225,o),
(542,1225,cs),
(357,1225,o),
(118,1126,o),
(118,929,cs),
(118,891,o),
(131,861,o),
(226,861,cs),
(249,861,o),
(256,865,o),
(261,886,cs),
(290,1004,o),
(422,1057,o),
(520,1057,cs),
(649,1057,o),
(774,986,o),
(774,851,cs),
(774,664,o),
(594,570,o),
(338,512,cs),
(321,508,o),
(318,499,o),
(318,476,cs),
(318,442,o),
(334,384,o),
(342,384,cs),
(346,384,o),
(348,385,o),
(359,387,cs),
(398,394,o),
(436,395,o),
(475,395,cs),
(667,395,o),
(828,318,o),
(828,155,cs),
(828,-26,o),
(659,-99,o),
(520,-99,cs),
(408,-99,o),
(310,-77,o),
(203,-7,cs),
(180,8,o),
(173,12,o),
(169,12,cs),
(164,12,o),
(159,8,o),
(146,-12,cs),
(100,-82,ls),
(97,-87,o),
(95,-92,o),
(95,-98,cs),
(95,-112,o),
(107,-128,o),
(131,-148,cs),
(235,-235,o),
(377,-270,o),
(550,-270,cs)
);
}
);
};
guides = (
{
pos = (-30,-98);
}
);
layerId = m001;
shapes = (
{
closed = 1;
nodes = (
(769,-270,o),
(1010,-114,o),
(1010,159,cs),
(1010,338,o),
(862,482,o),
(673,502,c),
(753,534,o),
(959,644,o),
(959,872,cs),
(959,1114,o),
(754,1225,o),
(542,1225,cs),
(357,1225,o),
(118,1126,o),
(118,929,cs),
(118,891,o),
(131,861,o),
(226,861,cs),
(249,861,o),
(256,865,o),
(261,886,cs),
(290,1004,o),
(422,1057,o),
(520,1057,cs),
(649,1057,o),
(774,986,o),
(774,851,cs),
(774,664,o),
(592,570,o),
(348,515,cs),
(328,510,o),
(314,495,o),
(314,476,cs),
(314,442,o),
(328,378,o),
(358,378,cs),
(379,378,o),
(436,395,o),
(492,395,cs),
(667,395,o),
(828,318,o),
(828,155,cs),
(828,-26,o),
(659,-99,o),
(520,-99,cs),
(408,-99,o),
(310,-77,o),
(203,-7,cs),
(180,8,o),
(173,12,o),
(169,12,cs),
(164,12,o),
(159,8,o),
(146,-12,cs),
(100,-82,ls),
(97,-87,o),
(95,-92,o),
(95,-98,cs),
(95,-112,o),
(107,-128,o),
(131,-148,cs),
(235,-235,o),
(377,-270,o),
(550,-270,cs)
);
}
);
width = 1159;
},
{
guides = (
{
pos = (0,-98);
}
);
layerId = m002;
shapes = (
{
closed = 1;
nodes = (
(795,-263,o),
(1045,-103,o),
(1045,176,cs),
(1045,348,o),
(902,497,o),
(684,497,c),
(796,535,o),
(996,637,o),
(996,859,cs),
(996,1109,o),
(779,1225,o),
(560,1225,cs),
(369,1225,o),
(117,1122,o),
(117,913,cs),
(117,870,o),
(135,820,o),
(255,820,cs),
(286,820,o),
(312,830,o),
(321,867,cs),
(343,963,o),
(457,1008,o),
(539,1008,cs),
(649,1008,o),
(751,950,o),
(751,839,cs),
(751,678,o),
(593,594,o),
(355,541,cs),
(318,533,o),
(310,507,o),
(310,480,cs),
(310,450,o),
(320,363,o),
(367,363,cs),
(391,363,o),
(424,374,o),
(495,374,cs),
(667,374,o),
(803,309,o),
(803,172,cs),
(803,19,o),
(661,-43,o),
(539,-43,cs),
(437,-43,o),
(349,-24,o),
(250,41,cs),
(228,55,o),
(213,64,o),
(198,64,cs),
(181,63,o),
(166,53,o),
(149,27,cs),
(106,-38,ls),
(98,-50,o),
(95,-60,o),
(95,-70,cs),
(95,-96,o),
(117,-119,o),
(143,-140,cs),
(251,-229,o),
(399,-263,o),
(568,-263,cs)
);
}
);
width = 1194;
}
);
unicode = 51;
userData = {
KernOnName = three;
KernOnSpecialSpacing = {
L = number;
R = number;
};
};
}
{
color = 6;
glyphname = four;
layers = (
{
background = {
shapes = (
{
closed = 1;
nodes = (
(899,-238,ls),
(954,-238,o),
(998,-201,o),
(998,-142,cs),
(998,84,l),
(1109,106,ls),
(1174,119,o),
(1201,149,o),
(1201,201,cs),
(1201,253,ls),
(1201,307,o),
(1166,340,o),
(1102,340,cs),
(998,340,l),
(998,658,ls),
(998,715,o),
(956,761,o),
(886,761,cs),
(805,761,ls),
(737,761,o),
(686,716,o),
(686,656,cs),
(686,340,l),
(401,340,l),
(507,586,o),
(631,943,o),
(660,1095,cs),
(674,1167,o),
(644,1209,o),
(586,1227,cs),
(550,1238,o),
(504,1251,o),
(460,1251,cs),
(402,1251,o),
(355,1214,o),
(342,1156,cs),
(283,894,o),
(165,560,o),
(75,315,cs),
(65,288,o),
(60,257,o),
(60,235,cs),
(60,142,o),
(135,75,o),
(244,75,cs),
(686,75,l),
(686,-137,ls),
(686,-201,o),
(731,-238,o),
(783,-238,cs)
);
}
);
};
hints = (
{
name = _corner.round;
origin = (0,34);
type = Corner;
},
{
name = _corner.round;
origin = (0,0);
scale = (-1,1);
type = Corner;
},
{
name = _corner.round;
origin = (0,6);
type = Corner;
},
{
name = _corner.round;
origin = (0,9);
scale = (-1,1);
type = Corner;
},
{
name = _corner.round;
origin = (0,8);
type = Corner;
}
);
layerId = "997F8AB0-1B91-48A1-A6B5-F95345F1D981";
shapes = (
{
closed = 1;
nodes = (
(1002,-238,l),
(1002,84,l),
(1109,106,ls),
(1174,119,o),
(1201,149,o),
(1201,201,cs),
(1201,340,l),
(1002,340,l),
(1002,761,l),
(696,761,l),
(696,340,l),
(375,340,l),
(465,586,o),
(589,943,o),
(618,1095,cs),
(632,1167,o),
(602,1209,o),
(544,1227,cs),
(508,1238,o),
(462,1251,o),
(418,1251,cs),
(360,1251,o),
(313,1214,o),
(300,1156,cs),
(241,894,o),
(131,560,o),
(44,315,cs),
(34,288,o),
(30,257,o),
(30,235,cs),
(30,142,o),
(105,75,o),
(214,75,cs),
(696,75,l),
(696,-238,l)
);
}
);
width = 1186;
},
{
background = {
shapes = (
{
closed = 1;
nodes = (
(897,-238,ls),
(913,-238,o),
(924,-226,o),
(924,-202,cs),
(924,105,l),
(1102,141,ls),
(1132,147,o),
(1138,153,o),
(1138,177,cs),
(1138,234,ls),
(1138,256,o),
(1135,259,o),
(1111,259,cs),
(924,259,l),
(924,682,ls),
(924,707,o),
(913,725,o),
(882,725,cs),
(797,725,ls),
(769,725,o),
(748,709,o),
(748,680,cs),
(748,259,l),
(259,259,l),
(373,520,o),
(535,985,o),
(568,1171,cs),
(574,1205,o),
(567,1225,o),
(542,1233,cs),
(501,1246,o),
(465,1257,o),
(432,1257,cs),
(407,1257,o),
(389,1238,o),
(382,1204,cs),
(319,899,o),
(209,586,o),
(98,279,cs),
(91,260,o),
(87,235,o),
(87,215,cs),
(87,150,o),
(132,108,o),
(204,108,cs),
(748,108,l),
(748,-196,ls),
(748,-223,o),
(757,-238,o),
(774,-238,cs)
);
}
);
};
guides = (
{
pos = (-30,292);
},
{
angle = 90;
pos = (699,0);
},
{
angle = 90;
pos = (935,0);
}
);
hints = (
{
name = _corner.round;
origin = (0,34);
type = Corner;
},
{
name = _corner.round;
origin = (0,0);
scale = (-1,1);
type = Corner;
},
{
name = _corner.round;
origin = (0,6);
type = Corner;
},
{
name = _corner.round;
origin = (0,9);
scale = (-1,1);
type = Corner;
},
{
name = _corner.round;
origin = (0,8);
type = Corner;
}
);
layerId = m001;
shapes = (
{
closed = 1;
nodes = (
(924,-238,l),
(924,105,l),
(1102,141,ls),
(1132,147,o),
(1138,153,o),
(1138,177,cs),
(1138,259,l),
(924,259,l),
(924,725,l),
(748,725,l),
(748,259,l),
(259,259,l),
(373,520,o),
(535,985,o),
(568,1171,cs),
(574,1205,o),
(567,1225,o),
(542,1233,cs),
(501,1246,o),
(465,1257,o),
(432,1257,cs),
(407,1257,o),
(389,1238,o),
(382,1204,cs),
(319,899,o),
(209,586,o),
(98,279,cs),
(91,260,o),
(87,235,o),
(87,215,cs),
(87,150,o),
(132,108,o),
(204,108,cs),
(748,108,l),
(748,-238,l)
);
}
);
width = 1150;
},
{
background = {
shapes = (
{
closed = 1;
nodes = (
(906,-238,ls),
(940,-238,o),
(965,-214,o),
(965,-175,cs),
(965,96,l),
(1110,125,ls),
(1156,134,o),
(1173,150,o),
(1173,188,cs),
(1173,242,ls),
(1173,273,o),
(1161,295,o),
(1114,295,cs),
(965,295,l),
(965,672,ls),
(965,705,o),
(946,741,o),
(892,741,cs),
(809,741,ls),
(767,741,o),
(729,716,o),
(729,670,cs),
(729,295,l),
(333,295,l),
(444,553,o),
(589,965,o),
(619,1135,cs),
(628,1182,o),
(614,1213,o),
(571,1227,cs),
(532,1239,o),
(493,1251,o),
(455,1251,cs),
(413,1251,o),
(384,1222,o),
(375,1179,cs),
(314,887,o),
(207,586,o),
(100,296,cs),
(91,273,o),
(87,245,o),
(87,224,cs),
(87,147,o),
(145,94,o),
(233,94,cs),
(729,94,l),
(729,-170,ls),
(729,-210,o),
(750,-238,o),
(787,-238,cs)
);
}
);
};
guides = (
{
pos = (0,292);
},
{
angle = 90;
pos = (729,0);
},
{
angle = 90;
pos = (965,0);
}
);
hints = (
{
name = _corner.round;
origin = (0,34);
type = Corner;
},
{
name = _corner.round;
origin = (0,0);
scale = (-1,1);
type = Corner;
},
{
name = _corner.round;
origin = (0,6);
type = Corner;
},
{
name = _corner.round;
origin = (0,9);
scale = (-1,1);
type = Corner;
},
{
name = _corner.round;
origin = (0,8);
type = Corner;
}
);
layerId = m002;
shapes = (
{
closed = 1;
nodes = (
(965,-238,l),
(965,96,l),
(1110,125,ls),
(1156,134,o),
(1173,150,o),
(1173,188,cs),
(1173,295,l),
(965,295,l),
(965,741,l),
(729,741,l),
(729,295,l),
(321,295,l),
(432,553,o),
(577,965,o),
(607,1135,cs),
(616,1182,o),
(602,1213,o),
(559,1227,cs),
(520,1239,o),
(481,1251,o),
(443,1251,cs),
(401,1251,o),
(372,1222,o),
(363,1179,cs),
(302,887,o),
(195,586,o),
(88,296,cs),
(79,273,o),
(75,245,o),
(75,224,cs),
(75,147,o),
(133,94,o),
(221,94,cs),
(729,94,l),
(729,-238,l)
);
}
);
width = 1185;
}
);
unicode = 52;
userData = {
KernOnName = four;
KernOnSpecialSpacing = {
L = number;
R = number;
};
};
}
{
color = 6;
glyphname = five;
layers = (
{
background = {
shapes = (
{
closed = 1;
nodes = (
(915,-263,o),
(1146,-67,o),
(1146,229,cs),
(1146,527,o),
(924,686,o),
(687,686,cs),
(596,686,o),
(529,667,o),
(485,648,c),
(485,921,l),
(957,921,ls),
(1040,921,o),
(1059,956,o),
(1059,1021,cs),
(1059,1112,ls),
(1059,1169,o),
(1026,1198,o),
(951,1198,cs),
(312,1198,ls),
(206,1198,o),
(179,1144,o),
(179,1058,cs),
(179,441,ls),
(179,356,o),
(224,353,o),
(284,343,cs),
(314,338,o),
(332,335,o),
(344,335,cs),
(360,335,o),
(389,337,o),
(409,346,cs),
(458,368,o),
(524,430,o),
(628,430,cs),
(718,430,o),
(818,357,o),
(818,228,cs),
(818,84,o),
(714,17,o),
(593,17,cs),
(480,17,o),
(390,42,o),
(304,113,cs),
(281,132,o),
(263,143,o),
(235,143,cs),
(202,143,o),
(169,121,o),
(146,89,cs),
(108,36,ls),
(82,0,o),
(81,-20,o),
(81,-32,cs),
(82,-69,o),
(114,-95,o),
(139,-118,cs),
(250,-220,o),
(424,-263,o),
(577,-263,cs)
);
}
);
};
hints = (
{
name = _corner.round;
origin = (0,12);
scale = (-1,1);
type = Corner;
},
{
name = _corner.round;
origin = (0,11);
type = Corner;
},
{
name = _corner.round;
origin = (0,10);
scale = (-1,1);
type = Corner;
}
);
layerId = "997F8AB0-1B91-48A1-A6B5-F95345F1D981";
shapes = (
{
closed = 1;
nodes = (
(915,-263,o),
(1146,-67,o),
(1146,229,cs),
(1146,527,o),
(924,686,o),
(687,686,cs),
(596,686,o),
(529,667,o),
(485,648,c),
(485,921,l),
(1059,921,l),
(1059,1198,l),
(179,1198,l),
(179,441,ls),
(179,356,o),
(224,353,o),
(284,343,cs),
(314,338,o),
(332,335,o),
(344,335,cs),
(360,335,o),
(389,337,o),
(409,346,cs),
(458,368,o),
(524,430,o),
(628,430,cs),
(718,430,o),
(818,357,o),
(818,228,cs),
(818,84,o),
(714,17,o),
(593,17,cs),
(480,17,o),
(390,42,o),
(304,113,cs),
(281,132,o),
(263,143,o),
(235,143,cs),
(202,143,o),
(169,121,o),
(146,89,cs),
(108,36,ls),
(82,0,o),
(81,-20,o),
(81,-32,cs),
(82,-69,o),
(114,-95,o),
(139,-118,cs),
(250,-220,o),
(424,-263,o),
(577,-263,cs)
);
}
);
width = 1194;
},
{
background = {
hints = (
{
name = _corner.round;
origin = (0,10);
scale = (-1,1);
type = Corner;
},
{
name = _corner.round;
origin = (0,11);
type = Corner;
},
{
name = _corner.round;
origin = (0,12);
scale = (-1,1);
type = Corner;
}
);
shapes = (
{
closed = 1;
nodes = (
(875,-270,o),
(1083,-84,o),
(1083,204,cs),
(1083,491,o),
(887,640,o),
(674,640,cs),
(477,640,o),
(419,554,o),
(381,534,c),
(381,1032,l),
(991,1032,l),
(991,1198,l),
(212,1198,l),
(212,439,ls),
(212,408,o),
(204,408,o),
(264,399,cs),
(274,397,o),
(298,391,o),
(310,391,cs),
(341,391,o),
(356,403,o),
(377,420,cs),
(419,453,o),
(486,497,o),
(611,497,cs),
(743,497,o),
(891,389,o),
(891,202,cs),
(891,-1,o),
(739,-103,o),
(574,-103,cs),
(449,-103,o),
(323,-70,o),
(226,13,cs),
(219,19,o),
(203,36,o),
(194,36,cs),
(188,36,o),
(179,31,o),
(166,12,cs),
(123,-51,ls),
(110,-70,o),
(108,-76,o),
(108,-85,cs),
(108,-93,o),
(124,-110,o),
(145,-130,cs),
(249,-229,o),
(410,-270,o),
(556,-270,cs)
);
}
);
};
hints = (
{
name = _corner.round;
origin = (0,12);
scale = (-1,1);
type = Corner;
},
{
name = _corner.round;
origin = (0,11);
type = Corner;
},
{
name = _corner.round;
origin = (0,10);
scale = (-1,1);
type = Corner;
}
);
layerId = m001;
shapes = (
{
closed = 1;
nodes = (
(875,-270,o),
(1083,-84,o),
(1083,204,cs),
(1083,491,o),
(887,640,o),
(662,640,cs),
(528,640,o),
(429,602,o),
(381,563,c),
(381,1032,l),
(991,1032,l),
(991,1198,l),
(212,1198,l),
(212,478,ls),
(212,417,o),
(231,408,o),
(264,399,cs),
(278,395,o),
(298,391,o),
(310,391,cs),
(341,391,o),
(360,397,o),
(389,420,cs),
(464,480,o),
(528,497,o),
(611,497,cs),
(743,497,o),
(891,389,o),
(891,202,cs),
(891,-1,o),
(739,-103,o),
(574,-103,cs),
(449,-103,o),
(327,-66,o),
(246,7,cs),
(225,26,o),
(212,36,o),
(199,36,cs),
(182,36,o),
(171,20,o),
(162,7,cs),
(123,-51,ls),
(114,-64,o),
(110,-71,o),
(110,-81,cs),
(110,-94,o),
(124,-110,o),
(145,-130,cs),
(249,-229,o),
(410,-270,o),
(556,-270,cs)
);
}
);
width = 1158;
},
{
background = {
shapes = (
{
closed = 1;
nodes = (
(901,-263,o),
(1118,-73,o),
(1118,219,cs),
(1118,510,o),
(912,664,o),
(689,664,cs),
(555,664,o),
(480,625,o),
(438,596,c),
(438,983,l),
(966,983,ls),
(1029,983,o),
(1029,1007,o),
(1029,1049,cs),
(1029,1146,ls),
(1029,1191,o),
(1005,1198,o),
(960,1198,cs),
(303,1198,ls),
(226,1198,o),
(209,1166,o),
(209,1089,cs),
(209,444,ls),
(209,391,o),
(224,386,o),
(287,377,cs),
(305,374,o),
(320,370,o),
(336,370,cs),
(352,370,o),
(373,373,o),
(385,379,cs),
(428,399,o),
(476,471,o),
(628,471,cs),
(741,471,o),
(866,379,o),
(866,217,cs),
(866,41,o),
(736,-46,o),
(592,-46,cs),
(475,-46,o),
(363,-15,o),
(278,57,c),
(258,72,o),
(248,87,o),
(224,87,cs),
(202,87,o),
(184,72,o),
(169,50,cs),
(128,-9,ls),
(110,-35,o),
(108,-49,o),
(108,-57,cs),
(109,-82,o),
(132,-100,o),
(154,-121,cs),
(259,-220,o),
(427,-263,o),
(575,-263,cs)
);
}
);
};
hints = (
{
name = _corner.round;
origin = (0,12);
scale = (-1,1);
type = Corner;
},
{
name = _corner.round;
origin = (0,11);
type = Corner;
},
{
name = _corner.round;
origin = (0,10);
scale = (-1,1);
type = Corner;
}
);
layerId = m002;
shapes = (
{
closed = 1;
nodes = (
(901,-263,o),
(1118,-73,o),
(1118,219,cs),
(1118,510,o),
(912,664,o),
(689,664,cs),
(555,664,o),
(480,625,o),
(438,596,c),
(438,983,l),
(1029,983,l),
(1029,1198,l),
(209,1198,l),
(209,444,ls),
(209,391,o),
(224,386,o),
(287,377,cs),
(305,374,o),
(320,370,o),
(336,370,cs),
(352,370,o),
(373,373,o),
(385,379,cs),
(428,399,o),
(476,471,o),
(628,471,cs),
(741,471,o),
(866,379,o),
(866,217,cs),
(866,41,o),
(736,-46,o),
(592,-46,cs),
(475,-46,o),
(363,-15,o),
(278,57,c),
(258,72,o),
(248,87,o),
(224,87,cs),
(202,87,o),
(184,72,o),
(169,50,cs),
(128,-9,ls),
(110,-35,o),
(108,-49,o),
(108,-57,cs),
(109,-82,o),
(132,-100,o),
(154,-121,cs),
(259,-220,o),
(427,-263,o),
(575,-263,cs)
);
}
);
width = 1193;
}
);
unicode = 53;
userData = {
KernOnName = five;
KernOnSpecialSpacing = {
L = number;
R = number;
};
};
}
{
color = 10;
glyphname = semicolon;
layers = (
{
background = {
shapes = (
{
closed = 1;
nodes = (
(372,760,o),
(459,843,o),
(459,944,cs),
(459,1045,o),
(373,1128,o),
(269,1128,cs),
(164,1128,o),
(77,1045,o),
(77,944,cs),
(77,843,o),
(164,760,o),
(269,760,cs)
);
},
{
closed = 1;
nodes = (
(254,-442,o),
(298,-398,o),
(331,-358,cs),
(423,-243,o),
(508,-85,o),
(508,92,cs),
(508,220,o),
(431,339,o),
(291,339,cs),
(175,339,o),
(88,246,o),
(88,141,cs),
(88,56,o),
(142,-31,o),
(228,-46,c),
(216,-114,o),
(174,-202,o),
(118,-261,cs),
(99,-281,o),
(75,-304,o),
(75,-331,cs),
(75,-354,o),
(86,-376,o),
(107,-394,cs),
(135,-418,ls),
(157,-437,o),
(179,-442,o),
(200,-442,cs)
);
}
);
};
guides = (
{
angle = 90;
pos = (77,0);
}
);
layerId = "997F8AB0-1B91-48A1-A6B5-F95345F1D981";
shapes = (
{
ref = comma;
},
{
pos = (-5,785);
ref = period;
}
);
width = 593;
},
{
background = {
shapes = (
{
closed = 1;
nodes = (
(294,760,o),
(355,822,o),
(355,898,cs),
(355,972,o),
(294,1034,o),
(219,1034,cs),
(142,1034,o),
(81,972,o),
(81,898,cs),
(81,822,o),
(142,760,o),
(219,760,cs)
);
},
{
closed = 1;
nodes = (
(151,-406,o),
(181,-373,o),
(206,-341,cs),
(289,-236,o),
(368,-83,o),
(368,83,cs),
(368,186,o),
(315,275,o),
(221,275,cs),
(147,275,o),
(88,211,o),
(88,134,cs),
(88,51,o),
(151,-3,o),
(215,-11,c),
(214,-71,o),
(188,-200,o),
(82,-317,cs),
(76,-324,o),
(67,-335,o),
(67,-347,cs),
(67,-353,o),
(69,-360,o),
(74,-364,cs),
(111,-395,ls),
(122,-405,o),
(125,-406,o),
(130,-406,cs)
);
}
);
};
guides = (
{
angle = 90;
pos = (85,0);
},
{
pos = (294,1034);
}
);
layerId = m001;
shapes = (
{
ref = comma;
},
{
pos = (-5,785);
ref = period;
}
);
width = 453;
},
{
background = {
shapes = (
{
closed = 1;
nodes = (
(342,760,o),
(419,839,o),
(419,936,cs),
(419,1032,o),
(342,1110,o),
(249,1110,cs),
(154,1110,o),
(77,1032,o),
(77,936,cs),
(77,839,o),
(154,760,o),
(249,760,cs)
);
},
{
closed = 1;
nodes = (
(199,-406,o),
(236,-362,o),
(260,-332,cs),
(347,-221,o),
(428,-64,o),
(428,108,cs),
(428,223,o),
(365,325,o),
(251,325,cs),
(158,325,o),
(88,248,o),
(88,159,cs),
(88,74,o),
(147,15,o),
(214,-5,c),
(208,-69,o),
(178,-178,o),
(89,-276,cs),
(79,-286,o),
(67,-303,o),
(67,-322,cs),
(67,-333,o),
(72,-347,o),
(85,-358,cs),
(121,-389,ls),
(135,-401,o),
(146,-406,o),
(160,-406,cs)
);
}
);
};
guides = (
{
angle = 90;
pos = (77,0);
},
{
pos = (417,1110);
},
{
pos = (417,760);
}
);
layerId = m002;
shapes = (
{
ref = comma;
},
{
pos = (-5,785);
ref = period;
}
);
width = 513;
}
);
unicode = 59;
userData = {
KernOnName = semicolon;
KernOnSpecialSpacing = {
L = "spaced-off";
R = "spaced-off";
};
};
}
{
color = 6;
glyphname = equal;
layers = (
{
background = {
shapes = (
{
closed = 1;
nodes = (
(1200,676,ls),
(1252,676,o),
(1296,713,o),
(1296,766,cs),
(1296,852,ls),
(1296,903,o),
(1252,939,o),
(1200,939,cs),
(262,939,ls),
(211,939,o),
(167,903,o),
(167,857,cs),
(167,760,ls),
(167,713,o),
(211,676,o),
(262,676,cs)
);
},
{
closed = 1;
nodes = (
(1200,240,ls),
(1252,240,o),
(1296,276,o),
(1296,329,cs),
(1296,415,ls),
(1296,466,o),
(1252,503,o),
(1200,503,cs),
(262,503,ls),
(211,503,o),
(167,466,o),
(167,420,cs),
(167,323,ls),
(167,276,o),
(211,240,o),
(262,240,cs)
);
}
);
};
hints = (
{
name = _corner.round;
origin = (0,0);
scale = (-1,1);
type = Corner;
},
{
name = _corner.round;
origin = (0,1);
type = Corner;
},
{
name = _corner.round;
origin = (0,2);
scale = (-1,1);
type = Corner;
},
{
name = _corner.round;
origin = (0,3);
type = Corner;
},
{
name = _corner.round;
origin = (1,0);
scale = (-1,1);
type = Corner;
},
{
name = _corner.round;
origin = (1,1);
type = Corner;
},
{
name = _corner.round;
origin = (1,2);
scale = (-1,1);
type = Corner;
},
{
name = _corner.round;
origin = (1,3);
type = Corner;
}
);
layerId = "997F8AB0-1B91-48A1-A6B5-F95345F1D981";
shapes = (
{
closed = 1;
nodes = (
(1171,696,l),
(1171,964,l),
(131,964,l),
(131,696,l)
);
},
{
closed = 1;
nodes = (
(1171,225,l),
(1171,493,l),
(131,493,l),
(131,225,l)
);
}
);
width = 1302;
},
{
background = {
shapes = (
{
closed = 1;
nodes = (
(1120,751,ls),
(1134,751,o),
(1146,762,o),
(1146,781,cs),
(1146,870,ls),
(1146,887,o),
(1134,898,o),
(1120,898,cs),
(182,898,ls),
(168,898,o),
(157,888,o),
(157,875,cs),
(157,775,ls),
(157,761,o),
(168,751,o),
(182,751,cs)
);
},
{
closed = 1;
nodes = (
(1120,301,ls),
(1134,301,o),
(1146,312,o),
(1146,331,cs),
(1146,420,ls),
(1146,437,o),
(1134,448,o),
(1120,448,cs),
(182,448,ls),
(168,448,o),
(157,438,o),
(157,425,cs),
(157,325,ls),
(157,311,o),
(168,301,o),
(182,301,cs)
);
}
);
};
hints = (
{
name = _corner.round;
origin = (0,0);
scale = (-1,1);
type = Corner;
},
{
name = _corner.round;
origin = (0,1);
type = Corner;
},
{
name = _corner.round;
origin = (0,2);
scale = (-1,1);
type = Corner;
},
{
name = _corner.round;
origin = (0,3);
type = Corner;
},
{
name = _corner.round;
origin = (1,0);
scale = (-1,1);
type = Corner;
},
{
name = _corner.round;
origin = (1,1);
type = Corner;
},
{
name = _corner.round;
origin = (1,2);
scale = (-1,1);
type = Corner;
},
{
name = _corner.round;
origin = (1,3);
type = Corner;
}
);
layerId = m001;
shapes = (
{
closed = 1;
nodes = (
(1171,745,l),
(1171,903,l),
(131,903,l),
(131,745,l)
);
},
{
closed = 1;
nodes = (
(1171,296,l),
(1171,454,l),
(131,454,l),
(131,296,l)
);
}
);
width = 1302;
},
{
background = {
shapes = (
{
closed = 1;
nodes = (
(1150,726,ls),
(1181,726,o),
(1206,748,o),
(1206,781,cs),
(1206,870,ls),
(1206,901,o),
(1181,923,o),
(1150,923,cs),
(212,923,ls),
(182,923,o),
(157,901,o),
(157,875,cs),
(157,775,ls),
(157,748,o),
(182,726,o),
(212,726,cs)
);
},
{
closed = 1;
nodes = (
(1150,276,ls),
(1181,276,o),
(1206,298,o),
(1206,331,cs),
(1206,420,ls),
(1206,451,o),
(1181,473,o),
(1150,473,cs),
(212,473,ls),
(182,473,o),
(157,451,o),
(157,425,cs),
(157,325,ls),
(157,298,o),
(182,276,o),
(212,276,cs)
);
}
);
};
hints = (
{
name = _corner.round;
origin = (0,0);
scale = (-1,1);
type = Corner;
},
{
name = _corner.round;
origin = (0,1);
type = Corner;
},
{
name = _corner.round;
origin = (0,2);
scale = (-1,1);
type = Corner;
},
{
name = _corner.round;
origin = (0,3);
type = Corner;
},
{
name = _corner.round;
origin = (1,0);
scale = (-1,1);
type = Corner;
},
{
name = _corner.round;
origin = (1,1);
type = Corner;
},
{
name = _corner.round;
origin = (1,2);
scale = (-1,1);
type = Corner;
},
{
name = _corner.round;
origin = (1,3);
type = Corner;
}
);
layerId = m002;
shapes = (
{
closed = 1;
nodes = (
(1171,739,l),
(1171,951,l),
(131,951,l),
(131,739,l)
);
},
{
closed = 1;
nodes = (
(1171,258,l),
(1171,470,l),
(131,470,l),
(131,258,l)
);
}
);
width = 1302;
}
);
metricRight = "=|";
unicode = 61;
userData = {
KernOnSpecialSpacing = {
L = math;
R = math;
};
};
}
{
color = 6;
glyphname = E;
layers = (
{
anchors = (
{
name = bottom;
pos = (685,0);
},
{
name = ogonek;
pos = (1223,10);
},
{
name = top;
pos = (730,1533);
},
{
name = topleft;
pos = (33,1533);
}
);
hints = (
{
name = _corner.round;
origin = (0,10);
scale = (-1,1);
type = Corner;
},
{
name = _corner.round;
origin = (0,11);
type = Corner;
},
{
name = _corner.round;
origin = (0,1);
type = Corner;
},
{
name = _corner.round;
origin = (0,5);
type = Corner;
},
{
name = _corner.round;
origin = (0,9);
type = Corner;
},
{
name = _corner.round;
origin = (0,8);
scale = (-1,1);
type = Corner;
},
{
name = _corner.round;
origin = (0,4);
scale = (-1,1);
type = Corner;
},
{
name = _corner.round;
origin = (0,0);
scale = (-1,1);
type = Corner;
}
);
layerId = "997F8AB0-1B91-48A1-A6B5-F95345F1D981";
shapes = (
{
closed = 1;
nodes = (
(1262,0,l),
(1262,285,l),
(528,285,l),
(528,630,l),
(1119,630,l),
(1119,913,l),
(528,913,l),
(528,1249,l),
(1257,1249,l),
(1257,1533,l),
(199,1533,l),
(199,0,l)
);
}
);
width = 1370;
},
{
anchors = (
{
name = bottom;
pos = (637,0);
},
{
name = ogonek;
pos = (1179,10);
},
{
name = top;
pos = (695,1533);
},
{
name = topleft;
pos = (-20,1533);
}
);
guides = (
{
angle = 90;
pos = (682,0);
},
{
pos = (1208,1414);
},
{
pos = (1197,1481);
}
);
hints = (
{
name = _corner.round;
origin = (0,10);
scale = (-1,1);
type = Corner;
},
{
name = _corner.round;
origin = (0,11);
type = Corner;
},
{
name = _corner.round;
origin = (0,9);
type = Corner;
},
{
name = _corner.round;
origin = (0,5);
type = Corner;
},
{
name = _corner.round;
origin = (0,1);
type = Corner;
},
{
name = _corner.round;
origin = (0,0);
scale = (-1,1);
type = Corner;
},
{
name = _corner.round;
origin = (0,4);
scale = (-1,1);
type = Corner;
},
{
name = _corner.round;
origin = (0,8);
scale = (-1,1);
type = Corner;
}
);
layerId = m001;
shapes = (
{
closed = 1;
nodes = (
(1179,0,l),
(1179,171,l),
(387,171,l),
(387,673,l),
(1034,673,l),
(1034,844,l),
(387,844,l),
(387,1362,l),
(1174,1362,l),
(1174,1533,l),
(216,1533,l),
(216,0,l)
);
}
);
width = 1284;
},
{
anchors = (
{
name = bottom;
pos = (719,0);
},
{
name = ogonek;
pos = (1216,10);
},
{
name = top;
pos = (719,1533);
},
{
name = topleft;
pos = (17,1533);
}
);
guides = (
{
angle = 90;
pos = (719,0);
}
);
hints = (
{
name = _corner.round;
origin = (0,11);
type = Corner;
},
{
name = _corner.round;
origin = (0,10);
scale = (-1,1);
type = Corner;
},
{
name = _corner.round;
origin = (0,0);
scale = (-1,1);
type = Corner;
},
{
name = _corner.round;
origin = (0,1);
type = Corner;
},
{
name = _corner.round;
origin = (0,4);
scale = (-1,1);
type = Corner;
},
{
name = _corner.round;
origin = (0,5);
type = Corner;
},
{
name = _corner.round;
origin = (0,8);
scale = (-1,1);
type = Corner;
},
{
name = _corner.round;
origin = (0,9);
type = Corner;
}
);
layerId = m002;
shapes = (
{
closed = 1;
nodes = (
(1216,0,l),
(1216,221,l),
(474,221,l),
(474,653,l),
(1071,653,l),
(1071,874,l),
(474,874,l),
(474,1312,l),
(1211,1312,l),
(1211,1533,l),
(223,1533,l),
(223,0,l)
);
}
);
width = 1351;
}
);
metricLeft = H;
unicode = 69;
userData = {
KernOnName = E;
};
}
{
color = 6;
glyphname = N;
layers = (
{
anchors = (
{
name = bottom;
pos = (848,0);
},
{
name = top;
pos = (848,1533);
}
);
background = {
shapes = (
{
closed = 1;
nodes = (
(449,0,ls),
(499,0,o),
(542,42,o),
(542,95,cs),
(542,698,ls),
(542,825,o),
(524,951,o),
(512,1018,cs),
(511,1021,o),
(513,1023,o),
(515,1023,cs),
(517,1023,o),
(518,1022,o),
(519,1020,cs),
(572,925,o),
(626,839,o),
(686,755,cs),
(1138,123,ls),
(1209,23,o),
(1245,0,o),
(1326,0,cs),
(1386,0,ls),
(1448,0,o),
(1527,56,o),
(1527,132,cs),
(1527,1438,ls),
(1527,1492,o),
(1484,1534,o),
(1435,1534,cs),
(1304,1534,ls),
(1254,1534,o),
(1211,1492,o),
(1211,1438,cs),
(1211,670,ls),
(1211,606,o),
(1226,540,o),
(1231,477,cs),
(1231,475,o),
(1230,473,o),
(1228,473,cs),
(1227,473,o),
(1226,473,o),
(1225,475,cs),
(1199,528,o),
(1175,588,o),
(1127,656,cs),
(559,1456,ls),
(516,1517,o),
(477,1534,o),
(414,1534,cs),
(374,1534,ls),
(297,1534,o),
(226,1497,o),
(226,1379,cs),
(226,95,ls),
(226,42,o),
(269,0,o),
(318,0,cs)
);
}
);
};
hints = (
{
name = _corner.round;
origin = (0,38);
scale = (-1,1);
type = Corner;
},
{
name = _corner.round;
origin = (0,18);
scale = (-1,1);
type = Corner;
},
{
name = _corner.round;
origin = (0,20);
scale = (-1,1);
type = Corner;
},
{
name = _corner.round;
origin = (0,19);
type = Corner;
},
{
name = _corner.round;
origin = (0,39);
type = Corner;
},
{
name = _corner.round;
origin = (0,0);
scale = (-1,1);
type = Corner;
}
);
layerId = "997F8AB0-1B91-48A1-A6B5-F95345F1D981";
shapes = (
{
closed = 1;
nodes = (
(504,0,l),
(504,715,ls),
(504,838,o),
(488,967,o),
(475,1032,cs),
(474,1037,o),
(475,1041,o),
(477,1041,cs),
(480,1041,o),
(481,1039,o),
(482,1037,cs),
(536,940,o),
(591,853,o),
(649,772,cs),
(1117,122,ls),
(1189,22,o),
(1222,0,o),
(1301,0,cs),
(1496,0,l),
(1496,1533,l),
(1191,1533,l),
(1191,651,ls),
(1191,587,o),
(1211,521,o),
(1211,458,cs),
(1211,456,o),
(1210,454,o),
(1208,454,cs),
(1207,454,o),
(1206,454,o),
(1205,456,cs),
(1177,513,o),
(1157,568,o),
(1107,638,cs),
(523,1456,ls),
(478,1519,o),
(441,1533,o),
(382,1533,cs),
(199,1533,l),
(199,0,l)
);
}
);
width = 1695;
},
{
anchors = (
{
name = bottom;
pos = (792,0);
},
{
name = top;
pos = (792,1533);
}
);
background = {
hints = (
{
name = _corner.round;
origin = (0,0);
scale = (-1,1);
type = Corner;
},
{
name = _corner.round;
origin = (0,18);
scale = (-1,1);
type = Corner;
},
{
name = _corner.round;
origin = (0,19);
type = Corner;
},
{
name = _corner.round;
origin = (0,20);
scale = (-1,1);
type = Corner;
},
{
name = _corner.round;
origin = (0,38);
scale = (-1,1);
type = Corner;
},
{
name = _corner.round;
origin = (0,39);
type = Corner;
}
);
shapes = (
{
closed = 1;
nodes = (
(387,0,l),
(387,868,ls),
(387,997,o),
(384,1177,o),
(373,1243,cs),
(372,1246,o),
(374,1248,o),
(376,1248,cs),
(378,1248,o),
(379,1247,o),
(380,1245,cs),
(434,1149,o),
(484,1076,o),
(538,992,cs),
(1105,114,ls),
(1169,14,o),
(1197,0,o),
(1232,0,cs),
(1368,0,l),
(1368,1533,l),
(1197,1533,l),
(1197,481,ls),
(1197,416,o),
(1202,329,o),
(1207,265,cs),
(1207,263,o),
(1206,261,o),
(1204,261,cs),
(1203,261,o),
(1202,261,o),
(1201,263,cs),
(1174,317,o),
(1098,450,o),
(1057,514,cs),
(448,1466,ls),
(413,1521,o),
(387,1533,o),
(335,1533,cs),
(216,1533,l),
(216,0,l)
);
}
);
};
guides = (
{
angle = 90;
pos = (813,0);
}
);
hints = (
{
name = _corner.round;
origin = (0,38);
scale = (-1,1);
type = Corner;
},
{
name = _corner.round;
origin = (0,18);
scale = (-1,1);
type = Corner;
},
{
name = _corner.round;
origin = (0,20);
scale = (-1,1);
type = Corner;
},
{
name = _corner.round;
origin = (0,19);
type = Corner;
},
{
name = _corner.round;
origin = (0,39);
type = Corner;
},
{
name = _corner.round;
origin = (0,0);
scale = (-1,1);
type = Corner;
}
);
layerId = m001;
shapes = (
{
closed = 1;
nodes = (
(387,0,l),
(387,878,ls),
(387,1007,o),
(384,1187,o),
(372,1263,cs),
(372,1266,o),
(374,1268,o),
(376,1268,cs),
(378,1268,o),
(379,1267,o),
(380,1265,cs),
(434,1159,o),
(484,1086,o),
(537,1002,cs),
(1138,58,ls),
(1162,20,o),
(1178,0,o),
(1212,0,cs),
(1368,0,l),
(1368,1533,l),
(1197,1533,l),
(1197,471,ls),
(1197,406,o),
(1202,319,o),
(1207,245,cs),
(1207,243,o),
(1206,241,o),
(1204,241,cs),
(1203,241,o),
(1202,241,o),
(1201,243,cs),
(1174,307,o),
(1098,440,o),
(1058,504,cs),
(445,1475,ls),
(421,1513,o),
(406,1533,o),
(372,1533,cs),
(216,1533,l),
(216,0,l)
);
}
);
width = 1584;
},
{
anchors = (
{
name = bottom;
pos = (837,0);
},
{
name = top;
pos = (837,1533);
}
);
guides = (
{
angle = 90;
pos = (850,0);
}
);
hints = (
{
name = _corner.round;
origin = (0,39);
type = Corner;
},
{
name = _corner.round;
origin = (0,18);
scale = (-1,1);
type = Corner;
},
{
name = _corner.round;
origin = (0,0);
scale = (-1,1);
type = Corner;
},
{
name = _corner.round;
origin = (0,38);
scale = (-1,1);
type = Corner;
},
{
name = _corner.round;
origin = (0,20);
scale = (-1,1);
type = Corner;
},
{
name = _corner.round;
origin = (0,19);
type = Corner;
}
);
layerId = m002;
shapes = (
{
closed = 1;
nodes = (
(460,0,l),
(460,828,ls),
(460,957,o),
(441,1087,o),
(430,1153,cs),
(429,1156,o),
(431,1158,o),
(433,1158,cs),
(435,1158,o),
(436,1157,o),
(437,1155,cs),
(491,1059,o),
(546,972,o),
(605,885,cs),
(1132,114,ls),
(1199,17,o),
(1224,0,o),
(1289,0,cs),
(1451,0,l),
(1451,1533,l),
(1214,1533,l),
(1214,531,ls),
(1214,466,o),
(1229,399,o),
(1234,335,cs),
(1234,333,o),
(1233,331,o),
(1231,331,cs),
(1230,331,o),
(1229,331,o),
(1228,333,cs),
(1201,387,o),
(1178,446,o),
(1129,518,cs),
(485,1466,ls),
(447,1521,o),
(424,1533,o),
(372,1533,cs),
(223,1533,l),
(223,0,l)
);
}
);
width = 1674;
}
);
metricLeft = H;
metricRight = H;
unicode = 78;
userData = {
KernOnName = N;
};
}
{
color = 6;
glyphname = T;
layers = (
{
anchors = (
{
name = bottom;
pos = (607,0);
},
{
name = center;
pos = (609,767);
},
{
name = top;
pos = (609,1533);
}
);
background = {
shapes = (
{
closed = 1;
nodes = (
(676,0,ls),
(728,0,o),
(772,43,o),
(772,98,cs),
(772,1251,l),
(1102,1251,ls),
(1158,1251,o),
(1196,1291,o),
(1196,1342,cs),
(1196,1441,ls),
(1196,1493,o),
(1159,1533,o),
(1103,1533,cs),
(125,1533,ls),
(69,1533,o),
(22,1493,o),
(22,1442,cs),
(22,1343,ls),
(22,1291,o),
(69,1251,o),
(125,1251,cs),
(442,1251,l),
(442,98,ls),
(442,43,o),
(486,0,o),
(537,0,cs)
);
}
);
};
hints = (
{
name = _corner.round;
origin = (0,4);
scale = (-1,1);
type = Corner;
},
{
name = _corner.round;
origin = (0,3);
type = Corner;
},
{
name = _corner.round;
origin = (0,2);
scale = (-1,1);
type = Corner;
},
{
name = _corner.round;
origin = (0,5);
type = Corner;
},
{
name = _corner.round;
origin = (0,7);
type = Corner;
},
{
name = _corner.round;
origin = (0,0);
scale = (-1,1);
type = Corner;
}
);
layerId = "997F8AB0-1B91-48A1-A6B5-F95345F1D981";
shapes = (
{
closed = 1;
nodes = (
(772,0,l),
(772,1251,l),
(1196,1251,l),
(1196,1533,l),
(22,1533,l),
(22,1251,l),
(442,1251,l),
(442,0,l)
);
}
);
width = 1218;
},
{
anchors = (
{
name = bottom;
pos = (565,0);
},
{
name = center;
pos = (576,767);
},
{
name = top;
pos = (576,1533);
}
);
background = {
shapes = (
{
closed = 1;
nodes = (
(604,0,ls),
(635,0,o),
(660,29,o),
(660,64,cs),
(660,1362,l),
(1074,1362,ls),
(1109,1362,o),
(1128,1387,o),
(1128,1418,cs),
(1128,1476,ls),
(1128,1508,o),
(1110,1533,o),
(1075,1533,cs),
(68,1533,ls),
(33,1533,o),
(5,1508,o),
(5,1477,cs),
(5,1419,ls),
(5,1387,o),
(33,1362,o),
(68,1362,cs),
(469,1362,l),
(469,64,ls),
(469,29,o),
(494,0,o),
(524,0,cs)
);
}
);
};
hints = (
{
name = _corner.round;
origin = (0,4);
scale = (-1,1);
type = Corner;
},
{
name = _corner.round;
origin = (0,3);
type = Corner;
},
{
name = _corner.round;
origin = (0,2);
scale = (-1,1);
type = Corner;
},
{
name = _corner.round;
origin = (0,5);
type = Corner;
},
{
name = _corner.round;
origin = (0,7);
type = Corner;
},
{
name = _corner.round;
origin = (0,0);
scale = (-1,1);
type = Corner;
}
);
layerId = m001;
shapes = (
{
closed = 1;
nodes = (
(660,0,l),
(660,1362,l),
(1128,1362,l),
(1128,1533,l),
(5,1533,l),
(5,1362,l),
(469,1362,l),
(469,0,l)
);
}
);
width = 1132;
},
{
anchors = (
{
name = bottom;
pos = (596,0);
},
{
name = center;
pos = (596,767);
},
{
name = top;
pos = (596,1533);
}
);
background = {
hints = (
{
name = _corner.round;
origin = (0,0);
scale = (-1,1);
type = Corner;
},
{
name = _corner.round;
origin = (0,2);
scale = (-1,1);
type = Corner;
},
{
name = _corner.round;
origin = (0,3);
type = Corner;
},
{
name = _corner.round;
origin = (0,4);
scale = (-1,1);
type = Corner;
},
{
name = _corner.round;
origin = (0,5);
type = Corner;
},
{
name = _corner.round;
origin = (0,7);
type = Corner;
}
);
shapes = (
{
closed = 1;
nodes = (
(720,0,l),
(720,1315,l),
(1148,1315,l),
(1148,1533,l),
(44,1533,l),
(44,1315,l),
(468,1315,l),
(468,0,l)
);
}
);
};
hints = (
{
name = _corner.round;
origin = (0,7);
type = Corner;
},
{
name = _corner.round;
origin = (0,3);
type = Corner;
},
{
name = _corner.round;
origin = (0,5);
type = Corner;
},
{
name = _corner.round;
origin = (0,0);
scale = (-1,1);
type = Corner;
},
{
name = _corner.round;
origin = (0,2);
scale = (-1,1);
type = Corner;
},
{
name = _corner.round;
origin = (0,4);
scale = (-1,1);
type = Corner;
}
);
layerId = m002;
shapes = (
{
closed = 1;
nodes = (
(720,0,l),
(720,1315,l),
(1148,1315,l),
(1148,1533,l),
(44,1533,l),
(44,1315,l),
(468,1315,l),
(468,0,l)
);
}
);
width = 1192;
}
);
unicode = 84;
userData = {
KernOnName = T;
};
}
{
color = 6;
glyphname = V;
layers = (
{
anchors = (
{
name = bottom;
pos = (770,0);
},
{
name = top;
pos = (770,1533);
}
);
layerId = "997F8AB0-1B91-48A1-A6B5-F95345F1D981";
shapes = (
{
closed = 1;
nodes = (
(804,0,ls),
(944,0,o),
(973,58,o),
(1002,114,cs),
(1128,359,o),
(1419,1078,o),
(1457,1414,cs),
(1458,1422,o),
(1458,1429,o),
(1458,1435,cs),
(1458,1492,o),
(1414,1533,o),
(1344,1533,cs),
(1234,1533,ls),
(1185,1533,o),
(1132,1504,o),
(1120,1439,cs),
(1057,1099,o),
(947,755,o),
(810,398,cs),
(800,372,o),
(796,360,o),
(788,360,cs),
(778,360,o),
(774,374,o),
(768,393,cs),
(431,1464,ls),
(419,1502,o),
(385,1533,o),
(339,1533,cs),
(169,1533,ls),
(116,1533,o),
(83,1492,o),
(83,1444,cs),
(83,1435,o),
(85,1425,o),
(89,1414,cs),
(542,130,ls),
(579,25,o),
(643,0,o),
(751,0,cs)
);
}
);
width = 1541;
},
{
anchors = (
{
name = bottom;
pos = (655,0);
},
{
name = top;
pos = (655,1533);
}
);
background = {
shapes = (
{
closed = 1;
nodes = (
(655,0,ls),
(740,0,o),
(751,21,o),
(781,83,cs),
(909,346,o),
(1208,1148,o),
(1245,1460,cs),
(1246,1470,o),
(1247,1479,o),
(1247,1487,cs),
(1247,1516,o),
(1236,1533,o),
(1201,1533,cs),
(1115,1533,ls),
(1082,1533,o),
(1063,1513,o),
(1058,1487,cs),
(970,1045,o),
(840,664,o),
(658,224,cs),
(654,215,o),
(651,212,o),
(647,212,cs),
(642,212,o),
(640,213,o),
(637,223,cs),
(219,1493,ls),
(210,1519,o),
(199,1533,o),
(167,1533,cs),
(81,1533,ls),
(43,1533,o),
(27,1508,o),
(27,1490,cs),
(27,1476,o),
(31,1463,o),
(35,1450,cs),
(496,90,ls),
(521,15,o),
(530,0,o),
(617,0,cs)
);
}
);
};
layerId = m001;
shapes = (
{
closed = 1;
nodes = (
(655,0,ls),
(732,0,o),
(743,21,o),
(773,83,cs),
(901,346,o),
(1196,1168,o),
(1235,1405,cs),
(1241,1443,o),
(1247,1474,o),
(1247,1487,cs),
(1247,1516,o),
(1236,1533,o),
(1201,1533,cs),
(1120,1533,ls),
(1087,1533,o),
(1072,1513,o),
(1064,1477,cs),
(992,1156,o),
(835,653,o),
(658,213,cs),
(654,204,o),
(651,199,o),
(647,199,cs),
(642,199,o),
(640,202,o),
(637,212,cs),
(219,1493,ls),
(210,1519,o),
(199,1533,o),
(167,1533,cs),
(81,1533,ls),
(43,1533,o),
(27,1508,o),
(27,1490,cs),
(27,1476,o),
(31,1463,o),
(35,1450,cs),
(496,90,ls),
(521,15,o),
(530,0,o),
(617,0,cs)
);
}
);
width = 1279;
},
{
anchors = (
{
name = bottom;
pos = (673,0);
},
{
name = top;
pos = (673,1533);
}
);
layerId = m002;
shapes = (
{
closed = 1;
nodes = (
(706,0,ls),
(820,0,o),
(840,40,o),
(869,99,cs),
(994,352,o),
(1287,1104,o),
(1324,1451,cs),
(1325,1457,o),
(1325,1464,o),
(1325,1470,cs),
(1325,1507,o),
(1300,1533,o),
(1251,1533,cs),
(1140,1533,ls),
(1114,1533,o),
(1074,1519,o),
(1065,1467,cs),
(990,1038,o),
(845,615,o),
(698,237,cs),
(696,233,o),
(690,231,o),
(684,231,cs),
(678,231,o),
(673,233,o),
(672,236,cs),
(291,1488,ls),
(284,1512,o),
(264,1533,o),
(237,1533,cs),
(66,1533,ls),
(35,1533,o),
(20,1506,o),
(20,1479,cs),
(20,1471,o),
(22,1463,o),
(24,1456,cs),
(481,111,ls),
(512,21,o),
(558,0,o),
(653,0,cs)
);
}
);
width = 1345;
}
);
unicode = 86;
userData = {
KernOnName = V;
KernOnSpecialSpacing = {
L = diagonal;
R = diagonal;
};
};
}
{
color = 6;
glyphname = W;
layers = (
{
anchors = (
{
name = bottom;
pos = (1140,0);
},
{
name = top;
pos = (1136,1511);
}
);
layerId = "997F8AB0-1B91-48A1-A6B5-F95345F1D981";
shapes = (
{
closed = 1;
nodes = (
(714,0,ls),
(855,0,o),
(887,37,o),
(938,171,cs),
(984,292,o),
(1026,456,o),
(1064,626,cs),
(1091,747,o),
(1116,874,o),
(1144,1001,cs),
(1151,1033,o),
(1152,1047,o),
(1162,1047,cs),
(1173,1047,o),
(1173,1036,o),
(1180,1008,cs),
(1388,188,ls),
(1420,62,o),
(1501,0,o),
(1615,0,cs),
(1694,0,ls),
(1818,0,o),
(1870,67,o),
(1927,207,cs),
(1993,369,o),
(2096,697,o),
(2145,943,cs),
(2187,1153,o),
(2196,1323,o),
(2196,1393,cs),
(2196,1481,o),
(2162,1533,o),
(2073,1533,cs),
(1981,1533,ls),
(1879,1533,o),
(1859,1464,o),
(1859,1384,cs),
(1859,1270,o),
(1850,1150,o),
(1814,927,cs),
(1790,778,o),
(1708,426,o),
(1680,337,cs),
(1675,321,o),
(1669,314,o),
(1660,314,cs),
(1652,314,o),
(1644,325,o),
(1642,336,c),
(1523,814,ls),
(1506,882,o),
(1416,1225,o),
(1366,1373,cs),
(1337,1459,o),
(1278,1490,o),
(1206,1490,cs),
(1104,1490,ls),
(1004,1490,o),
(961,1436,o),
(945,1371,cs),
(909,1224,o),
(866,1014,o),
(837,894,cs),
(788,694,o),
(755,513,o),
(706,344,cs),
(702,330,o),
(694,318,o),
(684,318,cs),
(670,318,o),
(668,335,o),
(666,347,cs),
(652,428,o),
(581,766,o),
(566,829,cs),
(419,1450,ls),
(405,1509,o),
(364,1533,o),
(322,1533,cs),
(177,1533,ls),
(126,1533,o),
(83,1497,o),
(83,1433,cs),
(83,1424,o),
(85,1408,o),
(89,1393,cs),
(410,183,ls),
(444,55,o),
(507,0,o),
(624,0,cs)
);
}
);
width = 2279;
},
{
anchors = (
{
name = bottom;
pos = (1014,0);
},
{
name = top;
pos = (1014,1533);
}
);
background = {
shapes = (
{
closed = 1;
nodes = (
(579,0,ls),
(645,0,o),
(686,34,o),
(727,150,cs),
(797,347,o),
(850,539,o),
(902,743,cs),
(953,944,o),
(1009,1205,o),
(1020,1250,cs),
(1023,1263,o),
(1026,1268,o),
(1034,1268,cs),
(1042,1268,o),
(1045,1258,o),
(1048,1247,cs),
(1327,148,ls),
(1355,36,o),
(1392,0,o),
(1458,0,cs),
(1523,0,ls),
(1612,0,o),
(1644,41,o),
(1703,186,cs),
(1791,401,o),
(1927,857,o),
(1959,1107,cs),
(1980,1252,o),
(1989,1394,o),
(1989,1454,cs),
(1989,1515,o),
(1981,1533,o),
(1937,1533,cs),
(1846,1533,ls),
(1797,1533,o),
(1795,1505,o),
(1795,1443,cs),
(1795,1328,o),
(1789,1241,o),
(1772,1104,cs),
(1744,876,o),
(1664,578,o),
(1537,230,cs),
(1527,204,o),
(1516,196,o),
(1507,196,cs),
(1499,196,o),
(1496,200,o),
(1492,214,cs),
(1332,841,ls),
(1306,941,o),
(1246,1195,o),
(1181,1409,cs),
(1163,1468,o),
(1137,1486,o),
(1089,1486,cs),
(978,1486,ls),
(921,1486,o),
(899,1463,o),
(888,1415,cs),
(857,1281,o),
(779,965,o),
(750,842,cs),
(700,633,o),
(638,401,o),
(563,210,cs),
(559,200,o),
(554,197,o),
(549,197,cs),
(542,197,o),
(538,201,o),
(536,210,cs),
(515,297,o),
(507,332,o),
(462,523,cs),
(230,1499,ls),
(224,1525,o),
(213,1533,o),
(192,1533,cs),
(80,1533,ls),
(54,1533,o),
(36,1513,o),
(36,1490,cs),
(36,1478,o),
(39,1463,o),
(45,1441,cs),
(367,148,ls),
(395,36,o),
(432,0,o),
(504,0,cs)
);
}
);
};
guides = (
{
pos = (-108,1488);
},
{
pos = (-108,405);
},
{
pos = (-108,1328);
},
{
pos = (572,199);
}
);
layerId = m001;
shapes = (
{
closed = 1;
nodes = (
(579,0,ls),
(645,0,o),
(686,34,o),
(727,150,cs),
(797,347,o),
(852,539,o),
(902,743,cs),
(951,944,o),
(1009,1205,o),
(1020,1250,cs),
(1023,1263,o),
(1026,1268,o),
(1034,1268,cs),
(1042,1268,o),
(1045,1258,o),
(1048,1247,cs),
(1329,148,ls),
(1358,36,o),
(1394,0,o),
(1468,0,cs),
(1523,0,ls),
(1612,0,o),
(1644,41,o),
(1703,186,cs),
(1791,401,o),
(1927,857,o),
(1959,1107,cs),
(1980,1252,o),
(1989,1394,o),
(1989,1454,cs),
(1989,1515,o),
(1981,1533,o),
(1937,1533,cs),
(1868,1533,ls),
(1820,1533,o),
(1800,1514,o),
(1800,1443,cs),
(1800,1328,o),
(1794,1241,o),
(1767,1044,cs),
(1734,806,o),
(1664,578,o),
(1537,230,cs),
(1527,204,o),
(1516,196,o),
(1507,196,cs),
(1499,196,o),
(1496,200,o),
(1492,214,cs),
(1327,841,ls),
(1301,941,o),
(1241,1195,o),
(1176,1409,cs),
(1158,1468,o),
(1132,1486,o),
(1084,1486,cs),
(982,1486,ls),
(925,1486,o),
(903,1463,o),
(892,1415,cs),
(861,1281,o),
(785,965,o),
(756,842,cs),
(706,633,o),
(638,401,o),
(563,210,cs),
(559,200,o),
(554,197,o),
(549,197,cs),
(542,197,o),
(538,201,o),
(536,210,cs),
(515,297,o),
(506,332,o),
(461,523,cs),
(230,1494,ls),
(224,1520,o),
(212,1533,o),
(187,1533,cs),
(80,1533,ls),
(54,1533,o),
(36,1513,o),
(36,1490,cs),
(36,1478,o),
(39,1463,o),
(45,1441,cs),
(369,148,ls),
(397,36,o),
(432,0,o),
(504,0,cs)
);
}
);
width = 2027;
},
{
anchors = (
{
name = bottom;
pos = (1026,0);
},
{
name = top;
pos = (1026,1533);
}
);
guides = (
{
pos = (-78,1488);
},
{
pos = (-78,405);
},
{
pos = (-78,1328);
}
);
layerId = m002;
shapes = (
{
closed = 1;
nodes = (
(607,0,ls),
(723,0,o),
(747,41,o),
(793,170,cs),
(860,355,o),
(908,546,o),
(950,739,cs),
(966,815,o),
(987,935,o),
(1035,1196,cs),
(1035,1199,o),
(1038,1201,o),
(1040,1201,cs),
(1042,1201,o),
(1045,1201,o),
(1046,1196,cs),
(1302,175,ls),
(1333,54,o),
(1398,0,o),
(1493,0,cs),
(1572,0,ls),
(1673,0,o),
(1715,54,o),
(1770,198,cs),
(1833,361,o),
(1933,697,o),
(1983,961,cs),
(2023,1174,o),
(2032,1349,o),
(2032,1421,cs),
(2032,1489,o),
(2016,1533,o),
(1945,1533,cs),
(1854,1533,ls),
(1772,1533,o),
(1768,1471,o),
(1768,1411,cs),
(1768,1301,o),
(1763,1219,o),
(1736,1011,cs),
(1701,736,o),
(1606,368,o),
(1552,225,cs),
(1547,211,o),
(1540,208,o),
(1534,208,cs),
(1528,208,o),
(1521,211,o),
(1518,224,cs),
(1364,848,ls),
(1341,941,o),
(1280,1184,o),
(1215,1391,cs),
(1193,1462,o),
(1151,1488,o),
(1091,1488,cs),
(991,1488,ls),
(915,1488,o),
(881,1450,o),
(868,1391,cs),
(823,1195,o),
(789,1003,o),
(744,812,cs),
(698,620,o),
(653,418,o),
(584,242,cs),
(576,222,o),
(568,219,o),
(562,219,cs),
(548,219,o),
(548,235,o),
(546,245,cs),
(534,321,o),
(461,679,o),
(447,742,cs),
(283,1472,ls),
(274,1514,o),
(251,1533,o),
(222,1533,cs),
(79,1533,ls),
(42,1533,o),
(20,1505,o),
(20,1463,cs),
(20,1452,o),
(21,1441,o),
(24,1429,cs),
(348,166,ls),
(378,48,o),
(427,0,o),
(527,0,cs)
);
}
);
width = 2052;
}
);
unicode = 87;
userData = {
KernOnName = W;
KernOnSpecialSpacing = {
L = diagonal;
R = diagonal;
};
};
}
{
color = 6;
glyphname = grave;
layers = (
{
anchors = (
{
name = _top;
pos = (389,554);
}
);
layerId = "997F8AB0-1B91-48A1-A6B5-F95345F1D981";
shapes = (
{
closed = 1;
nodes = (
(508,1245,o),
(531,1255,o),
(544,1273,cs),
(595,1341,ls),
(603,1354,o),
(608,1366,o),
(608,1380,cs),
(608,1402,o),
(598,1420,o),
(576,1440,cs),
(265,1713,ls),
(237,1737,o),
(207,1744,o),
(186,1744,cs),
(156,1744,o),
(126,1731,o),
(109,1710,cs),
(34,1618,ls),
(20,1600,o),
(13,1582,o),
(13,1562,cs),
(15,1527,o),
(33,1496,o),
(73,1472,cs),
(434,1259,ls),
(448,1250,o),
(468,1245,o),
(484,1245,cs)
);
}
);
width = 767;
},
{
anchors = (
{
name = _top;
pos = (349,624);
}
);
guides = (
{
angle = 90;
pos = (349,0);
}
);
layerId = m001;
shapes = (
{
closed = 1;
nodes = (
(448,1304,o),
(449,1305,o),
(451,1308,cs),
(500,1376,ls),
(502,1379,o),
(503,1381,o),
(503,1383,cs),
(503,1388,o),
(500,1393,o),
(491,1401,cs),
(182,1682,ls),
(168,1695,o),
(156,1699,o),
(146,1699,cs),
(134,1699,o),
(126,1694,o),
(120,1686,cs),
(45,1591,ls),
(41,1586,o),
(38,1579,o),
(38,1573,cs),
(39,1558,o),
(46,1542,o),
(66,1530,cs),
(429,1309,ls),
(434,1306,o),
(439,1304,o),
(444,1304,cs)
);
}
);
width = 687;
},
{
anchors = (
{
name = _top;
pos = (349,0);
}
);
guides = (
{
angle = 90;
pos = (349,0);
}
);
layerId = m002;
shapes = (
{
closed = 1;
nodes = (
(456,1281,o),
(466,1286,o),
(472,1295,cs),
(521,1363,ls),
(525,1369,o),
(528,1376,o),
(528,1383,cs),
(528,1396,o),
(520,1407,o),
(508,1418,cs),
(199,1699,ls),
(180,1716,o),
(161,1722,o),
(146,1722,cs),
(125,1722,o),
(109,1712,o),
(100,1700,cs),
(25,1605,ls),
(17,1595,o),
(13,1584,o),
(13,1572,cs),
(14,1553,o),
(23,1528,o),
(53,1510,cs),
(416,1289,ls),
(424,1284,o),
(434,1281,o),
(444,1281,cs)
);
}
);
width = 687;
}
);
unicode = 96;
userData = {
KernOnSpecialSpacing = {
L = NoKerning;
R = NoKerning;
};
};
}
{
color = 6;
glyphname = b;
layers = (
{
anchors = (
{
name = bottom;
pos = (677,0);
},
{
name = center;
pos = (335,1542);
},
{
name = top;
pos = (784,1128);
}
);
background = {
shapes = (
{
closed = 1;
nodes = (
(1049,-22,o),
(1268,224,o),
(1268,602,cs),
(1268,904,o),
(1123,1154,o),
(799,1154,cs),
(680,1154,o),
(546,1126,o),
(431,986,c),
(484,941,l),
(484,1674,ls),
(484,1729,o),
(441,1773,o),
(390,1773,cs),
(258,1773,ls),
(206,1773,o),
(165,1730,o),
(165,1674,cs),
(165,110,ls),
(165,48,o),
(198,0,o),
(265,0,cs),
(319,0,ls),
(393,0,o),
(435,31,o),
(439,104,cs),
(440,115,o),
(447,192,o),
(449,214,c),
(368,197,l),
(448,52,o),
(596,-22,o),
(760,-22,cs)
);
},
{
closed = 1;
nodes = (
(576,245,o),
(470,394,o),
(470,559,cs),
(470,743,o),
(575,884,o),
(735,884,cs),
(874,884,o),
(939,771,o),
(939,572,cs),
(939,406,o),
(884,245,o),
(717,245,cs)
);
}
);
};
hints = (
{
name = _corner.round;
origin = (0,10);
scale = (-1,1);
type = Corner;
},
{
name = _corner.round;
origin = (0,9);
type = Corner;
},
{
name = _corner.round;
origin = (0,11);
type = Corner;
}
);
layerId = "997F8AB0-1B91-48A1-A6B5-F95345F1D981";
shapes = (
{
closed = 1;
nodes = (
(1051,-25,o),
(1271,224,o),
(1271,583,cs),
(1271,904,o),
(1095,1154,o),
(786,1154,cs),
(669,1154,o),
(556,1108,o),
(484,1032,c),
(484,1773,l),
(165,1773,l),
(165,0,l),
(319,0,ls),
(393,0,o),
(418,25,o),
(432,66,cs),
(440,90,o),
(440,103,o),
(440,119,c),
(534,16,o),
(650,-25,o),
(757,-25,cs)
);
},
{
closed = 1;
nodes = (
(552,243,o),
(448,355,o),
(448,562,cs),
(448,749,o),
(568,882,o),
(704,882,cs),
(848,882,o),
(940,770,o),
(940,574,cs),
(940,377,o),
(853,243,o),
(704,243,cs)
);
}
);
width = 1356;
},
{
anchors = (
{
name = bottom;
pos = (658,0);
},
{
name = center;
pos = (314,1594);
},
{
name = top;
pos = (760,1128);
}
);
background = {
hints = (
{
name = _corner.round;
origin = (0,10);
type = Corner;
},
{
name = _corner.round;
origin = (0,11);
scale = (-1,1);
type = Corner;
}
);
shapes = (
{
closed = 1;
nodes = (
(978,-24,o),
(1202,207,o),
(1202,601,cs),
(1202,922,o),
(1054,1153,o),
(780,1153,cs),
(644,1153,o),
(451,1097,o),
(351,818,c),
(397,808,l),
(397,1773,l),
(214,1773,l),
(214,52,ls),
(214,21,o),
(220,0,o),
(244,0,cs),
(300,0,ls),
(337,0,o),
(350,11,o),
(351,49,cs),
(354,138,o),
(358,227,o),
(360,316,c),
(327,318,l),
(391,113,o),
(565,-24,o),
(745,-24,cs)
);
},
{
closed = 1;
nodes = (
(513,132,o),
(382,338,o),
(382,571,cs),
(382,810,o),
(521,995,o),
(717,995,cs),
(916,995,o),
(1009,805,o),
(1009,581,cs),
(1009,347,o),
(908,132,o),
(708,132,cs)
);
}
);
};
guides = (
{
angle = 90;
pos = (186,0);
}
);
hints = (
{
name = _corner.round;
origin = (0,10);
scale = (-1,1);
type = Corner;
},
{
name = _corner.round;
origin = (0,9);
type = Corner;
},
{
name = _corner.round;
origin = (0,11);
type = Corner;
}
);
layerId = m001;
shapes = (
{
closed = 1;
nodes = (
(978,-25,o),
(1202,207,o),
(1202,601,cs),
(1202,922,o),
(1040,1154,o),
(772,1154,cs),
(601,1154,o),
(485,1089,o),
(397,931,c),
(397,1773,l),
(214,1773,l),
(214,0,l),
(300,0,ls),
(337,0,o),
(348,11,o),
(353,49,cs),
(359,99,o),
(365,161,o),
(368,221,c),
(450,70,o),
(595,-25,o),
(745,-25,cs)
);
},
{
closed = 1;
nodes = (
(509,133,o),
(390,338,o),
(390,571,cs),
(390,810,o),
(517,996,o),
(709,996,cs),
(912,996,o),
(1009,805,o),
(1009,581,cs),
(1009,347,o),
(904,133,o),
(700,133,cs)
);
}
);
width = 1316;
},
{
anchors = (
{
name = bottom;
pos = (688,0);
},
{
name = center;
pos = (344,1594);
},
{
name = top;
pos = (813,1128);
}
);
guides = (
{
angle = 90;
pos = (216,0);
}
);
hints = (
{
name = _corner.round;
origin = (0,9);
type = Corner;
},
{
name = _corner.round;
origin = (0,10);
scale = (-1,1);
type = Corner;
},
{
name = _corner.round;
origin = (0,11);
type = Corner;
}
);
layerId = m002;
shapes = (
{
closed = 1;
nodes = (
(1062,-24,o),
(1262,229,o),
(1262,603,cs),
(1262,864,o),
(1119,1153,o),
(790,1153,cs),
(655,1153,o),
(538,1093,o),
(457,982,c),
(457,1773,l),
(214,1773,l),
(214,0,l),
(330,0,ls),
(379,0,o),
(397,19,o),
(404,64,cs),
(410,106,o),
(417,147,o),
(423,189,c),
(493,45,o),
(626,-24,o),
(755,-24,cs)
);
},
{
closed = 1;
nodes = (
(565,182,o),
(440,334,o),
(440,547,cs),
(440,846,o),
(613,945,o),
(741,945,cs),
(905,945,o),
(1009,819,o),
(1009,572,cs),
(1009,361,o),
(918,182,o),
(730,182,cs)
);
}
);
width = 1376;
}
);
metricLeft = h;
unicode = 98;
userData = {
KernOnName = b;
};
}
{
color = 6;
glyphname = c;
layers = (
{
anchors = (
{
name = bottom;
pos = (680,0);
},
{
name = top;
pos = (655,1128);
}
);
layerId = "997F8AB0-1B91-48A1-A6B5-F95345F1D981";
shapes = (
{
closed = 1;
nodes = (
(831,-24,o),
(1124,57,o),
(1124,205,cs),
(1124,219,o),
(1121,239,o),
(1103,268,cs),
(1082,302,ls),
(1061,336,o),
(1026,352,o),
(989,352,cs),
(965,352,o),
(938,342,o),
(910,328,cs),
(851,298,o),
(788,259,o),
(692,259,cs),
(501,259,o),
(431,392,o),
(431,578,cs),
(431,723,o),
(498,882,o),
(666,882,cs),
(752,882,o),
(810,846,o),
(810,751,cs),
(810,678,o),
(854,633,o),
(936,633,cs),
(959,633,ls),
(1047,633,o),
(1126,674,o),
(1126,788,cs),
(1126,964,o),
(1000,1154,o),
(669,1154,cs),
(337,1154,o),
(92,934,o),
(92,571,cs),
(92,218,o),
(316,-24,o),
(674,-24,cs)
);
}
);
width = 1207;
},
{
anchors = (
{
name = bottom;
pos = (595,0);
},
{
name = top;
pos = (620,1128);
}
);
guides = (
{
angle = 90;
pos = (615,0);
}
);
layerId = m001;
shapes = (
{
closed = 1;
nodes = (
(790,-25,o),
(1021,55,o),
(1021,148,cs),
(1021,157,o),
(1019,168,o),
(1010,183,cs),
(988,220,ls),
(978,237,o),
(968,241,o),
(960,241,cs),
(948,241,o),
(932,232,o),
(898,213,cs),
(841,181,o),
(763,139,o),
(665,139,cs),
(423,139,o),
(310,335,o),
(310,565,cs),
(310,790,o),
(419,999,o),
(633,999,cs),
(747,999,o),
(853,939,o),
(853,789,cs),
(853,751,o),
(863,733,o),
(905,733,cs),
(929,733,ls),
(990,733,o),
(1023,754,o),
(1023,836,cs),
(1023,987,o),
(911,1153,o),
(645,1153,cs),
(350,1153,o),
(120,949,o),
(120,572,cs),
(120,202,o),
(341,-25,o),
(633,-25,cs)
);
}
);
width = 1133;
},
{
anchors = (
{
name = bottom;
pos = (657,0);
},
{
name = top;
pos = (657,1128);
}
);
guides = (
{
angle = 90;
pos = (645,0);
}
);
layerId = m002;
shapes = (
{
closed = 1;
nodes = (
(818,-25,o),
(1081,57,o),
(1081,176,cs),
(1081,188,o),
(1077,202,o),
(1066,221,cs),
(1044,258,ls),
(1030,281,o),
(1010,291,o),
(989,291,cs),
(973,291,o),
(953,282,o),
(930,269,cs),
(875,239,o),
(797,189,o),
(686,189,cs),
(456,189,o),
(374,363,o),
(374,578,cs),
(374,749,o),
(455,949,o),
(659,949,cs),
(766,949,o),
(853,897,o),
(853,764,cs),
(853,717,o),
(872,683,o),
(935,683,cs),
(959,683,ls),
(1029,683,o),
(1083,712,o),
(1083,804,cs),
(1083,973,o),
(970,1153,o),
(663,1153,cs),
(350,1153,o),
(121,937,o),
(121,570,cs),
(121,214,o),
(329,-25,o),
(668,-25,cs)
);
}
);
width = 1193;
}
);
unicode = 99;
userData = {
KernOnName = c;
};
}
{
color = 6;
glyphname = f;
layers = (
{
anchors = (
{
name = bottom;
pos = (400,0);
},
{
name = top;
pos = (474,1748);
}
);
background = {
hints = (
{
name = _corner.round;
origin = (0,0);
scale = (-1,1);
type = Corner;
},
{
name = _corner.round;
origin = (0,51);
type = Corner;
}
);
shapes = (
{
closed = 1;
nodes = (
(556,0,l),
(556,857,l),
(751,857,ls),
(814,857,o),
(853,890,o),
(853,947,cs),
(853,1038,ls),
(853,1091,o),
(816,1128,o),
(751,1128,cs),
(520,1128,l),
(495,1245,o),
(488,1312,o),
(488,1343,cs),
(488,1431,o),
(511,1506,o),
(609,1506,cs),
(671,1506,o),
(704,1489,o),
(735,1471,cs),
(756,1460,o),
(779,1448,o),
(803,1448,cs),
(826,1448,o),
(852,1458,o),
(873,1487,cs),
(919,1553,ls),
(937,1577,o),
(945,1599,o),
(945,1620,cs),
(945,1661,o),
(912,1691,o),
(866,1717,cs),
(787,1763,o),
(695,1780,o),
(608,1780,cs),
(330,1780,o),
(181,1597,o),
(181,1408,cs),
(181,1301,o),
(204,1225,o),
(233,1105,c),
(134,1089,ls),
(65,1078,o),
(47,1043,o),
(47,1000,cs),
(47,948,ls),
(47,892,o),
(88,857,o),
(150,857,cs),
(243,857,l),
(243,0,l)
);
}
);
};
hints = (
{
name = _corner.round;
origin = (0,42);
type = Corner;
},
{
name = _corner.round;
origin = (0,0);
scale = (-1,1);
type = Corner;
},
{
name = _corner.round;
origin = (0,3);
type = Corner;
},
{
name = _corner.round;
origin = (0,2);
scale = (-1,1);
type = Corner;
},
{
name = _corner.round;
origin = (0,40);
type = Corner;
}
);
layerId = "997F8AB0-1B91-48A1-A6B5-F95345F1D981";
shapes = (
{
closed = 1;
nodes = (
(556,0,l),
(556,857,l),
(853,857,l),
(853,1128,l),
(520,1128,l),
(495,1245,o),
(488,1312,o),
(488,1343,cs),
(488,1431,o),
(511,1506,o),
(609,1506,cs),
(671,1506,o),
(704,1489,o),
(735,1471,cs),
(756,1460,o),
(779,1448,o),
(803,1448,cs),
(826,1448,o),
(852,1458,o),
(873,1487,cs),
(919,1553,ls),
(937,1577,o),
(945,1599,o),
(945,1620,cs),
(945,1661,o),
(912,1691,o),
(866,1717,cs),
(787,1763,o),
(695,1780,o),
(608,1780,cs),
(330,1780,o),
(181,1597,o),
(181,1408,cs),
(181,1301,o),
(204,1225,o),
(233,1105,c),
(134,1089,ls),
(65,1078,o),
(47,1043,o),
(47,989,cs),
(47,857,l),
(243,857,l),
(243,0,l)
);
}
);
width = 839;
},
{
anchors = (
{
name = bottom;
pos = (370,0);
},
{
name = top;
pos = (396,1992);
}
);
background = {
hints = (
{
name = _corner.round;
origin = (0,0);
scale = (-1,1);
type = Corner;
},
{
name = _corner.round;
origin = (0,51);
type = Corner;
}
);
shapes = (
{
closed = 1;
nodes = (
(459,0,l),
(459,970,l),
(733,970,ls),
(760,970,o),
(766,977,o),
(766,1001,cs),
(766,1098,ls),
(766,1119,o),
(760,1128,o),
(733,1128,cs),
(452,1128,l),
(407,1244,o),
(388,1338,o),
(388,1380,cs),
(388,1489,o),
(425,1618,o),
(587,1618,cs),
(679,1618,o),
(730,1588,o),
(760,1570,cs),
(775,1561,o),
(784,1557,o),
(790,1557,cs),
(799,1557,o),
(803,1564,o),
(808,1571,cs),
(856,1639,ls),
(864,1650,o),
(868,1662,o),
(868,1672,cs),
(868,1689,o),
(850,1705,o),
(824,1721,cs),
(751,1764,o),
(670,1780,o),
(586,1780,cs),
(344,1780,o),
(216,1622,o),
(216,1449,cs),
(216,1312,o),
(252,1231,o),
(292,1119,c),
(113,1090,l),
(79,1080,o),
(76,1076,o),
(76,1058,cs),
(76,1002,ls),
(76,979,o),
(83,970,o),
(109,970,cs),
(280,970,l),
(280,0,l)
);
}
);
};
hints = (
{
name = _corner.round;
origin = (0,42);
type = Corner;
},
{
name = _corner.round;
origin = (0,0);
scale = (-1,1);
type = Corner;
},
{
name = _corner.round;
origin = (0,3);
type = Corner;
},
{
name = _corner.round;
origin = (0,2);
scale = (-1,1);
type = Corner;
},
{
name = _corner.round;
origin = (0,40);
type = Corner;
}
);
layerId = m001;
shapes = (
{
closed = 1;
nodes = (
(459,0,l),
(459,970,l),
(766,970,l),
(766,1128,l),
(452,1128,l),
(407,1244,o),
(388,1338,o),
(388,1380,cs),
(388,1489,o),
(425,1618,o),
(599,1618,cs),
(660,1618,o),
(697,1605,o),
(750,1576,cs),
(768,1566,o),
(775,1562,o),
(786,1562,cs),
(798,1562,o),
(806,1569,o),
(819,1586,cs),
(853,1635,ls),
(864,1650,o),
(868,1660,o),
(868,1670,cs),
(868,1689,o),
(850,1705,o),
(824,1721,cs),
(751,1764,o),
(670,1780,o),
(598,1780,cs),
(344,1780,o),
(216,1622,o),
(216,1449,cs),
(216,1312,o),
(252,1231,o),
(292,1119,c),
(123,1091,ls),
(90,1086,o),
(76,1070,o),
(76,1038,cs),
(76,970,l),
(280,970,l),
(280,0,l)
);
}
);
width = 791;
},
{
anchors = (
{
name = bottom;
pos = (399,0);
},
{
name = top;
pos = (426,1992);
}
);
background = {
hints = (
{
name = _corner.round;
scale = (-1,1);
type = Corner;
},
{
name = _corner.round;
type = Corner;
},
{
name = _corner.round;
origin = (0,0);
scale = (-1,1);
type = Corner;
},
{
name = _corner.round;
origin = (0,51);
type = Corner;
}
);
shapes = (
{
closed = 1;
nodes = (
(519,0,l),
(519,920,l),
(763,920,ls),
(811,920,o),
(826,943,o),
(826,976,cs),
(826,1073,ls),
(826,1102,o),
(812,1128,o),
(763,1128,cs),
(494,1128,l),
(456,1232,o),
(448,1316,o),
(448,1355,cs),
(448,1458,o),
(479,1568,o),
(617,1568,cs),
(684,1568,o),
(725,1551,o),
(755,1535,cs),
(783,1519,o),
(802,1504,o),
(823,1504,cs),
(836,1504,o),
(848,1512,o),
(862,1531,cs),
(910,1599,ls),
(923,1617,o),
(928,1633,o),
(928,1647,cs),
(928,1676,o),
(900,1698,o),
(869,1717,cs),
(793,1762,o),
(704,1780,o),
(616,1780,cs),
(355,1780,o),
(216,1608,o),
(216,1424,cs),
(216,1295,o),
(248,1212,o),
(284,1113,c),
(135,1089,l),
(90,1076,o),
(76,1064,o),
(76,1033,cs),
(76,977,ls),
(76,945,o),
(92,920,o),
(139,920,cs),
(280,920,l),
(280,0,l)
);
}
);
};
hints = (
{
name = _corner.round;
origin = (0,42);
type = Corner;
},
{
name = _corner.round;
origin = (0,0);
scale = (-1,1);
type = Corner;
},
{
name = _corner.round;
origin = (0,3);
type = Corner;
},
{
name = _corner.round;
origin = (0,2);
scale = (-1,1);
type = Corner;
},
{
name = _corner.round;
origin = (0,40);
type = Corner;
}
);
layerId = m002;
shapes = (
{
closed = 1;
nodes = (
(519,0,l),
(519,920,l),
(826,920,l),
(826,1128,l),
(494,1128,l),
(456,1232,o),
(448,1316,o),
(448,1355,cs),
(448,1458,o),
(479,1568,o),
(634,1568,cs),
(683,1568,o),
(733,1550,o),
(759,1535,cs),
(792,1517,o),
(803,1512,o),
(820,1512,cs),
(842,1512,o),
(858,1526,o),
(877,1552,cs),
(910,1599,ls),
(923,1617,o),
(928,1633,o),
(928,1647,cs),
(928,1676,o),
(900,1698,o),
(869,1717,cs),
(793,1762,o),
(704,1780,o),
(630,1780,cs),
(355,1780,o),
(216,1608,o),
(216,1424,cs),
(216,1295,o),
(248,1212,o),
(284,1113,c),
(144,1091,ls),
(93,1083,o),
(76,1056,o),
(76,1018,cs),
(76,920,l),
(280,920,l),
(280,0,l)
);
}
);
width = 851;
}
);
unicode = 102;
userData = {
KernOnName = f;
};
}
{
color = 6;
glyphname = k;
layers = (
{
anchors = (
{
name = bottom;
pos = (613,0);
},
{
name = top;
pos = (325,1748);
}
);
background = {
shapes = (
{
closed = 1;
nodes = (
(1010,-15,o),
(1075,31,o),
(1075,94,cs),
(1075,107,o),
(1074,115,o),
(1071,130,cs),
(1055,204,ls),
(1051,223,o),
(1037,232,o),
(1022,232,cs),
(1009,232,o),
(968,217,o),
(930,217,cs),
(864,217,o),
(763,397,o),
(665,557,c),
(764,675,o),
(877,783,o),
(1001,899,c),
(1021,915,o),
(1033,937,o),
(1033,961,cs),
(1033,988,o),
(1016,1013,o),
(999,1031,cs),
(955,1077,ls),
(927,1106,o),
(910,1112,o),
(891,1112,cs),
(873,1112,o),
(853,1106,o),
(826,1078,cs),
(661,904,o),
(567,781,o),
(419,513,cs),
(403,485,o),
(385,475,o),
(365,475,cs),
(344,475,o),
(323,487,o),
(323,508,cs),
(323,557,o),
(361,799,o),
(361,943,cs),
(361,1673,ls),
(361,1716,o),
(333,1744,o),
(303,1744,cs),
(170,1744,ls),
(141,1744,o),
(112,1715,o),
(112,1672,cs),
(112,73,ls),
(112,29,o),
(141,0,o),
(170,0,cs),
(248,0,ls),
(284,0,o),
(301,20,o),
(315,73,cs),
(335,148,o),
(397,244,o),
(509,395,c),
(576,283,o),
(648,157,o),
(675,120,cs),
(746,21,o),
(813,-15,o),
(916,-15,cs)
);
}
);
};
hints = (
{
name = _corner.round;
origin = (0,45);
scale = (-1,1);
type = Corner;
},
{
name = _corner.round;
origin = (0,44);
type = Corner;
},
{
name = _corner.round;
origin = (0,46);
type = Corner;
}
);
layerId = "997F8AB0-1B91-48A1-A6B5-F95345F1D981";
shapes = (
{
closed = 1;
nodes = (
(1094,-15,o),
(1174,40,o),
(1174,119,cs),
(1174,128,o),
(1173,139,o),
(1169,157,cs),
(1153,231,ls),
(1147,259,o),
(1117,278,o),
(1091,278,cs),
(1067,278,o),
(1022,263,o),
(1005,263,cs),
(961,263,o),
(896,369,o),
(767,580,c),
(902,738,o),
(972,796,o),
(1077,896,cs),
(1096,914,o),
(1124,941,o),
(1124,979,cs),
(1124,1012,o),
(1104,1040,o),
(1081,1065,cs),
(1037,1112,ls),
(1009,1142,o),
(979,1154,o),
(950,1154,cs),
(926,1154,o),
(892,1145,o),
(860,1111,cs),
(640,878,o),
(566,746,o),
(455,550,cs),
(446,534,o),
(437,517,o),
(427,517,cs),
(423,517,o),
(418,520,o),
(418,527,cs),
(418,552,o),
(484,819,o),
(484,1021,cs),
(484,1774,l),
(165,1774,l),
(165,0,l),
(324,0,ls),
(380,0,o),
(407,33,o),
(422,90,cs),
(445,177,o),
(509,284,o),
(572,368,c),
(600,320,o),
(675,187,o),
(715,130,cs),
(782,35,o),
(865,-15,o),
(977,-15,cs)
);
}
);
width = 1213;
},
{
anchors = (
{
name = bottom;
pos = (591,0);
},
{
name = top;
pos = (580,1992);
}
);
background = {
hints = (
{
name = _corner.round;
origin = (0,44);
type = Corner;
},
{
name = _corner.round;
origin = (0,45);
scale = (-1,1);
type = Corner;
},
{
name = _corner.round;
origin = (0,46);
type = Corner;
}
);
shapes = (
{
closed = 1;
nodes = (
(1077,-17,o),
(1132,16,o),
(1132,61,cs),
(1132,70,o),
(1131,77,o),
(1129,87,cs),
(1118,139,ls),
(1114,158,o),
(1106,168,o),
(1093,168,cs),
(1079,168,o),
(1048,154,o),
(1019,154,cs),
(920,154,o),
(801,392,o),
(703,583,c),
(815,725,o),
(948,881,o),
(1070,996,cs),
(1082,1007,o),
(1087,1021,o),
(1087,1031,cs),
(1086,1050,o),
(1071,1068,o),
(1060,1081,cs),
(1016,1130,ls),
(1000,1148,o),
(989,1154,o),
(977,1154,cs),
(967,1154,o),
(955,1150,o),
(938,1131,cs),
(742,918,o),
(563,683,o),
(423,424,cs),
(410,400,o),
(404,393,o),
(397,393,cs),
(391,393,o),
(388,396,o),
(388,402,cs),
(388,458,o),
(400,636,o),
(400,867,cs),
(400,1773,l),
(214,1773,l),
(214,0,l),
(317,0,ls),
(337,0,o),
(343,14,o),
(351,46,cs),
(383,176,o),
(515,376,o),
(591,475,c),
(638,360,o),
(754,158,o),
(789,109,cs),
(852,18,o),
(912,-17,o),
(1005,-17,cs)
);
}
);
};
hints = (
{
name = _corner.round;
origin = (0,45);
scale = (-1,1);
type = Corner;
},
{
name = _corner.round;
origin = (0,44);
type = Corner;
},
{
name = _corner.round;
origin = (0,46);
type = Corner;
}
);
layerId = m001;
shapes = (
{
closed = 1;
nodes = (
(1077,-17,o),
(1132,16,o),
(1132,61,cs),
(1132,70,o),
(1131,77,o),
(1129,87,cs),
(1118,139,ls),
(1114,158,o),
(1106,168,o),
(1093,168,cs),
(1079,168,o),
(1048,154,o),
(1019,154,cs),
(920,154,o),
(801,392,o),
(699,591,c),
(811,730,o),
(944,886,o),
(1066,1001,cs),
(1078,1012,o),
(1083,1026,o),
(1083,1036,cs),
(1082,1055,o),
(1067,1073,o),
(1056,1086,cs),
(1016,1130,ls),
(1000,1148,o),
(989,1154,o),
(977,1154,cs),
(967,1154,o),
(955,1150,o),
(938,1131,cs),
(742,918,o),
(563,683,o),
(423,424,cs),
(410,400,o),
(399,381,o),
(394,381,cs),
(389,381,o),
(388,386,o),
(388,392,cs),
(388,452,o),
(400,636,o),
(400,867,cs),
(400,1773,l),
(214,1773,l),
(214,0,l),
(317,0,ls),
(337,0,o),
(343,14,o),
(351,46,cs),
(383,176,o),
(515,376,o),
(591,475,c),
(638,360,o),
(754,158,o),
(789,109,cs),
(852,18,o),
(912,-17,o),
(1005,-17,cs)
);
}
);
width = 1160;
},
{
anchors = (
{
name = bottom;
pos = (646,0);
},
{
name = top;
pos = (610,1992);
}
);
background = {
shapes = (
{
closed = 1;
nodes = (
(1121,-17,o),
(1192,25,o),
(1192,86,cs),
(1192,91,o),
(1192,96,o),
(1189,109,cs),
(1174,189,ls),
(1171,207,o),
(1159,220,o),
(1136,220,cs),
(1123,220,o),
(1072,204,o),
(1049,204,cs),
(977,204,o),
(864,415,o),
(767,581,c),
(877,718,o),
(1007,846,o),
(1122,955,cs),
(1142,973,o),
(1149,992,o),
(1149,1008,cs),
(1148,1035,o),
(1127,1060,o),
(1115,1074,cs),
(1070,1124,ls),
(1052,1144,o),
(1032,1156,o),
(1009,1156,cs),
(991,1156,o),
(969,1148,o),
(948,1125,cs),
(750,910,o),
(591,692,o),
(449,436,cs),
(439,417,o),
(430,410,o),
(426,410,cs),
(422,410,o),
(419,413,o),
(419,418,cs),
(437,579,o),
(458,741,o),
(458,867,cs),
(458,1710,ls),
(458,1746,o),
(435,1773,o),
(405,1773,cs),
(267,1773,ls),
(238,1773,o),
(214,1746,o),
(214,1710,cs),
(214,65,ls),
(214,28,o),
(238,0,o),
(267,0,cs),
(347,0,ls),
(388,0,o),
(401,29,o),
(410,65,cs),
(438,178,o),
(543,325,o),
(618,424,c),
(677,323,o),
(750,182,o),
(794,120,cs),
(861,23,o),
(931,-17,o),
(1035,-17,cs)
);
}
);
};
hints = (
{
name = _corner.round;
origin = (0,45);
scale = (-1,1);
type = Corner;
},
{
name = _corner.round;
origin = (0,44);
type = Corner;
},
{
name = _corner.round;
origin = (0,46);
type = Corner;
}
);
layerId = m002;
shapes = (
{
closed = 1;
nodes = (
(1121,-17,o),
(1192,25,o),
(1192,86,cs),
(1192,91,o),
(1192,96,o),
(1189,109,cs),
(1174,189,ls),
(1171,207,o),
(1159,220,o),
(1136,220,cs),
(1123,220,o),
(1072,204,o),
(1049,204,cs),
(977,204,o),
(864,415,o),
(767,581,c),
(877,718,o),
(1005,844,o),
(1120,953,cs),
(1140,971,o),
(1147,990,o),
(1147,1006,cs),
(1146,1033,o),
(1125,1058,o),
(1113,1072,cs),
(1068,1122,ls),
(1050,1142,o),
(1030,1154,o),
(1007,1154,cs),
(989,1154,o),
(967,1146,o),
(946,1123,cs),
(748,908,o),
(591,692,o),
(452,441,cs),
(439,417,o),
(433,410,o),
(426,410,cs),
(420,410,o),
(417,413,o),
(417,419,cs),
(417,436,o),
(460,667,o),
(460,867,cs),
(460,1773,l),
(214,1773,l),
(214,0,l),
(347,0,ls),
(388,0,o),
(401,29,o),
(410,65,cs),
(438,178,o),
(543,325,o),
(618,424,c),
(677,323,o),
(750,182,o),
(794,120,cs),
(861,23,o),
(931,-17,o),
(1035,-17,cs)
);
}
);
width = 1220;
}
);
metricLeft = h;
unicode = 107;
userData = {
KernOnName = k;
KernOnSpecialSpacing = {
R = diagonal;
};
};
}
{
color = 6;
glyphname = q;
layers = (
{
anchors = (
{
name = bottom;
pos = (699,0);
},
{
name = top;
pos = (699,1128);
}
);
background = {
hints = (
{
name = _corner.round;
scale = (-1,1);
type = Corner;
},
{
name = _corner.round;
type = Corner;
},
{
name = _corner.round;
scale = (-1,1);
type = Corner;
},
{
name = _corner.round;
type = Corner;
},
{
name = _corner.round;
scale = (-1,1);
type = Corner;
},
{
name = _corner.round;
type = Corner;
},
{
name = _corner.round;
type = Corner;
},
{
name = _corner.round;
origin = (0,6);
type = Corner;
},
{
name = _corner.round;
origin = (0,7);
scale = (-1,1);
type = Corner;
},
{
name = _corner.round;
origin = (0,8);
type = Corner;
}
);
shapes = (
{
closed = 1;
nodes = (
(697,-25,o),
(814,25,o),
(884,103,c),
(878,-7,o),
(878,-93,o),
(878,-141,cs),
(878,-564,l),
(1197,-564,l),
(1197,1128,l),
(1035,1128,ls),
(963,1128,o),
(945,1099,o),
(927,1031,cs),
(922,1010,l),
(829,1111,o),
(712,1154,o),
(605,1154,cs),
(311,1154,o),
(91,905,o),
(91,546,cs),
(91,225,o),
(299,-25,o),
(603,-25,cs)
);
},
{
closed = 1;
nodes = (
(515,243,o),
(423,355,o),
(423,551,cs),
(423,748,o),
(510,882,o),
(659,882,cs),
(811,882,o),
(915,770,o),
(915,563,cs),
(915,376,o),
(795,243,o),
(659,243,cs)
);
}
);
};
hints = (
{
name = _corner.round;
origin = (0,0);
scale = (-1,1);
type = Corner;
},
{
name = _corner.round;
origin = (0,1);
type = Corner;
},
{
name = _corner.round;
origin = (0,22);
type = Corner;
}
);
layerId = "997F8AB0-1B91-48A1-A6B5-F95345F1D981";
shapes = (
{
closed = 1;
nodes = (
(1197,-564,l),
(1197,1128,l),
(1035,1128,ls),
(963,1128,o),
(945,1099,o),
(927,1031,cs),
(922,1010,l),
(829,1111,o),
(712,1154,o),
(605,1154,cs),
(311,1154,o),
(91,905,o),
(91,546,cs),
(91,225,o),
(299,-25,o),
(603,-25,cs),
(697,-25,o),
(814,25,o),
(884,103,c),
(878,-7,o),
(878,-93,o),
(878,-141,cs),
(878,-564,l)
);
},
{
closed = 1;
nodes = (
(515,243,o),
(423,355,o),
(423,551,cs),
(423,748,o),
(510,882,o),
(659,882,cs),
(811,882,o),
(915,770,o),
(915,563,cs),
(915,376,o),
(795,243,o),
(659,243,cs)
);
}
);
width = 1342;
},
{
anchors = (
{
name = bottom;
pos = (661,0);
},
{
name = top;
pos = (661,1128);
}
);
background = {
hints = (
{
name = _corner.round;
origin = (0,0);
scale = (-1,1);
type = Corner;
},
{
name = _corner.round;
origin = (0,25);
type = Corner;
}
);
shapes = (
{
closed = 1;
nodes = (
(1108,-564,l),
(1108,1075,ls),
(1108,1107,o),
(1099,1128,o),
(1075,1128,cs),
(1013,1128,ls),
(985,1128,o),
(985,1126,o),
(972,1073,cs),
(936,928,l),
(844,1081,o),
(726,1153,o),
(581,1153,cs),
(348,1153,o),
(120,915,o),
(120,576,cs),
(120,238,o),
(275,-25,o),
(548,-25,cs),
(697,-25,o),
(848,47,o),
(931,232,c),
(925,138,o),
(922,-43,o),
(922,-103,cs),
(922,-564,l)
);
},
{
closed = 1;
nodes = (
(409,132,o),
(317,338,o),
(317,570,cs),
(317,800,o),
(408,994,o),
(604,994,cs),
(783,994,o),
(943,836,o),
(943,570,cs),
(943,332,o),
(808,132,o),
(614,132,cs)
);
}
);
};
hints = (
{
name = _corner.round;
origin = (0,0);
scale = (-1,1);
type = Corner;
},
{
name = _corner.round;
origin = (0,1);
type = Corner;
},
{
name = _corner.round;
origin = (0,22);
type = Corner;
}
);
layerId = m001;
shapes = (
{
closed = 1;
nodes = (
(1108,-564,l),
(1108,1128,l),
(1031,1128,ls),
(995,1128,o),
(980,1105,o),
(972,1073,cs),
(936,938,l),
(844,1091,o),
(726,1153,o),
(581,1153,cs),
(348,1153,o),
(120,915,o),
(120,576,cs),
(120,238,o),
(275,-25,o),
(548,-25,cs),
(697,-25,o),
(848,47,o),
(931,232,c),
(925,138,o),
(922,-43,o),
(922,-103,cs),
(922,-564,l)
);
},
{
closed = 1;
nodes = (
(409,132,o),
(317,338,o),
(317,570,cs),
(317,800,o),
(408,994,o),
(604,994,cs),
(783,994,o),
(943,836,o),
(943,570,cs),
(943,332,o),
(808,132,o),
(614,132,cs)
);
}
);
width = 1322;
},
{
anchors = (
{
name = bottom;
pos = (686,0);
},
{
name = top;
pos = (686,1128);
}
);
background = {
hints = (
{
name = _corner.round;
scale = (-1,1);
type = Corner;
},
{
name = _corner.round;
type = Corner;
},
{
name = _corner.round;
origin = (0,0);
scale = (-1,1);
type = Corner;
},
{
name = _corner.round;
origin = (0,25);
type = Corner;
}
);
shapes = (
{
closed = 1;
nodes = (
(1163,-564,l),
(1163,1050,ls),
(1163,1088,o),
(1149,1128,o),
(1100,1128,cs),
(1038,1128,ls),
(985,1128,o),
(981,1106,o),
(968,1054,cs),
(944,958,l),
(860,1088,o),
(752,1153,o),
(586,1153,cs),
(334,1153,o),
(115,902,o),
(115,576,cs),
(115,252,o),
(279,-25,o),
(573,-25,cs),
(734,-25,o),
(861,59,o),
(928,179,c),
(922,93,o),
(917,-14,o),
(917,-78,cs),
(917,-564,l)
);
},
{
closed = 1;
nodes = (
(457,182,o),
(372,372,o),
(372,570,cs),
(372,765,o),
(455,944,o),
(629,944,cs),
(790,944,o),
(938,798,o),
(938,570,cs),
(938,367,o),
(812,182,o),
(639,182,cs)
);
}
);
};
hints = (
{
name = _corner.round;
origin = (0,0);
scale = (-1,1);
type = Corner;
},
{
name = _corner.round;
origin = (0,1);
type = Corner;
},
{
name = _corner.round;
origin = (0,22);
type = Corner;
}
);
layerId = m002;
shapes = (
{
closed = 1;
nodes = (
(1163,-564,l),
(1163,1128,l),
(1038,1128,ls),
(985,1128,o),
(981,1106,o),
(968,1054,cs),
(944,958,l),
(872,1088,o),
(745,1152,o),
(622,1152,cs),
(315,1152,o),
(115,899,o),
(115,525,cs),
(115,264,o),
(258,-25,o),
(587,-25,cs),
(726,-25,o),
(846,38,o),
(927,156,c),
(920,48,o),
(917,-28,o),
(917,-78,cs),
(917,-564,l)
);
},
{
closed = 1;
nodes = (
(472,183,o),
(368,309,o),
(368,556,cs),
(368,767,o),
(459,946,o),
(647,946,cs),
(812,946,o),
(937,794,o),
(937,581,cs),
(937,282,o),
(764,183,o),
(636,183,cs)
);
}
);
width = 1377;
}
);
metricLeft = "=o";
unicode = 113;
userData = {
KernOnName = q;
};
}
{
color = 6;
glyphname = bar;
layers = (
{
hints = (
{
name = _corner.round;
origin = (0,2);
scale = (-1,1);
type = Corner;
},
{
name = _corner.round;
origin = (0,3);
type = Corner;
},
{
name = _corner.round;
origin = (0,0);
scale = (-1,1);
type = Corner;
},
{
name = _corner.round;
origin = (0,1);
type = Corner;
}
);
layerId = "997F8AB0-1B91-48A1-A6B5-F95345F1D981";
shapes = (
{
closed = 1;
nodes = (
(538,-357,l),
(538,1865,l),
(245,1865,l),
(245,-357,l)
);
}
);
width = 783;
},
{
background = {
shapes = (
{
closed = 1;
nodes = (
(362,-299,ls),
(374,-299,o),
(388,-283,o),
(388,-260,cs),
(388,1813,ls),
(388,1836,o),
(374,1852,o),
(363,1852,cs),
(261,1852,ls),
(249,1852,o),
(235,1836,o),
(235,1813,cs),
(235,-260,ls),
(235,-283,o),
(249,-299,o),
(260,-299,cs)
);
}
);
};
hints = (
{
name = _corner.round;
origin = (0,0);
scale = (-1,1);
type = Corner;
},
{
name = _corner.round;
origin = (0,1);
type = Corner;
},
{
name = _corner.round;
origin = (0,2);
scale = (-1,1);
type = Corner;
},
{
name = _corner.round;
origin = (0,3);
type = Corner;
}
);
layerId = m001;
shapes = (
{
closed = 1;
nodes = (
(388,-298,l),
(388,1874,l),
(235,1874,l),
(235,-298,l)
);
}
);
width = 623;
},
{
background = {
shapes = (
{
closed = 1;
nodes = (
(392,-324,ls),
(423,-324,o),
(448,-295,o),
(448,-260,cs),
(448,1813,ls),
(448,1848,o),
(423,1877,o),
(393,1877,cs),
(291,1877,ls),
(260,1877,o),
(235,1848,o),
(235,1813,cs),
(235,-260,ls),
(235,-295,o),
(260,-324,o),
(290,-324,cs)
);
}
);
};
hints = (
{
name = _corner.round;
origin = (0,0);
scale = (-1,1);
type = Corner;
},
{
name = _corner.round;
origin = (0,1);
type = Corner;
},
{
name = _corner.round;
origin = (0,2);
scale = (-1,1);
type = Corner;
},
{
name = _corner.round;
origin = (0,3);
type = Corner;
}
);
layerId = m002;
shapes = (
{
closed = 1;
nodes = (
(445,-321,l),
(445,1897,l),
(235,1897,l),
(235,-321,l)
);
}
);
width = 683;
}
);
unicode = 124;
userData = {
KernOnSpecialSpacing = {
L = NoKerning;
R = NoKerning;
};
};
}
{
color = 6;
glyphname = currency;
layers = (
{
layerId = "997F8AB0-1B91-48A1-A6B5-F95345F1D981";
shapes = (
{
closed = 1;
nodes = (
(242,110,o),
(259,116,o),
(278,133,cs),
(429,278,l),
(492,246,o),
(557,229,o),
(630,229,cs),
(697,229,o),
(761,246,o),
(817,272,c),
(963,134,ls),
(983,116,o),
(1000,111,o),
(1017,111,cs),
(1032,111,o),
(1047,116,o),
(1058,127,cs),
(1140,205,ls),
(1153,218,o),
(1161,235,o),
(1161,254,cs),
(1161,272,o),
(1153,288,o),
(1141,301,cs),
(992,443,l),
(1019,493,o),
(1034,553,o),
(1034,620,cs),
(1034,691,o),
(1015,756,o),
(984,811,c),
(1139,962,ls),
(1153,976,o),
(1163,994,o),
(1163,1014,cs),
(1163,1031,o),
(1156,1045,o),
(1145,1057,cs),
(1063,1137,l),
(1051,1151,o),
(1036,1156,o),
(1020,1156,cs),
(1002,1156,o),
(983,1149,o),
(966,1133,cs),
(802,974,l),
(748,997,o),
(690,1010,o),
(630,1010,cs),
(564,1010,o),
(502,996,o),
(445,969,c),
(280,1128,ls),
(261,1145,o),
(242,1154,o),
(223,1154,cs),
(210,1154,o),
(193,1149,o),
(178,1134,cs),
(100,1058,ls),
(88,1046,o),
(79,1028,o),
(79,1011,cs),
(79,992,o),
(89,974,o),
(103,960,cs),
(269,800,l),
(239,743,o),
(224,682,o),
(224,620,cs),
(224,562,o),
(236,507,o),
(261,453,c),
(103,302,ls),
(89,288,o),
(80,271,o),
(80,252,cs),
(80,234,o),
(89,218,o),
(100,206,cs),
(178,129,ls),
(194,115,o),
(211,110,o),
(226,110,cs)
);
},
{
closed = 1;
nodes = (
(527,446,o),
(449,518,o),
(449,620,cs),
(449,723,o),
(527,793,o),
(630,793,cs),
(731,793,o),
(809,723,o),
(809,620,cs),
(809,518,o),
(731,446,o),
(630,446,cs)
);
}
);
width = 1253;
},
{
guides = (
{
pos = (-30,1083);
},
{
pos = (-30,134);
},
{
angle = 90;
pos = (997,0);
},
{
angle = 90;
pos = (134,0);
}
);
layerId = m001;
shapes = (
{
closed = 1;
nodes = (
(169,111,o),
(174,114,o),
(183,123,cs),
(361,299,l),
(425,257,o),
(493,235,o),
(570,235,cs),
(641,235,o),
(705,255,o),
(765,292,c),
(938,124,ls),
(947,115,o),
(952,112,o),
(956,112,cs),
(959,112,o),
(961,113,o),
(965,117,cs),
(1044,196,ls),
(1048,200,o),
(1051,207,o),
(1051,215,cs),
(1051,221,o),
(1048,228,o),
(1044,232,cs),
(872,404,l),
(905,455,o),
(924,521,o),
(924,596,cs),
(924,675,o),
(900,745,o),
(863,801,c),
(1044,984,ls),
(1048,988,o),
(1053,997,o),
(1053,1005,cs),
(1053,1011,o),
(1051,1016,o),
(1047,1020,cs),
(971,1098,ls),
(967,1102,o),
(963,1107,o),
(958,1107,cs),
(952,1107,o),
(948,1104,o),
(939,1095,cs),
(752,906,l),
(694,940,o),
(636,955,o),
(570,955,cs),
(499,955,o),
(435,936,o),
(375,900,c),
(182,1093,ls),
(172,1102,o),
(167,1105,o),
(163,1105,cs),
(161,1105,o),
(160,1105,o),
(153,1098,cs),
(76,1020,ls),
(72,1016,o),
(69,1008,o),
(69,1002,cs),
(69,995,o),
(74,986,o),
(78,982,cs),
(268,790,l),
(232,732,o),
(214,664,o),
(214,596,cs),
(214,531,o),
(230,469,o),
(260,413,c),
(79,233,ls),
(75,229,o),
(70,220,o),
(70,213,cs),
(70,206,o),
(73,200,o),
(76,197,cs),
(151,120,ls),
(158,113,o),
(162,111,o),
(166,111,cs)
);
},
{
closed = 1;
nodes = (
(440,369,o),
(339,464,o),
(339,596,cs),
(339,727,o),
(440,821,o),
(570,821,cs),
(698,821,o),
(799,727,o),
(799,596,cs),
(799,464,o),
(698,369,o),
(570,369,cs)
);
}
);
width = 1133;
},
{
guides = (
{
pos = (0,1083);
},
{
pos = (0,134);
},
{
angle = 90;
pos = (1027,0);
},
{
angle = 90;
pos = (164,0);
}
);
layerId = m002;
shapes = (
{
closed = 1;
nodes = (
(209,86,o),
(222,93,o),
(234,105,cs),
(396,265,l),
(456,230,o),
(525,210,o),
(600,210,cs),
(669,210,o),
(734,228,o),
(790,259,c),
(947,106,ls),
(959,94,o),
(973,87,o),
(987,87,cs),
(997,87,o),
(1007,90,o),
(1016,99,cs),
(1095,178,ls),
(1106,189,o),
(1111,202,o),
(1111,215,cs),
(1111,227,o),
(1105,239,o),
(1096,249,cs),
(938,407,l),
(968,461,o),
(984,525,o),
(984,596,cs),
(984,672,o),
(963,740,o),
(929,798,c),
(1095,966,ls),
(1106,977,o),
(1113,991,o),
(1113,1005,cs),
(1113,1016,o),
(1109,1026,o),
(1101,1035,cs),
(1019,1119,ls),
(1011,1128,o),
(1000,1132,o),
(990,1132,cs),
(973,1132,o),
(958,1123,o),
(948,1113,cs),
(776,939,l),
(723,966,o),
(663,980,o),
(600,980,cs),
(532,980,o),
(467,963,o),
(411,933,c),
(234,1110,ls),
(221,1122,o),
(208,1130,o),
(193,1130,cs),
(182,1130,o),
(171,1125,o),
(162,1116,cs),
(84,1037,ls),
(75,1027,o),
(69,1014,o),
(69,1002,cs),
(69,989,o),
(76,975,o),
(87,964,cs),
(263,787,l),
(230,727,o),
(214,661,o),
(214,596,cs),
(214,534,o),
(228,473,o),
(255,417,c),
(88,251,ls),
(77,240,o),
(70,226,o),
(70,213,cs),
(70,200,o),
(76,189,o),
(84,180,cs),
(160,102,ls),
(171,91,o),
(184,86,o),
(196,86,cs)
);
},
{
closed = 1;
nodes = (
(487,394,o),
(399,477,o),
(399,596,cs),
(399,714,o),
(487,796,o),
(600,796,cs),
(711,796,o),
(799,714,o),
(799,596,cs),
(799,477,o),
(711,394,o),
(600,394,cs)
);
}
);
width = 1193;
}
);
unicode = 164;
}
{
color = 6;
glyphname = ordfeminine;
layers = (
{
layerId = "997F8AB0-1B91-48A1-A6B5-F95345F1D981";
shapes = (
{
closed = 1;
nodes = (
(533,580,o),
(626,629,o),
(699,732,c),
(702,704,o),
(706,672,o),
(709,651,cs),
(714,616,o),
(736,597,o),
(782,597,cs),
(865,597,ls),
(910,597,o),
(937,621,o),
(937,669,cs),
(937,755,o),
(912,871,o),
(871,978,c),
(887,1056,o),
(896,1111,o),
(896,1179,cs),
(896,1433,o),
(722,1577,o),
(493,1577,cs),
(370,1577,o),
(143,1528,o),
(143,1419,cs),
(143,1395,o),
(177,1283,o),
(239,1283,cs),
(253,1283,o),
(265,1288,o),
(292,1301,cs),
(331,1321,o),
(384,1346,o),
(466,1346,cs),
(594,1346,o),
(667,1286,o),
(667,1194,cs),
(667,1183,o),
(665,1167,o),
(663,1154,c),
(606,1187,o),
(514,1218,o),
(429,1218,cs),
(282,1218,o),
(90,1138,o),
(90,899,cs),
(90,690,o),
(243,580,o),
(409,580,cs)
);
},
{
closed = 1;
nodes = (
(395,799,o),
(345,836,o),
(345,904,cs),
(345,971,o),
(413,1003,o),
(467,1003,cs),
(543,1003,o),
(623,960,o),
(638,904,c),
(636,865,o),
(565,799,o),
(471,799,cs)
);
}
);
width = 1177;
},
{
background = {
shapes = (
{
closed = 1;
nodes = (
(582,600,o),
(680,661,o),
(735,744,c),
(739,725,o),
(743,701,o),
(746,671,cs),
(748,641,o),
(751,617,o),
(801,617,c),
(874,617,l),
(918,617,o),
(926,644,o),
(926,669,cs),
(926,753,o),
(901,869,o),
(859,976,c),
(875,1055,o),
(885,1111,o),
(885,1179,cs),
(885,1421,o),
(721,1557,o),
(502,1557,cs),
(385,1557,o),
(172,1509,o),
(172,1419,cs),
(172,1415,o),
(194,1303,o),
(248,1303,cs),
(260,1303,o),
(274,1310,o),
(292,1319,cs),
(330,1338,o),
(388,1366,o),
(475,1366,cs),
(613,1366,o),
(696,1299,o),
(696,1161,cs),
(696,1154,o),
(696,1133,o),
(695,1123,c),
(614,1186,o),
(524,1198,o),
(455,1198,cs),
(299,1198,o),
(119,1124,o),
(119,899,cs),
(119,702,o),
(282,600,o),
(442,600,cs)
);
},
{
closed = 1;
nodes = (
(396,779,o),
(334,823,o),
(334,904,cs),
(334,983,o),
(412,1023,o),
(476,1023,cs),
(560,1023,o),
(652,975,o),
(668,905,c),
(664,850,o),
(584,779,o),
(480,779,cs)
);
}
);
};
layerId = m001;
shapes = (
{
closed = 1;
nodes = (
(531,615,o),
(638,659,o),
(716,784,c),
(730,729,o),
(733,707,o),
(736,672,cs),
(739,642,o),
(739,632,o),
(771,632,cs),
(844,632,ls),
(871,632,o),
(876,646,o),
(876,669,cs),
(876,753,o),
(851,869,o),
(809,975,c),
(825,1054,o),
(835,1111,o),
(835,1179,cs),
(835,1413,o),
(680,1542,o),
(472,1542,cs),
(360,1542,o),
(162,1496,o),
(162,1419,cs),
(162,1417,o),
(185,1318,o),
(218,1318,cs),
(224,1318,o),
(235,1323,o),
(253,1332,cs),
(289,1350,o),
(352,1381,o),
(445,1381,cs),
(594,1381,o),
(686,1307,o),
(686,1161,cs),
(686,1138,o),
(684,1116,o),
(682,1093,c),
(583,1173,o),
(506,1183,o),
(425,1183,cs),
(276,1183,o),
(109,1113,o),
(109,899,cs),
(109,711,o),
(261,615,o),
(412,615,cs)
);
},
{
closed = 1;
nodes = (
(356,764,o),
(284,815,o),
(284,904,cs),
(284,993,o),
(374,1038,o),
(446,1038,cs),
(540,1038,o),
(642,984,o),
(658,906,c),
(655,843,o),
(566,764,o),
(450,764,cs)
);
}
);
width = 1135;
},
{
layerId = m002;
shapes = (
{
closed = 1;
nodes = (
(582,600,o),
(680,661,o),
(735,744,c),
(739,725,o),
(743,701,o),
(746,671,cs),
(748,641,o),
(751,617,o),
(801,617,c),
(874,617,l),
(918,617,o),
(926,644,o),
(926,669,cs),
(926,753,o),
(901,869,o),
(859,976,c),
(875,1055,o),
(885,1111,o),
(885,1179,cs),
(885,1421,o),
(721,1557,o),
(502,1557,cs),
(385,1557,o),
(172,1509,o),
(172,1419,cs),
(172,1415,o),
(194,1303,o),
(248,1303,cs),
(260,1303,o),
(274,1310,o),
(292,1319,cs),
(330,1338,o),
(388,1366,o),
(475,1366,cs),
(613,1366,o),
(696,1299,o),
(696,1161,cs),
(696,1154,o),
(696,1133,o),
(695,1123,c),
(614,1186,o),
(524,1198,o),
(455,1198,cs),
(299,1198,o),
(119,1124,o),
(119,899,cs),
(119,702,o),
(282,600,o),
(442,600,cs)
);
},
{
closed = 1;
nodes = (
(396,779,o),
(334,823,o),
(334,904,cs),
(334,983,o),
(412,1023,o),
(476,1023,cs),
(560,1023,o),
(652,975,o),
(668,905,c),
(664,850,o),
(584,779,o),
(480,779,cs)
);
}
);
width = 1195;
}
);
unicode = 170;
}
{
color = 3;
glyphname = plusminus;
layers = (
{
background = {
shapes = (
{
closed = 1;
nodes = (
(749,336,ls),
(789,336,o),
(822,368,o),
(822,412,cs),
(822,695,l),
(1195,695,ls),
(1236,695,o),
(1271,725,o),
(1271,770,cs),
(1271,854,ls),
(1271,897,o),
(1236,927,o),
(1195,927,cs),
(822,927,l),
(822,1197,ls),
(822,1240,o),
(789,1272,o),
(754,1272,cs),
(650,1272,ls),
(614,1272,o),
(581,1240,o),
(581,1197,cs),
(581,927,l),
(207,927,ls),
(167,927,o),
(132,897,o),
(132,859,cs),
(132,764,ls),
(132,725,o),
(167,695,o),
(207,695,cs),
(581,695,l),
(581,412,ls),
(581,368,o),
(614,336,o),
(656,336,cs)
);
},
{
alignment = -1;
pos = (20,-472);
ref = minus;
}
);
};
hints = (
{
name = _corner.round;
origin = (1,0);
scale = (-1,1);
type = Corner;
},
{
name = _corner.round;
origin = (1,2);
scale = (-1,1);
type = Corner;
},
{
name = _corner.round;
origin = (1,3);
type = Corner;
},
{
name = _corner.round;
origin = (1,5);
type = Corner;
},
{
name = _corner.round;
origin = (1,6);
scale = (-1,1);
type = Corner;
},
{
name = _corner.round;
origin = (1,8);
scale = (-1,1);
type = Corner;
},
{
name = _corner.round;
origin = (1,9);
type = Corner;
},
{
name = _corner.round;
origin = (1,11);
type = Corner;
}
);
layerId = "997F8AB0-1B91-48A1-A6B5-F95345F1D981";
shapes = (
{
alignment = -1;
pos = (20,-472);
ref = minus;
},
{
closed = 1;
nodes = (
(827,346,l),
(827,638,l),
(1246,638,l),
(1246,906,l),
(827,906,l),
(827,1198,l),
(541,1198,l),
(541,906,l),
(122,906,l),
(122,638,l),
(541,638,l),
(541,346,l)
);
}
);
width = 1368;
},
{
background = {
shapes = (
{
closed = 1;
nodes = (
(699,350,ls),
(711,350,o),
(722,362,o),
(722,381,cs),
(722,709,l),
(1145,709,ls),
(1159,709,o),
(1171,720,o),
(1171,739,cs),
(1171,823,ls),
(1171,840,o),
(1159,851,o),
(1145,851,cs),
(722,851,l),
(722,1166,ls),
(722,1184,o),
(711,1196,o),
(704,1196,cs),
(600,1196,ls),
(592,1196,o),
(581,1184,o),
(581,1166,cs),
(581,851,l),
(157,851,ls),
(143,851,o),
(132,841,o),
(132,828,cs),
(132,733,ls),
(132,719,o),
(143,709,o),
(157,709,cs),
(581,709,l),
(581,381,ls),
(581,362,o),
(592,350,o),
(606,350,cs)
);
},
{
pos = (0,-503);
ref = minus;
}
);
};
hints = (
{
name = _corner.round;
origin = (1,0);
scale = (-1,1);
type = Corner;
},
{
name = _corner.round;
origin = (1,2);
scale = (-1,1);
type = Corner;
},
{
name = _corner.round;
origin = (1,3);
type = Corner;
},
{
name = _corner.round;
origin = (1,5);
type = Corner;
},
{
name = _corner.round;
origin = (1,6);
scale = (-1,1);
type = Corner;
},
{
name = _corner.round;
origin = (1,8);
scale = (-1,1);
type = Corner;
},
{
name = _corner.round;
origin = (1,9);
type = Corner;
},
{
name = _corner.round;
origin = (1,11);
type = Corner;
}
);
layerId = m001;
shapes = (
{
pos = (0,-525);
ref = minus;
},
{
closed = 1;
nodes = (
(721,356,l),
(721,698,l),
(1131,698,l),
(1131,856,l),
(721,856,l),
(721,1198,l),
(541,1198,l),
(541,856,l),
(131,856,l),
(131,698,l),
(541,698,l),
(541,356,l)
);
}
);
width = 1262;
},
{
background = {
shapes = (
{
closed = 1;
nodes = (
(729,325,ls),
(760,325,o),
(782,350,o),
(782,381,cs),
(782,684,l),
(1175,684,ls),
(1206,684,o),
(1231,706,o),
(1231,739,cs),
(1231,823,ls),
(1231,854,o),
(1206,876,o),
(1175,876,cs),
(782,876,l),
(782,1166,ls),
(782,1196,o),
(760,1221,o),
(734,1221,cs),
(630,1221,ls),
(603,1221,o),
(581,1196,o),
(581,1166,cs),
(581,876,l),
(187,876,ls),
(157,876,o),
(132,854,o),
(132,828,cs),
(132,733,ls),
(132,706,o),
(157,684,o),
(187,684,cs),
(581,684,l),
(581,381,ls),
(581,350,o),
(603,325,o),
(636,325,cs)
);
},
{
pos = (0,-503);
ref = minus;
}
);
};
hints = (
{
name = _corner.round;
origin = (1,0);
scale = (-1,1);
type = Corner;
},
{
name = _corner.round;
origin = (1,2);
scale = (-1,1);
type = Corner;
},
{
name = _corner.round;
origin = (1,3);
type = Corner;
},
{
name = _corner.round;
origin = (1,5);
type = Corner;
},
{
name = _corner.round;
origin = (1,6);
scale = (-1,1);
type = Corner;
},
{
name = _corner.round;
origin = (1,8);
scale = (-1,1);
type = Corner;
},
{
name = _corner.round;
origin = (1,9);
type = Corner;
},
{
name = _corner.round;
origin = (1,11);
type = Corner;
}
);
layerId = m002;
shapes = (
{
pos = (58,-498);
ref = minus;
},
{
closed = 1;
nodes = (
(814,326,l),
(814,656,l),
(1256,656,l),
(1256,868,l),
(814,868,l),
(814,1198,l),
(579,1198,l),
(579,868,l),
(137,868,l),
(137,656,l),
(579,656,l),
(579,326,l)
);
}
);
width = 1393;
}
);
metricRight = "=|";
unicode = 177;
userData = {
KernOnSpecialSpacing = {
L = math;
R = math;
};
};
}
{
color = 6;
glyphname = questiondown;
layers = (
{
layerId = "997F8AB0-1B91-48A1-A6B5-F95345F1D981";
shapes = (
{
closed = 1;
nodes = (
(703,634,o),
(688,630,o),
(675,625,cs),
(407,516,o),
(134,284,o),
(134,-31,cs),
(134,-306,o),
(301,-514,o),
(656,-514,cs),
(934,-514,o),
(1145,-358,o),
(1145,-101,cs),
(1145,-20,o),
(1104,52,o),
(997,52,cs),
(934,52,ls),
(855,52,o),
(832,10,o),
(832,-67,cs),
(832,-190,o),
(769,-242,o),
(657,-242,cs),
(523,-242,o),
(467,-131,o),
(467,-27,cs),
(467,45,o),
(492,141,o),
(583,233,cs),
(710,361,o),
(850,387,o),
(850,469,cs),
(850,488,o),
(846,504,o),
(841,515,cs),
(793,626,o),
(748,634,o),
(720,634,cs)
);
},
{
closed = 1;
nodes = (
(569,1146,o),
(474,1053,o),
(474,940,cs),
(474,827,o),
(569,734,o),
(684,734,cs),
(801,734,o),
(896,827,o),
(896,940,cs),
(896,1053,o),
(801,1146,o),
(684,1146,cs)
);
}
);
width = 1279;
},
{
background = {
shapes = (
{
angle = 180;
pos = (1199,1085);
ref = question;
}
);
};
layerId = m001;
shapes = (
{
closed = 1;
nodes = (
(633,554,o),
(627,552,o),
(613,545,cs),
(380,432,o),
(113,212,o),
(113,-94,cs),
(113,-328,o),
(257,-528,o),
(564,-528,cs),
(834,-528,o),
(1001,-362,o),
(1001,-138,cs),
(1001,-90,o),
(988,-56,o),
(928,-56,cs),
(891,-56,ls),
(855,-56,o),
(837,-80,o),
(837,-103,cs),
(837,-270,o),
(735,-370,o),
(565,-370,cs),
(398,-370,o),
(297,-245,o),
(297,-81,cs),
(297,33,o),
(330,159,o),
(476,281,cs),
(651,427,o),
(704,416,o),
(704,452,cs),
(704,461,o),
(702,467,o),
(700,473,cs),
(672,540,o),
(654,554,o),
(641,554,cs)
);
},
{
closed = 1;
nodes = (
(527,1110,o),
(466,1047,o),
(466,971,cs),
(466,897,o),
(527,834,o),
(603,834,cs),
(681,834,o),
(743,896,o),
(743,971,cs),
(743,1048,o),
(681,1110,o),
(603,1110,cs)
);
}
);
width = 1139;
},
{
layerId = m002;
shapes = (
{
closed = 1;
nodes = (
(669,582,o),
(659,579,o),
(650,575,cs),
(393,467,o),
(134,239,o),
(134,-67,cs),
(134,-331,o),
(284,-528,o),
(616,-528,cs),
(875,-528,o),
(1065,-381,o),
(1065,-139,cs),
(1065,-81,o),
(1044,-18,o),
(957,-18,cs),
(894,-18,ls),
(833,-18,o),
(832,-57,o),
(832,-105,cs),
(832,-252,o),
(750,-322,o),
(617,-322,cs),
(454,-322,o),
(387,-184,o),
(387,-63,cs),
(387,18,o),
(413,125,o),
(514,231,cs),
(634,358,o),
(770,389,o),
(770,449,cs),
(770,462,o),
(768,472,o),
(763,483,cs),
(725,572,o),
(698,582,o),
(680,582,cs)
);
},
{
closed = 1;
nodes = (
(551,1110,o),
(474,1031,o),
(474,934,cs),
(474,838,o),
(551,760,o),
(644,760,cs),
(739,760,o),
(816,838,o),
(816,934,cs),
(816,1031,o),
(739,1110,o),
(644,1110,cs)
);
}
);
width = 1199;
}
);
unicode = 191;
userData = {
KernOnName = questiondown;
KernOnSpecialSpacing = {
R = "spaced-off";
};
};
}
{
color = 6;
glyphname = oslash;
layers = (
{
anchors = (
{
name = top;
pos = (688,1128);
}
);
background = {
hints = (
{
name = _corner.round;
origin = (2,0);
scale = (-1,1);
type = Corner;
},
{
name = _corner.round;
origin = (2,1);
type = Corner;
},
{
name = _corner.round;
origin = (2,2);
scale = (-1,1);
type = Corner;
},
{
name = _corner.round;
origin = (2,3);
type = Corner;
}
);
shapes = (
{
closed = 1;
nodes = (
(1024,-25,o),
(1286,211,o),
(1286,562,cs),
(1286,903,o),
(1050,1153,o),
(689,1153,cs),
(353,1153,o),
(91,917,o),
(91,566,cs),
(91,225,o),
(327,-25,o),
(688,-25,cs)
);
},
{
closed = 1;
nodes = (
(629,219,o),
(578,239,o),
(536,265,c),
(448,326,l),
(410,387,o),
(387,469,o),
(387,552,cs),
(387,736,o),
(469,909,o),
(687,909,cs),
(748,909,o),
(799,889,o),
(841,863,c),
(929,802,l),
(967,741,o),
(990,659,o),
(990,576,cs),
(990,392,o),
(908,219,o),
(690,219,cs)
);
},
{
closed = 1;
nodes = (
(1233,1095,l),
(1012,1241,l),
(143,34,l),
(364,-113,l)
);
}
);
};
hints = (
{
name = _corner.round;
origin = (2,0);
scale = (-1,1);
type = Corner;
},
{
name = _corner.round;
origin = (2,1);
type = Corner;
},
{
name = _corner.round;
origin = (2,2);
scale = (-1,1);
type = Corner;
},
{
name = _corner.round;
origin = (2,3);
type = Corner;
}
);
layerId = "997F8AB0-1B91-48A1-A6B5-F95345F1D981";
shapes = (
{
closed = 1;
nodes = (
(1024,-25,o),
(1286,211,o),
(1286,562,cs),
(1286,903,o),
(1050,1153,o),
(689,1153,cs),
(353,1153,o),
(91,917,o),
(91,566,cs),
(91,225,o),
(327,-25,o),
(688,-25,cs)
);
},
{
closed = 1;
nodes = (
(629,211,o),
(578,229,o),
(536,255,c),
(448,316,l),
(405,377,o),
(382,469,o),
(382,552,cs),
(382,736,o),
(464,917,o),
(687,917,cs),
(748,917,o),
(799,899,o),
(841,873,c),
(929,812,l),
(972,751,o),
(995,659,o),
(995,576,cs),
(995,392,o),
(913,211,o),
(690,211,cs)
);
},
{
closed = 1;
nodes = (
(1227,1101,l),
(1018,1235,l),
(149,28,l),
(358,-107,l)
);
}
);
width = 1377;
},
{
anchors = (
{
name = top;
pos = (663,1128);
}
);
associatedMasterId = "997F8AB0-1B91-48A1-A6B5-F95345F1D981";
layerId = "64A39D87-5160-4FCF-B33B-2C11A0625D84";
name = "30 Jun 25, 22:22";
shapes = (
{
closed = 1;
nodes = (
(349,-106,o),
(373,-94,o),
(390,-68,cs),
(442,14,l),
(510,-9,o),
(583,-22,o),
(664,-22,cs),
(991,-22,o),
(1248,214,o),
(1248,566,cs),
(1248,755,o),
(1189,911,o),
(1073,1013,c),
(1123,1092,ls),
(1130,1104,o),
(1134,1115,o),
(1134,1128,cs),
(1134,1152,o),
(1121,1171,o),
(1098,1184,cs),
(1032,1219,ls),
(1021,1224,o),
(1010,1227,o),
(1000,1227,cs),
(980,1227,o),
(956,1219,o),
(937,1190,cs),
(891,1117,l),
(823,1139,o),
(747,1150,o),
(664,1150,cs),
(337,1150,o),
(80,916,o),
(80,566,cs),
(80,382,o),
(145,228,o),
(262,123,c),
(204,30,ls),
(197,18,o),
(193,7,o),
(193,-7,cs),
(193,-30,o),
(203,-50,o),
(225,-61,cs),
(297,-98,ls),
(307,-103,o),
(316,-106,o),
(328,-106,cs)
);
},
{
closed = 1;
nodes = (
(367,410,o),
(357,482,o),
(357,542,cs),
(357,751,o),
(442,932,o),
(663,932,cs),
(700,932,o),
(736,929,o),
(765,918,c),
(398,335,l)
);
},
{
closed = 1;
nodes = (
(633,199,o),
(599,202,o),
(567,213,c),
(930,786,l),
(955,732,o),
(971,647,o),
(971,572,cs),
(971,375,o),
(884,199,o),
(668,199,cs)
);
}
);
width = 1326;
},
{
anchors = (
{
name = top;
pos = (654,1128);
}
);
background = {
hints = (
{
name = _corner.round;
origin = (2,0);
scale = (-1,1);
type = Corner;
},
{
name = _corner.round;
origin = (2,1);
type = Corner;
},
{
name = _corner.round;
origin = (2,2);
scale = (-1,1);
type = Corner;
},
{
name = _corner.round;
origin = (2,3);
type = Corner;
}
);
shapes = (
{
closed = 1;
nodes = (
(947,-25,o),
(1188,197,o),
(1188,563,cs),
(1188,920,o),
(959,1153,o),
(664,1153,cs),
(361,1153,o),
(120,931,o),
(120,565,cs),
(120,208,o),
(349,-25,o),
(644,-25,cs)
);
},
{
closed = 1;
nodes = (
(585,132,o),
(521,154,o),
(470,192,c),
(436,220,l),
(354,297,o),
(310,421,o),
(310,561,cs),
(310,782,o),
(419,996,o),
(652,996,cs),
(723,996,o),
(787,974,o),
(838,936,c),
(872,908,l),
(954,831,o),
(998,707,o),
(998,567,cs),
(998,346,o),
(889,132,o),
(657,132,cs)
);
},
{
closed = 1;
nodes = (
(1074,1132,l),
(937,1211,l),
(235,-5,l),
(372,-84,l)
);
}
);
};
guides = (
{
angle = 60.0212;
pos = (556,235);
}
);
hints = (
{
name = _corner.round;
origin = (2,0);
scale = (-1,1);
type = Corner;
},
{
name = _corner.round;
origin = (2,1);
type = Corner;
},
{
name = _corner.round;
origin = (2,2);
scale = (-1,1);
type = Corner;
},
{
name = _corner.round;
origin = (2,3);
type = Corner;
}
);
layerId = m001;
shapes = (
{
closed = 1;
nodes = (
(947,-25,o),
(1188,197,o),
(1188,563,cs),
(1188,920,o),
(959,1153,o),
(664,1153,cs),
(361,1153,o),
(120,931,o),
(120,565,cs),
(120,208,o),
(349,-25,o),
(644,-25,cs)
);
},
{
closed = 1;
nodes = (
(584,123,o),
(518,146,o),
(466,185,c),
(432,213,l),
(348,292,o),
(303,418,o),
(303,561,cs),
(303,786,o),
(414,1005,o),
(652,1005,cs),
(724,1005,o),
(790,982,o),
(842,943,c),
(876,915,l),
(960,836,o),
(1005,710,o),
(1005,567,cs),
(1005,342,o),
(894,123,o),
(657,123,cs)
);
},
{
closed = 1;
nodes = (
(1070,1136,l),
(941,1207,l),
(239,-9,l),
(368,-80,l)
);
}
);
width = 1308;
},
{
anchors = (
{
name = top;
pos = (679,1128);
}
);
background = {
hints = (
{
name = _corner.round;
origin = (2,0);
scale = (-1,1);
type = Corner;
},
{
name = _corner.round;
origin = (2,1);
type = Corner;
},
{
name = _corner.round;
origin = (2,2);
scale = (-1,1);
type = Corner;
},
{
name = _corner.round;
origin = (2,3);
type = Corner;
}
);
shapes = (
{
closed = 1;
nodes = (
(996,-25,o),
(1243,209,o),
(1243,562,cs),
(1243,907,o),
(1021,1153,o),
(679,1153,cs),
(362,1153,o),
(115,919,o),
(115,566,cs),
(115,221,o),
(337,-25,o),
(679,-25,cs)
);
},
{
closed = 1;
nodes = (
(600,174,o),
(533,201,o),
(482,244,c),
(440,279,l),
(385,340,o),
(359,435,o),
(359,552,cs),
(359,753,o),
(447,954,o),
(677,954,cs),
(758,954,o),
(825,927,o),
(876,884,c),
(918,849,l),
(973,788,o),
(999,693,o),
(999,576,cs),
(999,375,o),
(911,174,o),
(682,174,cs)
);
},
{
closed = 1;
nodes = (
(1166,1073,l),
(997,1204,l),
(192,54,l),
(361,-77,l)
);
}
);
};
hints = (
{
name = _corner.round;
origin = (2,0);
scale = (-1,1);
type = Corner;
},
{
name = _corner.round;
origin = (2,1);
type = Corner;
},
{
name = _corner.round;
origin = (2,2);
scale = (-1,1);
type = Corner;
},
{
name = _corner.round;
origin = (2,3);
type = Corner;
}
);
layerId = m002;
shapes = (
{
closed = 1;
nodes = (
(996,-25,o),
(1243,209,o),
(1243,562,cs),
(1243,907,o),
(1021,1153,o),
(679,1153,cs),
(362,1153,o),
(115,919,o),
(115,566,cs),
(115,221,o),
(337,-25,o),
(679,-25,cs)
);
},
{
closed = 1;
nodes = (
(598,166,o),
(530,194,o),
(478,238,c),
(435,273,l),
(379,336,o),
(353,432,o),
(353,552,cs),
(353,757,o),
(442,962,o),
(677,962,cs),
(760,962,o),
(828,934,o),
(880,890,c),
(923,855,l),
(979,792,o),
(1005,696,o),
(1005,576,cs),
(1005,371,o),
(916,166,o),
(682,166,cs)
);
},
{
closed = 1;
nodes = (
(1161,1078,l),
(1002,1199,l),
(197,49,l),
(356,-72,l)
);
}
);
width = 1358;
}
);
metricLeft = o;
metricRight = o;
unicode = 248;
}
{
color = 6;
glyphname = Hbar;
layers = (
{
anchors = (
{
name = bottom;
pos = (863,0);
},
{
name = center;
pos = (863,1115);
},
{
name = top;
pos = (863,1486);
},
{
name = topleft;
pos = (33,1486);
}
);
background = {
shapes = (
{
closed = 1;
nodes = (
(434,-36,ls),
(486,-36,o),
(530,7,o),
(530,62,cs),
(530,594,l),
(1195,594,l),
(1195,63,ls),
(1195,8,o),
(1239,-35,o),
(1290,-35,cs),
(1430,-35,ls),
(1482,-35,o),
(1526,8,o),
(1526,63,cs),
(1526,1424,ls),
(1526,1478,o),
(1482,1522,o),
(1431,1522,cs),
(1291,1522,ls),
(1239,1522,o),
(1195,1478,o),
(1195,1424,cs),
(1195,881,l),
(530,881,l),
(530,1424,ls),
(530,1478,o),
(486,1522,o),
(435,1522,cs),
(295,1522,ls),
(243,1522,o),
(199,1478,o),
(199,1424,cs),
(199,62,ls),
(199,7,o),
(243,-36,o),
(294,-36,cs)
);
},
{
closed = 1;
nodes = (
(1561,1029,ls),
(1606,1029,o),
(1645,1060,o),
(1645,1101,cs),
(1645,1216,ls),
(1645,1258,o),
(1606,1288,o),
(1561,1288,cs),
(146,1288,ls),
(102,1288,o),
(63,1258,o),
(63,1217,cs),
(63,1102,ls),
(63,1060,o),
(102,1029,o),
(146,1029,cs)
);
}
);
};
hints = (
{
name = _corner.round;
origin = (0,0);
scale = (-1,1);
type = Corner;
},
{
name = _corner.round;
origin = (0,3);
type = Corner;
},
{
name = _corner.round;
origin = (0,4);
scale = (-1,1);
type = Corner;
},
{
name = _corner.round;
origin = (0,5);
type = Corner;
},
{
name = _corner.round;
origin = (0,6);
scale = (-1,1);
type = Corner;
},
{
name = _corner.round;
origin = (0,9);
type = Corner;
},
{
name = _corner.round;
origin = (0,10);
scale = (-1,1);
type = Corner;
},
{
name = _corner.round;
origin = (0,11);
type = Corner;
},
{
name = _corner.round;
origin = (1,0);
scale = (-1,1);
type = Corner;
},
{
name = _corner.round;
origin = (1,1);
type = Corner;
},
{
name = _corner.round;
origin = (1,2);
scale = (-1,1);
type = Corner;
},
{
name = _corner.round;
origin = (1,3);
type = Corner;
}
);
layerId = "997F8AB0-1B91-48A1-A6B5-F95345F1D981";
shapes = (
{
closed = 1;
nodes = (
(530,0,l),
(530,588,l),
(1195,588,l),
(1195,1,l),
(1526,1,l),
(1526,1533,l),
(1195,1533,l),
(1195,873,l),
(530,873,l),
(530,1533,l),
(199,1533,l),
(199,0,l)
);
},
{
closed = 1;
nodes = (
(1661,1055,l),
(1661,1313,l),
(64,1313,l),
(64,1055,l)
);
}
);
width = 1725;
},
{
anchors = (
{
name = bottom;
pos = (820,0);
},
{
name = center;
pos = (820,1150);
},
{
name = top;
pos = (820,1533);
},
{
name = topleft;
pos = (-10,1533);
}
);
background = {
shapes = (
{
closed = 1;
nodes = (
(391,25,ls),
(403,25,o),
(417,41,o),
(417,64,cs),
(417,675,l),
(1222,675,l),
(1222,65,ls),
(1222,42,o),
(1236,26,o),
(1247,26,cs),
(1387,26,ls),
(1399,26,o),
(1413,42,o),
(1413,65,cs),
(1413,1469,ls),
(1413,1492,o),
(1399,1508,o),
(1388,1508,cs),
(1248,1508,ls),
(1236,1508,o),
(1222,1492,o),
(1222,1469,cs),
(1222,846,l),
(417,846,l),
(417,1469,ls),
(417,1492,o),
(403,1508,o),
(392,1508,cs),
(252,1508,ls),
(240,1508,o),
(226,1492,o),
(226,1469,cs),
(226,64,ls),
(226,41,o),
(240,25,o),
(251,25,cs)
);
},
{
closed = 1;
nodes = (
(1518,1124,ls),
(1526,1124,o),
(1532,1128,o),
(1532,1136,cs),
(1532,1254,ls),
(1532,1263,o),
(1526,1267,o),
(1518,1267,cs),
(103,1267,ls),
(96,1267,o),
(90,1263,o),
(90,1255,cs),
(90,1137,ls),
(90,1128,o),
(96,1124,o),
(103,1124,cs)
);
}
);
};
hints = (
{
name = _corner.round;
origin = (0,0);
scale = (-1,1);
type = Corner;
},
{
name = _corner.round;
origin = (0,3);
type = Corner;
},
{
name = _corner.round;
origin = (0,4);
scale = (-1,1);
type = Corner;
},
{
name = _corner.round;
origin = (0,5);
type = Corner;
},
{
name = _corner.round;
origin = (0,6);
scale = (-1,1);
type = Corner;
},
{
name = _corner.round;
origin = (0,9);
type = Corner;
},
{
name = _corner.round;
origin = (0,10);
scale = (-1,1);
type = Corner;
},
{
name = _corner.round;
origin = (0,11);
type = Corner;
},
{
name = _corner.round;
origin = (1,0);
scale = (-1,1);
type = Corner;
},
{
name = _corner.round;
origin = (1,1);
type = Corner;
},
{
name = _corner.round;
origin = (1,2);
scale = (-1,1);
type = Corner;
},
{
name = _corner.round;
origin = (1,3);
type = Corner;
}
);
layerId = m001;
shapes = (
{
closed = 1;
nodes = (
(417,-1,l),
(417,680,l),
(1222,680,l),
(1222,0,l),
(1413,0,l),
(1413,1533,l),
(1222,1533,l),
(1222,841,l),
(417,841,l),
(417,1533,l),
(226,1533,l),
(226,-1,l)
);
},
{
closed = 1;
nodes = (
(1568,1103,l),
(1568,1256,l),
(71,1256,l),
(71,1103,l)
);
}
);
width = 1639;
},
{
anchors = (
{
name = bottom;
pos = (850,0);
},
{
name = center;
pos = (850,1150);
},
{
name = top;
pos = (850,1533);
},
{
name = topleft;
pos = (20,1533);
}
);
background = {
shapes = (
{
closed = 1;
nodes = (
(421,0,ls),
(452,0,o),
(477,29,o),
(477,64,c),
(477,650,l),
(1222,650,l),
(1222,65,ls),
(1222,30,o),
(1247,1,o),
(1277,1,cs),
(1417,1,ls),
(1448,1,o),
(1473,30,o),
(1473,65,cs),
(1473,1469,ls),
(1473,1504,o),
(1448,1533,o),
(1418,1533,cs),
(1278,1533,ls),
(1247,1533,o),
(1222,1504,o),
(1222,1469,cs),
(1222,871,l),
(477,871,l),
(477,1469,ls),
(477,1504,o),
(452,1533,o),
(422,1533,cs),
(282,1533,ls),
(251,1533,o),
(226,1504,o),
(226,1469,cs),
(226,64,ls),
(226,29,o),
(251,0,o),
(281,0,cs)
);
},
{
closed = 1;
nodes = (
(1548,1099,ls),
(1572,1099,o),
(1592,1115,o),
(1592,1136,cs),
(1592,1254,ls),
(1592,1276,o),
(1572,1292,o),
(1548,1292,cs),
(133,1292,ls),
(110,1292,o),
(90,1276,o),
(90,1255,cs),
(90,1137,ls),
(90,1115,o),
(110,1099,o),
(133,1099,cs)
);
}
);
};
hints = (
{
name = _corner.round;
origin = (0,0);
scale = (-1,1);
type = Corner;
},
{
name = _corner.round;
origin = (0,3);
type = Corner;
},
{
name = _corner.round;
origin = (0,4);
scale = (-1,1);
type = Corner;
},
{
name = _corner.round;
origin = (0,5);
type = Corner;
},
{
name = _corner.round;
origin = (0,6);
scale = (-1,1);
type = Corner;
},
{
name = _corner.round;
origin = (0,9);
type = Corner;
},
{
name = _corner.round;
origin = (0,10);
scale = (-1,1);
type = Corner;
},
{
name = _corner.round;
origin = (0,11);
type = Corner;
},
{
name = _corner.round;
origin = (1,0);
scale = (-1,1);
type = Corner;
},
{
name = _corner.round;
origin = (1,1);
type = Corner;
},
{
name = _corner.round;
origin = (1,2);
scale = (-1,1);
type = Corner;
},
{
name = _corner.round;
origin = (1,3);
type = Corner;
}
);
layerId = m002;
shapes = (
{
closed = 1;
nodes = (
(474,0,l),
(474,640,l),
(1219,640,l),
(1219,0,l),
(1470,0,l),
(1470,1533,l),
(1219,1533,l),
(1219,861,l),
(474,861,l),
(474,1533,l),
(223,1533,l),
(223,0,l)
);
},
{
closed = 1;
nodes = (
(1605,1089,l),
(1605,1301,l),
(88,1301,l),
(88,1089,l)
);
}
);
width = 1693;
}
);
metricRight = "=|";
unicode = 294;
}
{
color = 3;
glyphname = hbar;
layers = (
{
background = {
shapes = (
{
closed = 1;
nodes = (
(812,1368,ls),
(846,1368,o),
(876,1392,o),
(876,1425,cs),
(876,1537,ls),
(876,1571,o),
(846,1595,o),
(812,1595,cs),
(125,1595,ls),
(92,1595,o),
(62,1571,o),
(62,1538,cs),
(62,1426,ls),
(62,1392,o),
(92,1368,o),
(125,1368,cs)
);
}
);
};
guides = (
{
pos = (1305,1452);
showMeasurement = 1;
}
);
hints = (
{
name = _corner.round;
origin = (0,0);
scale = (-1,1);
type = Corner;
},
{
name = _corner.round;
origin = (0,1);
type = Corner;
},
{
name = _corner.round;
origin = (0,2);
scale = (-1,1);
type = Corner;
},
{
name = _corner.round;
origin = (0,3);
type = Corner;
}
);
layerId = "997F8AB0-1B91-48A1-A6B5-F95345F1D981";
shapes = (
{
closed = 1;
nodes = (
(857,1308,l),
(857,1576,l),
(8,1576,l),
(8,1308,l)
);
},
{
alignment = -1;
pos = (38,0);
ref = h;
}
);
width = 1466;
},
{
guides = (
{
pos = (996,1478);
showMeasurement = 1;
}
);
hints = (
{
name = _corner.round;
origin = (0,0);
scale = (-1,1);
type = Corner;
},
{
name = _corner.round;
origin = (0,1);
type = Corner;
},
{
name = _corner.round;
origin = (0,2);
scale = (-1,1);
type = Corner;
},
{
name = _corner.round;
origin = (0,3);
type = Corner;
}
);
layerId = m001;
shapes = (
{
closed = 1;
nodes = (
(763,1398,l),
(763,1544,l),
(19,1544,l),
(19,1398,l)
);
},
{
ref = h;
}
);
width = 1307;
},
{
background = {
shapes = (
{
closed = 1;
nodes = (
(744,1388,ls),
(768,1388,o),
(788,1404,o),
(788,1425,cs),
(788,1537,ls),
(788,1559,o),
(768,1575,o),
(744,1575,cs),
(57,1575,ls),
(34,1575,o),
(14,1559,o),
(14,1538,cs),
(14,1426,ls),
(14,1404,o),
(34,1388,o),
(57,1388,cs)
);
}
);
};
guides = (
{
pos = (1090,1496);
showMeasurement = 1;
}
);
hints = (
{
name = _corner.round;
origin = (0,0);
scale = (-1,1);
type = Corner;
},
{
name = _corner.round;
origin = (0,1);
type = Corner;
},
{
name = _corner.round;
origin = (0,2);
scale = (-1,1);
type = Corner;
},
{
name = _corner.round;
origin = (0,3);
type = Corner;
}
);
layerId = m002;
shapes = (
{
closed = 1;
nodes = (
(788,1368,l),
(788,1555,l),
(14,1555,l),
(14,1368,l)
);
},
{
ref = h;
}
);
width = 1367;
}
);
unicode = 295;
userData = {
KernOnName = hbar;
};
}
{
color = 6;
glyphname = idotless;
layers = (
{
anchors = (
{
name = bottom;
pos = (393,0);
},
{
name = ogonek;
pos = (460,-1);
},
{
name = top;
pos = (311,1128);
}
);
background = {
shapes = (
{
closed = 1;
nodes = (
(469,-17,o),
(566,-3,o),
(638,64,cs),
(661,85,o),
(670,104,o),
(670,129,cs),
(670,144,o),
(665,160,o),
(658,176,cs),
(629,243,ls),
(613,280,o),
(586,292,o),
(561,292,cs),
(539,292,o),
(516,282,o),
(495,275,cs),
(480,270,o),
(469,273,o),
(469,297,cs),
(469,1028,ls),
(469,1085,o),
(428,1128,o),
(376,1128,cs),
(247,1128,ls),
(197,1128,o),
(153,1084,o),
(153,1028,cs),
(153,304,ls),
(153,67,o),
(254,-17,o),
(407,-17,cs)
);
}
);
};
hints = (
{
name = _corner.round;
origin = (0,19);
type = Corner;
},
{
name = _corner.round;
origin = (0,20);
scale = (-1,1);
type = Corner;
}
);
layerId = "997F8AB0-1B91-48A1-A6B5-F95345F1D981";
shapes = (
{
closed = 1;
nodes = (
(467,-17,o),
(564,-3,o),
(636,64,cs),
(659,85,o),
(668,104,o),
(668,129,cs),
(668,144,o),
(663,160,o),
(656,176,cs),
(627,243,ls),
(611,280,o),
(584,292,o),
(559,292,cs),
(537,292,o),
(514,279,o),
(493,272,cs),
(478,267,o),
(467,270,o),
(467,294,cs),
(467,1128,l),
(151,1128,l),
(151,304,ls),
(151,67,o),
(252,-17,o),
(405,-17,cs)
);
}
);
width = 692;
},
{
anchors = (
{
name = bottom;
pos = (350,0);
},
{
name = ogonek;
pos = (429,28);
},
{
name = top;
pos = (273,1128);
}
);
background = {
shapes = (
{
closed = 1;
nodes = (
(428,-7,o),
(500,3,o),
(561,59,cs),
(568,66,o),
(572,73,o),
(572,82,cs),
(572,90,o),
(571,97,o),
(567,106,cs),
(542,166,ls),
(534,185,o),
(525,191,o),
(516,191,cs),
(497,191,o),
(468,164,o),
(440,164,cs),
(407,164,o),
(365,181,o),
(365,260,cs),
(365,1085,ls),
(365,1108,o),
(348,1128,o),
(326,1128,cs),
(221,1128,ls),
(199,1128,o),
(182,1108,o),
(182,1085,cs),
(182,267,ls),
(182,56,o),
(253,-7,o),
(372,-7,cs)
);
}
);
};
guides = (
{
angle = 90;
pos = (274,0);
}
);
hints = (
{
name = _corner.round;
origin = (0,19);
type = Corner;
},
{
name = _corner.round;
origin = (0,20);
scale = (-1,1);
type = Corner;
}
);
layerId = m001;
shapes = (
{
closed = 1;
nodes = (
(428,-7,o),
(500,3,o),
(561,59,cs),
(568,66,o),
(572,73,o),
(572,82,cs),
(572,90,o),
(571,97,o),
(567,106,cs),
(542,166,ls),
(534,185,o),
(525,191,o),
(516,191,cs),
(497,191,o),
(468,164,o),
(440,164,cs),
(407,164,o),
(363,181,o),
(363,260,cs),
(363,1128,l),
(182,1128,l),
(182,267,ls),
(182,56,o),
(253,-7,o),
(372,-7,cs)
);
}
);
width = 623;
},
{
anchors = (
{
name = bottom;
pos = (374,0);
},
{
name = ogonek;
pos = (447,0);
},
{
name = top;
pos = (303,1128);
}
);
background = {
hints = (
{
name = _corner.round;
origin = (0,19);
type = Corner;
},
{
name = _corner.round;
origin = (0,20);
scale = (-1,1);
type = Corner;
}
);
shapes = (
{
closed = 1;
nodes = (
(461,-17,o),
(545,-5,o),
(611,56,cs),
(624,68,o),
(632,80,o),
(632,97,cs),
(632,107,o),
(630,118,o),
(624,131,cs),
(593,201,ls),
(584,222,o),
(575,230,o),
(562,230,cs),
(529,230,o),
(504,204,o),
(472,204,cs),
(445,204,o),
(425,222,o),
(425,275,cs),
(425,1128,l),
(182,1128,l),
(182,282,ls),
(182,57,o),
(266,-17,o),
(402,-17,cs)
);
}
);
};
guides = (
{
angle = 90;
pos = (304,0);
}
);
hints = (
{
name = _corner.round;
origin = (0,19);
type = Corner;
},
{
name = _corner.round;
origin = (0,20);
scale = (-1,1);
type = Corner;
}
);
layerId = m002;
shapes = (
{
closed = 1;
nodes = (
(461,-17,o),
(545,-5,o),
(611,56,cs),
(624,68,o),
(632,80,o),
(632,97,cs),
(632,107,o),
(630,118,o),
(624,131,cs),
(593,201,ls),
(584,222,o),
(575,230,o),
(562,230,cs),
(529,230,o),
(503,204,o),
(470,204,cs),
(443,204,o),
(423,222,o),
(423,275,cs),
(423,1128,l),
(182,1128,l),
(182,282,ls),
(182,57,o),
(266,-17,o),
(402,-17,cs)
);
}
);
width = 683;
}
);
unicode = 305;
}
{
color = 3;
glyphname = Eng;
layers = (
{
background = {
shapes = (
{
closed = 1;
nodes = (
(1303,-568,o),
(1470,-440,o),
(1470,-129,cs),
(1470,189,l),
(1231,40,l),
(1231,-74,ls),
(1231,-232,o),
(1192,-361,o),
(1055,-361,cs),
(974,-361,o),
(937,-328,o),
(911,-328,cs),
(885,-328,o),
(844,-384,o),
(844,-456,cs),
(844,-526,o),
(962,-568,o),
(1102,-568,cs)
);
}
);
};
guides = (
{
angle = 90;
pos = (1168,-150);
}
);
layerId = "997F8AB0-1B91-48A1-A6B5-F95345F1D981";
shapes = (
{
closed = 1;
nodes = (
(1313,-568,o),
(1496,-430,o),
(1496,-99,cs),
(1496,243,l),
(1191,57,l),
(1191,-44,ls),
(1191,-194,o),
(1146,-301,o),
(1051,-301,cs),
(1000,-301,o),
(938,-268,o),
(907,-268,cs),
(865,-268,o),
(810,-332,o),
(810,-426,cs),
(810,-515,o),
(934,-568,o),
(1098,-568,cs)
);
},
{
ref = N;
}
);
width = 1695;
},
{
layerId = m001;
shapes = (
{
closed = 1;
nodes = (
(1231,-543,o),
(1368,-386,o),
(1368,-129,cs),
(1368,139,l),
(1197,28,l),
(1197,-140,ls),
(1197,-311,o),
(1123,-386,o),
(983,-386,cs),
(901,-386,o),
(872,-353,o),
(849,-353,cs),
(828,-353,o),
(802,-397,o),
(802,-456,cs),
(802,-506,o),
(901,-543,o),
(1030,-543,cs)
);
},
{
ref = N;
}
);
width = 1594;
},
{
layerId = m002;
shapes = (
{
closed = 1;
nodes = (
(1284,-568,o),
(1451,-440,o),
(1451,-129,cs),
(1451,189,l),
(1214,40,l),
(1214,-114,ls),
(1214,-272,o),
(1163,-361,o),
(1026,-361,cs),
(955,-361,o),
(918,-328,o),
(892,-328,cs),
(866,-328,o),
(825,-384,o),
(825,-456,cs),
(825,-526,o),
(943,-568,o),
(1083,-568,cs)
);
},
{
ref = N;
}
);
width = 1674;
}
);
metricLeft = H;
metricRight = H;
unicode = 330;
}
{
color = 6;
glyphname = oe;
layers = (
{
background = {
shapes = (
{
closed = 1;
nodes = (
(1119,943,l),
(1048,1058,o),
(892,1154,o),
(688,1154,cs),
(352,1154,o),
(91,918,o),
(91,567,cs),
(91,226,o),
(326,-24,o),
(688,-24,cs),
(875,-24,o),
(1040,81,o),
(1119,209,c)
);
},
{
closed = 1;
nodes = (
(504,250,o),
(419,400,o),
(419,553,cs),
(419,723,o),
(494,879,o),
(687,879,cs),
(886,879,o),
(956,716,o),
(956,562,cs),
(956,387,o),
(885,250,o),
(691,250,cs)
);
},
{
closed = 1;
nodes = (
(1698,-25,o),
(1989,35,o),
(1989,179,cs),
(1989,196,o),
(1987,209,o),
(1977,229,cs),
(1950,282,ls),
(1929,323,o),
(1893,338,o),
(1860,338,cs),
(1820,338,o),
(1781,309,o),
(1755,294,cs),
(1711,269,o),
(1654,244,o),
(1558,244,cs),
(1373,244,o),
(1271,348,o),
(1271,494,cs),
(1271,508,o),
(1272,509,o),
(1275,531,c),
(1213,478,l),
(1276,461,o),
(1389,435,o),
(1503,435,cs),
(1750,435,o),
(1986,534,o),
(1986,782,cs),
(1986,1021,o),
(1797,1154,o),
(1540,1154,cs),
(1194,1154,o),
(996,970,o),
(996,544,cs),
(996,185,o),
(1210,-25,o),
(1541,-25,cs)
);
},
{
closed = 1;
nodes = (
(1389,683,o),
(1323,699,o),
(1287,710,c),
(1314,839,o),
(1411,882,o),
(1526,882,cs),
(1626,882,o),
(1673,854,o),
(1673,785,cs),
(1673,712,o),
(1595,683,o),
(1456,683,cs)
);
}
);
};
layerId = "997F8AB0-1B91-48A1-A6B5-F95345F1D981";
shapes = (
{
closed = 1;
nodes = (
(1119,943,l),
(1048,1058,o),
(892,1154,o),
(688,1154,cs),
(352,1154,o),
(91,918,o),
(91,567,cs),
(91,226,o),
(326,-24,o),
(688,-24,cs),
(875,-24,o),
(1040,81,o),
(1119,209,c)
);
},
{
closed = 1;
nodes = (
(504,250,o),
(419,400,o),
(419,553,cs),
(419,723,o),
(494,879,o),
(687,879,cs),
(886,879,o),
(956,716,o),
(956,562,cs),
(956,387,o),
(885,250,o),
(691,250,cs)
);
},
{
closed = 1;
nodes = (
(1772,-26,o),
(1988,110,o),
(1988,181,cs),
(1988,200,o),
(1986,208,o),
(1977,225,cs),
(1943,294,ls),
(1930,321,o),
(1912,336,o),
(1880,336,cs),
(1855,336,o),
(1829,324,o),
(1791,302,cs),
(1733,269,o),
(1656,239,o),
(1560,239,cs),
(1373,239,o),
(1270,345,o),
(1270,493,cs),
(1270,507,o),
(1271,509,o),
(1275,538,c),
(1213,480,l),
(1275,463,o),
(1389,436,o),
(1505,436,cs),
(1752,436,o),
(1986,535,o),
(1986,782,cs),
(1986,1020,o),
(1798,1153,o),
(1542,1153,cs),
(1197,1153,o),
(993,969,o),
(993,543,cs),
(993,184,o),
(1213,-26,o),
(1543,-26,cs)
);
},
{
closed = 1;
nodes = (
(1391,680,o),
(1323,696,o),
(1285,708,c),
(1312,842,o),
(1413,885,o),
(1528,885,cs),
(1629,885,o),
(1678,856,o),
(1678,785,cs),
(1678,710,o),
(1598,680,o),
(1458,680,cs)
);
}
);
width = 2073;
},
{
background = {
shapes = (
{
closed = 1;
nodes = (
(1120,887,l),
(1035,1054,o),
(876,1153,o),
(670,1153,cs),
(361,1153,o),
(120,931,o),
(120,565,cs),
(120,208,o),
(349,-25,o),
(650,-25,cs),
(848,-25,o),
(1027,76,o),
(1120,263,c)
);
},
{
closed = 1;
nodes = (
(436,132,o),
(310,322,o),
(310,560,cs),
(310,781,o),
(419,995,o),
(656,995,cs),
(897,995,o),
(998,772,o),
(998,553,cs),
(998,324,o),
(888,132,o),
(661,132,cs)
);
},
{
closed = 1;
nodes = (
(1667,-25,o),
(1906,36,o),
(1906,135,cs),
(1906,145,o),
(1905,152,o),
(1900,161,cs),
(1873,210,ls),
(1861,231,o),
(1855,233,o),
(1846,233,cs),
(1841,233,o),
(1822,223,o),
(1799,208,cs),
(1751,177,o),
(1672,128,o),
(1539,128,cs),
(1310,128,o),
(1175,282,o),
(1175,507,cs),
(1175,564,o),
(1175,610,o),
(1180,648,c),
(1141,556,l),
(1182,542,o),
(1329,488,o),
(1483,488,cs),
(1711,488,o),
(1903,579,o),
(1903,808,cs),
(1903,1034,o),
(1746,1154,o),
(1521,1154,cs),
(1206,1154,o),
(998,977,o),
(998,542,cs),
(998,180,o),
(1224,-25,o),
(1522,-25,cs)
);
},
{
closed = 1;
nodes = (
(1394,622,o),
(1266,632,o),
(1185,686,c),
(1202,905,o),
(1347,998,o),
(1506,998,cs),
(1641,998,o),
(1728,933,o),
(1728,812,cs),
(1728,670,o),
(1598,622,o),
(1435,622,cs)
);
}
);
};
layerId = m001;
shapes = (
{
closed = 1;
nodes = (
(1120,887,l),
(1035,1054,o),
(876,1153,o),
(670,1153,cs),
(361,1153,o),
(120,931,o),
(120,565,cs),
(120,208,o),
(349,-25,o),
(650,-25,cs),
(848,-25,o),
(1027,76,o),
(1120,263,c)
);
},
{
closed = 1;
nodes = (
(436,132,o),
(310,322,o),
(310,560,cs),
(310,781,o),
(419,995,o),
(656,995,cs),
(897,995,o),
(998,772,o),
(998,553,cs),
(998,324,o),
(888,132,o),
(661,132,cs)
);
},
{
closed = 1;
nodes = (
(1738,-25,o),
(1908,99,o),
(1908,145,cs),
(1908,153,o),
(1908,157,o),
(1901,170,cs),
(1878,211,ls),
(1867,230,o),
(1858,237,o),
(1846,237,cs),
(1836,237,o),
(1827,234,o),
(1794,210,cs),
(1732,165,o),
(1642,128,o),
(1529,128,cs),
(1310,128,o),
(1175,282,o),
(1175,507,cs),
(1175,564,o),
(1175,610,o),
(1180,648,c),
(1141,556,l),
(1182,542,o),
(1329,488,o),
(1483,488,cs),
(1711,488,o),
(1903,579,o),
(1903,808,cs),
(1903,1034,o),
(1746,1154,o),
(1521,1154,cs),
(1206,1154,o),
(998,977,o),
(998,542,cs),
(998,180,o),
(1224,-25,o),
(1522,-25,cs)
);
},
{
closed = 1;
nodes = (
(1394,622,o),
(1266,632,o),
(1185,686,c),
(1202,905,o),
(1347,998,o),
(1506,998,cs),
(1641,998,o),
(1728,933,o),
(1728,812,cs),
(1728,670,o),
(1598,622,o),
(1435,622,cs)
);
}
);
width = 2019;
},
{
background = {
shapes = (
{
closed = 1;
nodes = (
(1150,907,l),
(1058,1069,o),
(900,1153,o),
(679,1153,cs),
(362,1153,o),
(115,919,o),
(115,566,cs),
(115,221,o),
(337,-25,o),
(679,-25,cs),
(878,-25,o),
(1050,68,o),
(1150,246,c)
);
},
{
closed = 1;
nodes = (
(467,182,o),
(365,363,o),
(365,552,cs),
(365,749,o),
(452,945,o),
(678,945,cs),
(913,945,o),
(993,738,o),
(993,561,cs),
(993,352,o),
(906,182,o),
(683,182,cs)
);
},
{
closed = 1;
nodes = (
(1697,-25,o),
(1961,35,o),
(1961,154,cs),
(1961,166,o),
(1958,177,o),
(1952,190,cs),
(1925,246,ls),
(1909,277,o),
(1891,283,o),
(1871,283,cs),
(1847,283,o),
(1822,263,o),
(1785,241,cs),
(1738,213,o),
(1672,182,o),
(1564,182,cs),
(1351,182,o),
(1230,313,o),
(1230,490,cs),
(1230,514,o),
(1237,560,o),
(1251,646,c),
(1186,523,l),
(1243,504,o),
(1374,466,o),
(1508,466,cs),
(1746,466,o),
(1958,560,o),
(1958,798,cs),
(1958,1029,o),
(1786,1154,o),
(1546,1154,cs),
(1214,1154,o),
(993,974,o),
(993,543,cs),
(993,182,o),
(1232,-25,o),
(1547,-25,cs)
);
},
{
closed = 1;
nodes = (
(1361,651,o),
(1267,682,o),
(1241,694,c),
(1262,877,o),
(1388,944,o),
(1531,944,cs),
(1652,944,o),
(1723,901,o),
(1723,801,cs),
(1723,691,o),
(1615,651,o),
(1460,651,cs)
);
}
);
};
layerId = m002;
shapes = (
{
closed = 1;
nodes = (
(1150,907,l),
(1058,1069,o),
(900,1153,o),
(679,1153,cs),
(362,1153,o),
(115,919,o),
(115,566,cs),
(115,221,o),
(337,-25,o),
(679,-25,cs),
(878,-25,o),
(1050,68,o),
(1150,246,c)
);
},
{
closed = 1;
nodes = (
(467,182,o),
(365,363,o),
(365,552,cs),
(365,749,o),
(452,945,o),
(678,945,cs),
(913,945,o),
(993,738,o),
(993,561,cs),
(993,352,o),
(906,182,o),
(683,182,cs)
);
},
{
closed = 1;
nodes = (
(1697,-25,o),
(1961,35,o),
(1961,154,cs),
(1961,166,o),
(1958,177,o),
(1952,190,cs),
(1925,246,ls),
(1909,277,o),
(1891,283,o),
(1871,283,cs),
(1847,283,o),
(1822,263,o),
(1785,241,cs),
(1738,213,o),
(1672,182,o),
(1564,182,cs),
(1351,182,o),
(1230,313,o),
(1230,490,cs),
(1230,514,o),
(1237,560,o),
(1251,646,c),
(1186,523,l),
(1243,504,o),
(1374,466,o),
(1508,466,cs),
(1746,466,o),
(1958,560,o),
(1958,798,cs),
(1958,1029,o),
(1786,1154,o),
(1546,1154,cs),
(1214,1154,o),
(993,974,o),
(993,543,cs),
(993,182,o),
(1232,-25,o),
(1547,-25,cs)
);
},
{
closed = 1;
nodes = (
(1361,651,o),
(1267,682,o),
(1241,694,c),
(1262,877,o),
(1388,944,o),
(1531,944,cs),
(1652,944,o),
(1723,901,o),
(1723,801,cs),
(1723,691,o),
(1615,651,o),
(1460,651,cs)
);
}
);
width = 2074;
}
);
metricLeft = o;
metricRight = e;
unicode = 339;
}
{
color = 6;
glyphname = jdotless;
layers = (
{
anchors = (
{
name = bottom;
pos = (353,-568);
},
{
name = top;
pos = (350,1128);
}
);
hints = (
{
name = _corner.round;
origin = (0,3);
type = Corner;
},
{
name = _corner.round;
origin = (0,4);
scale = (-1,1);
type = Corner;
}
);
layerId = "997F8AB0-1B91-48A1-A6B5-F95345F1D981";
shapes = (
{
closed = 1;
nodes = (
(372,-568,o),
(508,-410,o),
(508,-118,cs),
(508,1128,l),
(192,1128,l),
(192,-155,ls),
(192,-224,o),
(181,-296,o),
(134,-296,cs),
(99,-296,o),
(66,-254,o),
(21,-254,cs),
(-23,-254,o),
(-52,-287,o),
(-67,-335,cs),
(-83,-386,o),
(-87,-404,o),
(-87,-420,cs),
(-87,-454,o),
(-74,-480,o),
(-34,-511,cs),
(-3,-535,o),
(53,-568,o),
(171,-568,cs)
);
}
);
width = 689;
},
{
anchors = (
{
name = bottom;
pos = (312,-568);
},
{
name = top;
pos = (322,1128);
}
);
background = {
shapes = (
{
closed = 1;
nodes = (
(230,-249,o),
(219,-360,o),
(127,-360,cs),
(79,-360,o),
(53,-315,o),
(11,-315,cs),
(-17,-315,o),
(-31,-343,o),
(-40,-374,cs),
(-55,-424,o),
(-58,-439,o),
(-58,-452,cs),
(-58,-477,o),
(-48,-494,o),
(-21,-516,cs),
(11,-541,o),
(60,-568,o),
(165,-568,cs),
(348,-568,o),
(474,-420,o),
(474,-131,cs),
(474,1062,ls),
(474,1100,o),
(449,1128,o),
(420,1128,cs),
(283,1128,ls),
(253,1128,o),
(230,1100,o),
(230,1062,cs),
(230,-171,ls)
);
}
);
};
hints = (
{
name = _corner.round;
origin = (0,3);
type = Corner;
},
{
name = _corner.round;
origin = (0,4);
scale = (-1,1);
type = Corner;
}
);
layerId = m001;
shapes = (
{
closed = 1;
nodes = (
(305,-568,o),
(413,-432,o),
(413,-156,cs),
(413,1128,l),
(230,1128,l),
(230,-196,ls),
(230,-241,o),
(230,-410,o),
(99,-410,cs),
(80,-410,o),
(12,-373,o),
(-7,-373,cs),
(-23,-373,o),
(-35,-385,o),
(-41,-406,cs),
(-55,-453,o),
(-58,-466,o),
(-58,-477,cs),
(-58,-495,o),
(-52,-505,o),
(-32,-521,cs),
(0,-546,o),
(48,-568,o),
(122,-568,cs)
);
}
);
width = 623;
},
{
anchors = (
{
name = bottom;
pos = (342,-568);
},
{
name = top;
pos = (352,1128);
}
);
background = {
shapes = (
{
closed = 1;
nodes = (
(348,-568,o),
(471,-420,o),
(471,-131,cs),
(471,1062,ls),
(471,1100,o),
(446,1128,o),
(417,1128,cs),
(283,1128,ls),
(253,1128,o),
(230,1100,o),
(230,1062,cs),
(230,-171,ls),
(230,-249,o),
(219,-360,o),
(127,-360,cs),
(79,-360,o),
(53,-315,o),
(11,-315,cs),
(-17,-315,o),
(-31,-343,o),
(-40,-374,cs),
(-55,-424,o),
(-58,-439,o),
(-58,-452,cs),
(-58,-477,o),
(-48,-494,o),
(-21,-516,cs),
(11,-541,o),
(60,-568,o),
(165,-568,cs)
);
}
);
};
hints = (
{
name = _corner.round;
origin = (0,3);
type = Corner;
},
{
name = _corner.round;
origin = (0,4);
scale = (-1,1);
type = Corner;
}
);
layerId = m002;
shapes = (
{
closed = 1;
nodes = (
(348,-568,o),
(473,-420,o),
(473,-131,cs),
(473,1128,l),
(230,1128,l),
(230,-171,ls),
(230,-249,o),
(219,-360,o),
(127,-360,cs),
(79,-360,o),
(53,-315,o),
(11,-315,cs),
(-17,-315,o),
(-31,-343,o),
(-40,-374,cs),
(-55,-424,o),
(-58,-439,o),
(-58,-452,cs),
(-58,-477,o),
(-48,-494,o),
(-21,-516,cs),
(11,-541,o),
(60,-568,o),
(165,-568,cs)
);
}
);
width = 683;
}
);
unicode = 567;
}
{
color = 6;
glyphname = schwa;
layers = (
{
background = {
shapes = (
{
closed = 1;
nodes = (
(921,-25,o),
(1136,174,o),
(1136,588,cs),
(1136,948,o),
(888,1154,o),
(567,1154,cs),
(412,1154,o),
(138,1097,o),
(138,962,cs),
(138,946,o),
(142,930,o),
(148,918,cs),
(176,863,ls),
(195,826,o),
(215,818,o),
(243,818,cs),
(261,818,o),
(278,826,o),
(313,847,cs),
(357,874,o),
(426,915,o),
(550,915,cs),
(753,915,o),
(869,797,o),
(869,638,cs),
(869,633,o),
(869,625,o),
(868,618,c),
(804,649,o),
(703,682,o),
(606,682,cs),
(364,682,o),
(141,587,o),
(141,342,cs),
(141,107,o),
(321,-25,o),
(568,-25,cs)
);
},
{
closed = 1;
nodes = (
(466,217,o),
(406,259,o),
(406,339,cs),
(406,426,o),
(501,464,o),
(654,464,cs),
(744,464,o),
(830,439,o),
(856,428,c),
(832,278,o),
(716,217,o),
(583,217,cs)
);
}
);
};
layerId = "997F8AB0-1B91-48A1-A6B5-F95345F1D981";
shapes = (
{
closed = 1;
nodes = (
(876,-25,o),
(1113,159,o),
(1113,585,cs),
(1113,944,o),
(860,1154,o),
(530,1154,cs),
(301,1154,o),
(85,1018,o),
(85,947,cs),
(85,928,o),
(87,920,o),
(96,903,cs),
(130,834,ls),
(143,807,o),
(161,792,o),
(193,792,cs),
(218,792,o),
(244,804,o),
(282,826,cs),
(340,859,o),
(417,889,o),
(513,889,cs),
(700,889,o),
(803,783,o),
(803,635,cs),
(803,621,o),
(802,619,o),
(798,590,c),
(860,648,l),
(798,665,o),
(684,692,o),
(568,692,cs),
(321,692,o),
(87,593,o),
(87,346,cs),
(87,108,o),
(275,-25,o),
(531,-25,cs)
);
},
{
closed = 1;
nodes = (
(444,243,o),
(395,272,o),
(395,343,cs),
(395,418,o),
(475,448,o),
(615,448,cs),
(682,448,o),
(750,432,o),
(788,420,c),
(761,286,o),
(660,243,o),
(545,243,cs)
);
}
);
width = 1202;
},
{
background = {
shapes = (
{
closed = 1;
nodes = (
(844,-1,o),
(1051,168,o),
(1051,585,cs),
(1051,932,o),
(825,1128,o),
(527,1128,cs),
(383,1128,o),
(143,1070,o),
(143,974,cs),
(143,965,o),
(145,958,o),
(149,949,cs),
(176,893,ls),
(187,872,o),
(193,870,o),
(203,870,cs),
(209,870,o),
(225,879,o),
(249,894,cs),
(297,924,o),
(375,971,o),
(510,971,cs),
(740,971,o),
(874,825,o),
(874,638,cs),
(874,621,o),
(873,603,o),
(872,586,c),
(750,618,o),
(658,637,o),
(566,637,cs),
(338,637,o),
(146,550,o),
(146,330,cs),
(146,114,o),
(303,-1,o),
(528,-1,cs)
);
},
{
closed = 1;
nodes = (
(408,159,o),
(321,211,o),
(321,327,cs),
(321,456,o),
(450,502,o),
(614,502,cs),
(691,502,o),
(796,478,o),
(866,451,c),
(840,233,o),
(698,159,o),
(543,159,cs)
);
}
);
};
layerId = m001;
shapes = (
{
closed = 1;
nodes = (
(816,-25,o),
(1024,152,o),
(1024,587,cs),
(1024,949,o),
(798,1154,o),
(500,1154,cs),
(284,1154,o),
(114,1030,o),
(114,984,cs),
(114,976,o),
(114,972,o),
(121,959,cs),
(144,918,ls),
(155,899,o),
(164,892,o),
(176,892,cs),
(186,892,o),
(195,895,o),
(228,919,cs),
(290,964,o),
(380,1001,o),
(493,1001,cs),
(712,1001,o),
(847,847,o),
(847,622,cs),
(847,565,o),
(847,519,o),
(842,481,c),
(881,573,l),
(840,587,o),
(693,641,o),
(539,641,cs),
(311,641,o),
(119,550,o),
(119,321,cs),
(119,95,o),
(276,-25,o),
(501,-25,cs)
);
},
{
closed = 1;
nodes = (
(381,131,o),
(294,196,o),
(294,317,cs),
(294,459,o),
(424,507,o),
(587,507,cs),
(628,507,o),
(756,497,o),
(837,443,c),
(820,224,o),
(675,131,o),
(516,131,cs)
);
}
);
width = 1135;
},
{
background = {
shapes = (
{
closed = 1;
nodes = (
(860,-25,o),
(1081,155,o),
(1081,586,cs),
(1081,947,o),
(842,1154,o),
(527,1154,cs),
(377,1154,o),
(113,1094,o),
(113,975,cs),
(113,963,o),
(116,952,o),
(122,939,cs),
(149,883,ls),
(165,852,o),
(183,846,o),
(203,846,cs),
(219,846,o),
(236,856,o),
(258,869,cs),
(306,899,o),
(376,947,o),
(510,947,cs),
(723,947,o),
(844,816,o),
(844,639,cs),
(844,633,o),
(843,627,o),
(843,620,c),
(776,639,o),
(672,663,o),
(566,663,cs),
(328,663,o),
(116,569,o),
(116,331,cs),
(116,100,o),
(288,-25,o),
(528,-25,cs)
);
},
{
closed = 1;
nodes = (
(422,185,o),
(351,228,o),
(351,328,cs),
(351,438,o),
(459,478,o),
(614,478,cs),
(713,478,o),
(807,447,o),
(833,435,c),
(812,252,o),
(686,185,o),
(543,185,cs)
);
}
);
};
layerId = m002;
shapes = (
{
closed = 1;
nodes = (
(861,-25,o),
(1082,155,o),
(1082,586,cs),
(1082,947,o),
(843,1154,o),
(528,1154,cs),
(378,1154,o),
(114,1094,o),
(114,975,cs),
(114,963,o),
(117,952,o),
(123,939,cs),
(150,883,ls),
(166,852,o),
(184,846,o),
(204,846,cs),
(228,846,o),
(253,866,o),
(290,888,cs),
(337,916,o),
(403,947,o),
(511,947,cs),
(724,947,o),
(845,816,o),
(845,639,cs),
(845,615,o),
(838,569,o),
(824,483,c),
(889,606,l),
(832,625,o),
(701,663,o),
(567,663,cs),
(329,663,o),
(117,569,o),
(117,331,cs),
(117,100,o),
(289,-25,o),
(529,-25,cs)
);
},
{
closed = 1;
nodes = (
(423,185,o),
(352,228,o),
(352,328,cs),
(352,438,o),
(460,478,o),
(615,478,cs),
(714,478,o),
(808,447,o),
(834,435,c),
(813,252,o),
(687,185,o),
(544,185,cs)
);
}
);
width = 1195;
}
);
unicode = 601;
}
{
color = 6;
glyphname = gravecomb;
layers = (
{
anchors = (
{
name = _top;
pos = (411,1128);
},
{
name = top;
pos = (355,1704);
}
);
background = {
shapes = (
{
closed = 1;
nodes = (
(412,1274,o),
(421,1280,o),
(434,1291,cs),
(495,1341,ls),
(512,1356,o),
(519,1363,o),
(519,1378,cs),
(519,1392,o),
(509,1407,o),
(494,1430,cs),
(315,1695,ls),
(295,1725,o),
(278,1735,o),
(260,1735,cs),
(239,1735,o),
(222,1729,o),
(197,1707,cs),
(117,1643,ls),
(95,1625,o),
(83,1610,o),
(83,1588,cs),
(83,1564,o),
(98,1547,o),
(129,1516,cs),
(352,1300,ls),
(373,1279,o),
(383,1274,o),
(399,1274,cs)
);
}
);
};
layerId = "997F8AB0-1B91-48A1-A6B5-F95345F1D981";
shapes = (
{
closed = 1;
nodes = (
(414,1272,o),
(427,1281,o),
(445,1295,cs),
(499,1335,ls),
(517,1349,o),
(522,1361,o),
(522,1381,cs),
(522,1399,o),
(514,1414,o),
(498,1437,cs),
(306,1719,ls),
(285,1749,o),
(270,1759,o),
(242,1759,cs),
(221,1759,o),
(212,1753,o),
(180,1728,cs),
(116,1678,ls),
(88,1656,o),
(74,1638,o),
(74,1608,cs),
(74,1576,o),
(89,1558,o),
(121,1526,cs),
(341,1304,ls),
(362,1283,o),
(375,1272,o),
(395,1272,cs)
);
}
);
width = 597;
},
{
anchors = (
{
name = _top;
pos = (372,1128);
},
{
name = top;
pos = (316,1722);
}
);
background = {
shapes = (
{
closed = 1;
nodes = (
(395,1270,o),
(399,1272,o),
(404,1277,cs),
(450,1319,ls),
(456,1324,o),
(460,1330,o),
(460,1338,cs),
(460,1347,o),
(454,1355,o),
(450,1360,cs),
(217,1697,ls),
(205,1713,o),
(195,1723,o),
(177,1723,cs),
(168,1723,o),
(163,1720,o),
(158,1716,cs),
(65,1642,ls),
(57,1635,o),
(50,1627,o),
(50,1614,cs),
(50,1603,o),
(55,1589,o),
(69,1576,cs),
(372,1277,ls),
(377,1272,o),
(380,1270,o),
(388,1270,cs)
);
}
);
};
layerId = m001;
shapes = (
{
closed = 1;
nodes = (
(385,1295,o),
(389,1297,o),
(394,1302,cs),
(440,1344,ls),
(446,1349,o),
(450,1355,o),
(450,1363,cs),
(450,1372,o),
(444,1380,o),
(441,1385,cs),
(252,1661,ls),
(232,1690,o),
(223,1697,o),
(209,1697,cs),
(197,1697,o),
(188,1692,o),
(174,1680,cs),
(105,1622,ls),
(91,1610,o),
(83,1600,o),
(83,1589,cs),
(83,1578,o),
(88,1564,o),
(102,1551,cs),
(362,1302,ls),
(367,1297,o),
(370,1295,o),
(378,1295,cs)
);
}
);
width = 510;
},
{
anchors = (
{
name = _top;
pos = (397,1128);
},
{
name = top;
pos = (341,1722);
}
);
background = {
shapes = (
{
closed = 1;
nodes = (
(413,1255,o),
(424,1261,o),
(437,1273,cs),
(490,1320,ls),
(496,1325,o),
(503,1335,o),
(503,1346,cs),
(503,1355,o),
(500,1363,o),
(490,1377,cs),
(252,1720,ls),
(237,1742,o),
(214,1757,o),
(192,1757,cs),
(177,1757,o),
(167,1752,o),
(156,1743,cs),
(61,1667,ls),
(47,1657,o),
(40,1642,o),
(40,1627,cs),
(40,1609,o),
(47,1589,o),
(67,1569,cs),
(377,1267,ls),
(385,1259,o),
(392,1255,o),
(402,1255,cs)
);
}
);
};
guides = (
{
angle = 90;
pos = (419,0);
}
);
layerId = m002;
shapes = (
{
closed = 1;
nodes = (
(391,1282,o),
(402,1288,o),
(415,1300,cs),
(468,1347,ls),
(474,1352,o),
(481,1362,o),
(481,1373,cs),
(481,1382,o),
(477,1390,o),
(468,1404,cs),
(270,1701,ls),
(251,1730,o),
(233,1739,o),
(213,1739,cs),
(198,1739,o),
(185,1733,o),
(168,1719,cs),
(88,1652,ls),
(68,1636,o),
(57,1620,o),
(57,1601,cs),
(57,1582,o),
(64,1566,o),
(95,1537,cs),
(355,1294,ls),
(363,1286,o),
(370,1282,o),
(380,1282,cs)
);
}
);
width = 563;
}
);
unicode = 768;
userData = {
KernOnSpecialSpacing = {
L = NoKerning;
R = NoKerning;
};
};
}
{
color = 6;
glyphname = acutecomb;
layers = (
{
anchors = (
{
name = _top;
pos = (223,1128);
},
{
name = top;
pos = (317,1704);
}
);
background = {
shapes = (
{
closed = 1;
nodes = (
(229,1274,o),
(239,1279,o),
(260,1300,cs),
(483,1516,ls),
(514,1547,o),
(529,1564,o),
(529,1588,cs),
(529,1610,o),
(517,1625,o),
(495,1643,cs),
(415,1707,ls),
(390,1729,o),
(373,1735,o),
(352,1735,cs),
(334,1735,o),
(317,1725,o),
(297,1695,cs),
(118,1430,ls),
(103,1407,o),
(93,1392,o),
(93,1378,cs),
(93,1363,o),
(100,1356,o),
(117,1341,cs),
(178,1291,ls),
(191,1280,o),
(200,1274,o),
(213,1274,cs)
);
}
);
};
layerId = "997F8AB0-1B91-48A1-A6B5-F95345F1D981";
shapes = (
{
closed = 1;
nodes = (
(231,1272,o),
(244,1283,o),
(265,1304,cs),
(485,1526,ls),
(517,1558,o),
(532,1576,o),
(532,1608,cs),
(532,1638,o),
(518,1656,o),
(490,1678,cs),
(426,1728,ls),
(394,1753,o),
(385,1759,o),
(364,1759,cs),
(336,1759,o),
(321,1749,o),
(300,1719,cs),
(108,1437,ls),
(92,1414,o),
(84,1399,o),
(84,1381,cs),
(84,1361,o),
(89,1349,o),
(107,1335,cs),
(161,1295,ls),
(179,1281,o),
(192,1272,o),
(211,1272,cs)
);
}
);
width = 597;
},
{
anchors = (
{
name = _top;
pos = (182,1128);
},
{
name = top;
pos = (276,1722);
}
);
background = {
shapes = (
{
closed = 1;
nodes = (
(129,1271,o),
(133,1274,o),
(137,1278,cs),
(442,1576,ls),
(459,1592,o),
(461,1610,o),
(459,1624,cs),
(457,1631,o),
(455,1635,o),
(450,1639,cs),
(353,1716,ls),
(346,1722,o),
(339,1725,o),
(326,1722,cs),
(317,1720,o),
(306,1713,o),
(294,1697,cs),
(57,1354,ls),
(50,1343,o),
(47,1338,o),
(48,1333,cs),
(49,1330,o),
(50,1329,o),
(52,1327,cs),
(117,1271,ls),
(118,1270,o),
(119,1269,o),
(123,1270,cs)
);
}
);
};
guides = (
{
angle = 90;
pos = (182,0);
}
);
layerId = m001;
shapes = (
{
closed = 1;
nodes = (
(169,1295,o),
(174,1298,o),
(182,1305,cs),
(438,1551,ls),
(452,1564,o),
(457,1578,o),
(457,1589,cs),
(457,1600,o),
(449,1610,o),
(435,1622,cs),
(366,1680,ls),
(352,1692,o),
(343,1697,o),
(331,1697,cs),
(317,1697,o),
(308,1690,o),
(288,1661,cs),
(99,1385,ls),
(96,1380,o),
(90,1372,o),
(90,1363,cs),
(90,1355,o),
(94,1349,o),
(100,1344,cs),
(143,1305,ls),
(150,1298,o),
(156,1295,o),
(162,1295,cs)
);
}
);
width = 510;
},
{
anchors = (
{
name = _top;
pos = (208,1128);
},
{
name = top;
pos = (302,1722);
}
);
background = {
shapes = (
{
closed = 1;
nodes = (
(165,1280,o),
(174,1285,o),
(181,1292,cs),
(485,1589,ls),
(510,1613,o),
(513,1639,o),
(510,1658,cs),
(507,1670,o),
(501,1680,o),
(491,1687,cs),
(396,1763,ls),
(385,1773,o),
(367,1779,o),
(346,1774,cs),
(332,1771,o),
(315,1761,o),
(300,1740,cs),
(62,1397,ls),
(53,1383,o),
(47,1371,o),
(50,1358,cs),
(52,1351,o),
(56,1345,o),
(62,1340,cs),
(125,1285,ls),
(133,1277,o),
(143,1275,o),
(155,1278,cs)
);
}
);
};
guides = (
{
angle = 90;
pos = (208,0);
}
);
layerId = m002;
shapes = (
{
closed = 1;
nodes = (
(198,1284,o),
(209,1290,o),
(224,1304,cs),
(465,1530,ls),
(496,1559,o),
(506,1579,o),
(506,1603,cs),
(506,1628,o),
(493,1642,o),
(469,1661,cs),
(406,1714,ls),
(384,1732,o),
(371,1740,o),
(352,1740,cs),
(334,1740,o),
(317,1730,o),
(291,1691,cs),
(107,1414,ls),
(93,1394,o),
(90,1386,o),
(90,1375,cs),
(90,1361,o),
(94,1352,o),
(107,1340,cs),
(150,1302,ls),
(166,1288,o),
(177,1284,o),
(186,1284,cs)
);
}
);
width = 563;
}
);
unicode = 769;
userData = {
KernOnSpecialSpacing = {
L = NoKerning;
R = NoKerning;
};
};
}
{
color = 6;
glyphname = commaturnedabovecomb;
layers = (
{
anchors = (
{
name = _top;
pos = (327,1128);
},
{
name = top;
pos = (326,1696);
}
);
background = {
shapes = (
{
closed = 1;
nodes = (
(442,1208,o),
(512,1289,o),
(512,1370,cs),
(512,1438,o),
(479,1495,o),
(410,1512,c),
(426,1537,o),
(448,1570,o),
(461,1588,cs),
(479,1612,o),
(490,1627,o),
(490,1650,cs),
(490,1674,o),
(474,1691,o),
(444,1705,cs),
(384,1733,ls),
(370,1739,o),
(360,1742,o),
(339,1742,cs),
(310,1742,o),
(290,1721,o),
(270,1693,cs),
(167,1551,o),
(146,1474,o),
(146,1399,cs),
(146,1290,o),
(230,1208,o),
(330,1208,cs)
);
}
);
};
layerId = "997F8AB0-1B91-48A1-A6B5-F95345F1D981";
shapes = (
{
closed = 1;
nodes = (
(432,1228,o),
(502,1299,o),
(502,1380,cs),
(502,1448,o),
(469,1505,o),
(400,1522,c),
(417,1547,o),
(433,1570,o),
(459,1608,cs),
(470,1624,o),
(478,1636,o),
(478,1654,cs),
(478,1680,o),
(463,1689,o),
(434,1705,cs),
(384,1733,ls),
(371,1740,o),
(360,1742,o),
(339,1742,cs),
(310,1742,o),
(290,1721,o),
(270,1693,cs),
(193,1587,o),
(153,1502,o),
(153,1429,cs),
(153,1310,o),
(224,1228,o),
(330,1228,cs)
);
}
);
width = 649;
},
{
anchors = (
{
name = _top;
pos = (303,1128);
},
{
name = top;
pos = (303,1710);
}
);
background = {
shapes = (
{
closed = 1;
nodes = (
(372,1267,o),
(428,1309,o),
(428,1371,cs),
(428,1420,o),
(394,1464,o),
(330,1470,c),
(337,1516,o),
(357,1570,o),
(394,1621,cs),
(406,1638,o),
(409,1644,o),
(409,1651,cs),
(409,1661,o),
(403,1665,o),
(386,1673,cs),
(367,1682,ls),
(359,1686,o),
(351,1689,o),
(339,1689,cs),
(315,1689,o),
(306,1678,o),
(289,1657,cs),
(212,1563,o),
(178,1480,o),
(178,1411,cs),
(178,1316,o),
(240,1267,o),
(313,1267,cs)
);
}
);
};
layerId = m001;
shapes = (
{
closed = 1;
nodes = (
(375,1267,o),
(428,1316,o),
(428,1381,cs),
(428,1446,o),
(375,1481,o),
(323,1485,c),
(331,1520,o),
(362,1574,o),
(387,1605,cs),
(409,1633,o),
(412,1640,o),
(412,1648,cs),
(412,1660,o),
(403,1665,o),
(386,1673,cs),
(367,1682,ls),
(353,1689,o),
(345,1691,o),
(336,1691,cs),
(323,1691,o),
(312,1686,o),
(299,1671,cs),
(203,1562,o),
(178,1477,o),
(178,1411,cs),
(178,1320,o),
(240,1267,o),
(308,1267,cs)
);
}
);
width = 600;
},
{
anchors = (
{
name = _top;
pos = (303,1128);
},
{
name = top;
pos = (303,1710);
}
);
layerId = m002;
shapes = (
{
closed = 1;
nodes = (
(386,1244,o),
(453,1298,o),
(453,1385,cs),
(453,1446,o),
(413,1490,o),
(346,1498,c),
(364,1545,o),
(386,1582,o),
(410,1616,cs),
(417,1625,o),
(426,1639,o),
(426,1653,cs),
(426,1669,o),
(413,1680,o),
(397,1686,cs),
(349,1705,ls),
(339,1709,o),
(333,1710,o),
(320,1710,cs),
(302,1710,o),
(288,1698,o),
(271,1673,cs),
(196,1566,o),
(153,1486,o),
(153,1407,cs),
(153,1303,o),
(227,1244,o),
(307,1244,cs)
);
}
);
width = 600;
}
);
unicode = 786;
userData = {
KernOnSpecialSpacing = {
L = NoKerning;
R = NoKerning;
};
};
}
{
color = 6;
glyphname = cedillacomb;
layers = (
{
anchors = (
{
name = _bottom;
pos = (132,0);
},
{
name = bottom;
pos = (116,-477);
}
);
background = {
shapes = (
{
closed = 1;
nodes = (
(277,-480,o),
(384,-390,o),
(384,-234,cs),
(384,-90,o),
(255,1,o),
(160,63,c),
(53,63,l),
(9,0,l),
(70,-53,o),
(141,-127,o),
(141,-206,cs),
(141,-240,o),
(109,-265,o),
(69,-265,cs),
(18,-265,o),
(-37,-234,o),
(-71,-234,cs),
(-100,-234,o),
(-118,-257,o),
(-137,-297,cs),
(-149,-322,o),
(-156,-339,o),
(-156,-369,cs),
(-156,-434,o),
(-30,-480,o),
(94,-480,cs)
);
}
);
};
layerId = "997F8AB0-1B91-48A1-A6B5-F95345F1D981";
shapes = (
{
closed = 1;
nodes = (
(257,-480,o),
(378,-372,o),
(378,-222,cs),
(378,-100,o),
(302,-20,o),
(160,63,c),
(53,63,l),
(9,0,l),
(70,-53,o),
(141,-124,o),
(141,-193,cs),
(141,-237,o),
(116,-267,o),
(62,-267,cs),
(18,-267,o),
(-29,-232,o),
(-71,-232,cs),
(-100,-232,o),
(-118,-257,o),
(-137,-297,cs),
(-149,-322,o),
(-156,-339,o),
(-156,-369,cs),
(-156,-434,o),
(-30,-480,o),
(94,-480,cs)
);
}
);
width = 547;
},
{
anchors = (
{
name = _bottom;
pos = (82,0);
},
{
name = bottom;
pos = (66,-477);
}
);
background = {
shapes = (
{
closed = 1;
nodes = (
(201,-454,o),
(289,-365,o),
(289,-251,cs),
(289,-117,o),
(170,-28,o),
(95,23,c),
(23,23,l),
(21,2,l),
(69,-43,o),
(146,-116,o),
(146,-203,cs),
(146,-275,o),
(90,-325,o),
(19,-325,cs),
(-19,-325,o),
(-53,-314,o),
(-80,-305,cs),
(-98,-299,o),
(-112,-294,o),
(-121,-294,cs),
(-127,-294,o),
(-136,-304,o),
(-145,-328,cs),
(-147,-334,o),
(-150,-342,o),
(-152,-347,cs),
(-157,-359,o),
(-158,-363,o),
(-158,-368,cs),
(-158,-413,o),
(-54,-454,o),
(44,-454,cs)
);
}
);
};
layerId = m001;
shapes = (
{
closed = 1;
nodes = (
(191,-480,o),
(294,-380,o),
(294,-250,cs),
(294,-126,o),
(200,-28,o),
(135,23,c),
(-17,23,l),
(-19,2,l),
(59,-43,o),
(147,-145,o),
(147,-242,cs),
(147,-314,o),
(110,-350,o),
(39,-350,cs),
(-33,-350,o),
(-90,-314,o),
(-113,-314,cs),
(-126,-314,o),
(-136,-330,o),
(-145,-354,cs),
(-152,-372,o),
(-160,-393,o),
(-160,-408,cs),
(-160,-446,o),
(-54,-480,o),
(34,-480,cs)
);
}
);
width = 507;
},
{
anchors = (
{
name = _bottom;
pos = (82,0);
},
{
name = bottom;
pos = (66,-477);
}
);
background = {
shapes = (
{
closed = 1;
nodes = (
(215,-477,o),
(314,-377,o),
(314,-251,cs),
(314,-102,o),
(180,-6,o),
(103,46,c),
(11,46,l),
(-22,10,l),
(17,-31,o),
(121,-108,o),
(121,-203,cs),
(121,-263,o),
(77,-302,o),
(19,-302,cs),
(-40,-302,o),
(-89,-271,o),
(-121,-271,cs),
(-143,-271,o),
(-158,-293,o),
(-168,-320,cs),
(-177,-345,o),
(-183,-354,o),
(-183,-368,cs),
(-183,-433,o),
(-61,-477,o),
(44,-477,cs)
);
}
);
};
layerId = m002;
shapes = (
{
closed = 1;
nodes = (
(245,-480,o),
(344,-380,o),
(344,-254,cs),
(344,-113,o),
(232,-9,o),
(155,43,c),
(41,43,l),
(8,7,l),
(57,-34,o),
(151,-111,o),
(151,-206,cs),
(151,-266,o),
(107,-305,o),
(49,-305,cs),
(-10,-305,o),
(-59,-274,o),
(-91,-274,cs),
(-113,-274,o),
(-128,-296,o),
(-138,-323,cs),
(-147,-348,o),
(-153,-357,o),
(-153,-371,cs),
(-153,-436,o),
(-31,-480,o),
(74,-480,cs)
);
}
);
width = 507;
}
);
unicode = 807;
userData = {
KernOnSpecialSpacing = {
L = NoKerning;
R = NoKerning;
};
};
}
{
color = 3;
glyphname = fdotaccent;
layers = (
{
background = {
shapes = (
{
closed = 1;
nodes = (
(481,0,ls),
(539,0,o),
(588,39,o),
(588,104,cs),
(588,857,l),
(783,857,ls),
(846,857,o),
(885,890,o),
(885,947,cs),
(885,1038,ls),
(885,1091,o),
(848,1128,o),
(783,1128,cs),
(552,1128,l),
(541,1163,o),
(529,1192,o),
(529,1233,cs),
(529,1271,o),
(562,1326,o),
(650,1326,cs),
(712,1326,o),
(745,1309,o),
(776,1292,cs),
(797,1280,o),
(820,1268,o),
(844,1268,cs),
(867,1268,o),
(893,1278,o),
(914,1307,cs),
(961,1373,ls),
(978,1397,o),
(986,1419,o),
(986,1440,cs),
(986,1481,o),
(953,1511,o),
(907,1537,cs),
(828,1583,o),
(736,1600,o),
(649,1600,cs),
(371,1600,o),
(239,1417,o),
(239,1258,cs),
(239,1201,o),
(253,1145,o),
(265,1105,c),
(166,1089,ls),
(97,1078,o),
(79,1043,o),
(79,1000,cs),
(79,948,ls),
(79,892,o),
(120,857,o),
(182,857,cs),
(275,857,l),
(275,104,ls),
(275,39,o),
(325,0,o),
(386,0,cs)
);
}
);
};
hints = (
{
name = _corner.round;
origin = (1,0);
scale = (-1,1);
type = Corner;
},
{
name = _corner.round;
origin = (1,2);
scale = (-1,1);
type = Corner;
},
{
name = _corner.round;
origin = (1,3);
type = Corner;
},
{
name = _corner.round;
origin = (1,40);
type = Corner;
},
{
name = _corner.round;
origin = (1,42);
type = Corner;
}
);
layerId = "997F8AB0-1B91-48A1-A6B5-F95345F1D981";
shapes = (
{
pos = (104,225);
ref = dotaccentcomb.case;
},
{
closed = 1;
nodes = (
(556,0,l),
(556,857,l),
(853,857,l),
(853,1128,l),
(520,1128,l),
(495,1245,o),
(488,1312,o),
(488,1343,cs),
(488,1431,o),
(511,1506,o),
(609,1506,cs),
(671,1506,o),
(704,1489,o),
(735,1471,cs),
(756,1460,o),
(779,1448,o),
(803,1448,cs),
(826,1448,o),
(852,1458,o),
(873,1487,cs),
(919,1553,ls),
(937,1577,o),
(945,1599,o),
(945,1620,cs),
(945,1661,o),
(912,1691,o),
(866,1717,cs),
(787,1763,o),
(695,1780,o),
(608,1780,cs),
(330,1780,o),
(181,1597,o),
(181,1408,cs),
(181,1301,o),
(204,1225,o),
(233,1105,c),
(134,1089,ls),
(65,1078,o),
(47,1043,o),
(47,1000,cs),
(47,857,l),
(243,857,l),
(243,0,l)
);
}
);
width = 857;
},
{
background = {
shapes = (
{
closed = 1;
nodes = (
(421,0,ls),
(447,0,o),
(459,17,o),
(459,46,cs),
(459,920,l),
(733,920,ls),
(760,920,o),
(766,927,o),
(766,951,cs),
(766,1048,ls),
(766,1069,o),
(760,1078,o),
(733,1078,cs),
(445,1078,l),
(425,1110,o),
(400,1182,o),
(400,1237,cs),
(400,1345,o),
(500,1388,o),
(587,1388,cs),
(679,1388,o),
(730,1358,o),
(760,1340,cs),
(778,1329,o),
(788,1324,o),
(793,1324,c),
(793,1324,o),
(797,1326,o),
(808,1341,cs),
(856,1409,ls),
(864,1420,o),
(868,1432,o),
(868,1442,cs),
(868,1459,o),
(850,1475,o),
(824,1491,cs),
(751,1534,o),
(670,1550,o),
(586,1550,cs),
(378,1550,o),
(234,1446,o),
(234,1273,cs),
(234,1222,o),
(251,1157,o),
(296,1069,c),
(113,1040,l),
(79,1030,o),
(76,1026,o),
(76,1008,cs),
(76,952,ls),
(76,929,o),
(83,920,o),
(109,920,cs),
(280,920,l),
(280,46,ls),
(280,19,o),
(292,0,o),
(323,0,cs)
);
}
);
};
hints = (
{
name = _corner.round;
origin = (1,0);
scale = (-1,1);
type = Corner;
},
{
name = _corner.round;
origin = (1,2);
scale = (-1,1);
type = Corner;
},
{
name = _corner.round;
origin = (1,3);
type = Corner;
},
{
name = _corner.round;
origin = (1,40);
type = Corner;
},
{
name = _corner.round;
origin = (1,42);
type = Corner;
}
);
layerId = m001;
shapes = (
{
pos = (200,202);
ref = dotaccentcomb.case;
},
{
closed = 1;
nodes = (
(459,0,l),
(459,970,l),
(766,970,l),
(766,1128,l),
(452,1128,l),
(407,1244,o),
(388,1338,o),
(388,1380,cs),
(388,1489,o),
(425,1618,o),
(587,1618,cs),
(679,1618,o),
(730,1588,o),
(760,1570,cs),
(775,1561,o),
(784,1557,o),
(790,1557,cs),
(799,1557,o),
(803,1564,o),
(808,1571,cs),
(856,1639,ls),
(864,1650,o),
(868,1662,o),
(868,1672,cs),
(868,1689,o),
(850,1705,o),
(824,1721,cs),
(751,1764,o),
(670,1780,o),
(586,1780,cs),
(344,1780,o),
(216,1622,o),
(216,1449,cs),
(216,1312,o),
(252,1231,o),
(292,1119,c),
(113,1090,l),
(79,1080,o),
(76,1076,o),
(76,1058,cs),
(76,970,l),
(280,970,l),
(280,0,l)
);
}
);
width = 791;
},
{
background = {
shapes = (
{
closed = 1;
nodes = (
(451,0,ls),
(494,0,o),
(519,29,o),
(519,71,cs),
(519,920,l),
(763,920,ls),
(811,920,o),
(826,943,o),
(826,976,cs),
(826,1073,ls),
(826,1102,o),
(812,1128,o),
(763,1128,cs),
(494,1128,l),
(478,1160,o),
(460,1218,o),
(460,1262,cs),
(460,1352,o),
(540,1388,o),
(617,1388,cs),
(682,1388,o),
(723,1372,o),
(753,1356,cs),
(783,1340,o),
(801,1324,o),
(823,1324,cs),
(836,1324,o),
(848,1332,o),
(862,1351,cs),
(910,1419,ls),
(923,1437,o),
(928,1453,o),
(928,1467,cs),
(928,1496,o),
(900,1518,o),
(869,1537,cs),
(793,1582,o),
(704,1600,o),
(616,1600,cs),
(393,1600,o),
(234,1486,o),
(234,1298,cs),
(234,1250,o),
(248,1190,o),
(284,1113,c),
(135,1089,l),
(90,1076,o),
(76,1064,o),
(76,1033,cs),
(76,977,ls),
(76,945,o),
(92,920,o),
(139,920,cs),
(280,920,l),
(280,71,ls),
(280,29,o),
(306,0,o),
(353,0,cs)
);
}
);
};
hints = (
{
name = _corner.round;
origin = (1,0);
scale = (-1,1);
type = Corner;
},
{
name = _corner.round;
origin = (1,2);
scale = (-1,1);
type = Corner;
},
{
name = _corner.round;
origin = (1,3);
type = Corner;
},
{
name = _corner.round;
origin = (1,40);
type = Corner;
},
{
name = _corner.round;
origin = (1,42);
type = Corner;
}
);
layerId = m002;
shapes = (
{
pos = (209,224);
ref = dotaccentcomb.case;
},
{
closed = 1;
nodes = (
(519,0,l),
(519,920,l),
(826,920,l),
(826,1128,l),
(494,1128,l),
(456,1232,o),
(448,1316,o),
(448,1355,cs),
(448,1458,o),
(479,1568,o),
(617,1568,cs),
(684,1568,o),
(725,1551,o),
(755,1535,cs),
(783,1519,o),
(802,1504,o),
(823,1504,cs),
(836,1504,o),
(848,1512,o),
(862,1531,cs),
(910,1599,ls),
(923,1617,o),
(928,1633,o),
(928,1647,cs),
(928,1676,o),
(900,1698,o),
(869,1717,cs),
(793,1762,o),
(704,1780,o),
(616,1780,cs),
(355,1780,o),
(216,1608,o),
(216,1424,cs),
(216,1295,o),
(248,1212,o),
(284,1113,c),
(135,1089,l),
(90,1076,o),
(76,1064,o),
(76,1033,cs),
(76,920,l),
(280,920,l),
(280,0,l)
);
}
);
width = 851;
}
);
unicode = 7711;
}
{
color = 6;
glyphname = increment;
layers = (
{
background = {
shapes = (
{
closed = 1;
nodes = (
(1478,-36,ls),
(1536,-36,o),
(1570,7,o),
(1570,50,cs),
(1570,61,o),
(1568,73,o),
(1565,81,cs),
(988,1403,ls),
(936,1520,o),
(891,1522,o),
(790,1522,cs),
(675,1522,o),
(632,1503,o),
(591,1400,cs),
(72,83,ls),
(68,73,o),
(66,65,o),
(66,55,cs),
(66,8,o),
(106,-36,o),
(165,-36,cs)
);
},
{
closed = 1;
nodes = (
(812,1193,ls),
(814,1199,o),
(792,1177,o),
(789,1177,cs),
(786,1177,o),
(770,1184,o),
(768,1189,cs),
(1148,247,l),
(473,247,l)
);
}
);
};
layerId = "997F8AB0-1B91-48A1-A6B5-F95345F1D981";
shapes = (
{
closed = 1;
nodes = (
(1418,0,ls),
(1474,0,o),
(1507,42,o),
(1507,84,cs),
(1507,97,o),
(1506,105,o),
(1502,115,cs),
(961,1420,ls),
(927,1502,o),
(877,1534,o),
(770,1534,cs),
(753,1534,ls),
(652,1534,o),
(588,1519,o),
(547,1413,cs),
(46,115,ls),
(43,107,o),
(41,101,o),
(41,89,cs),
(41,43,o),
(80,0,o),
(137,0,cs)
);
},
{
closed = 1;
nodes = (
(749,1130,ls),
(752,1138,o),
(756,1140,o),
(760,1140,cs),
(763,1140,o),
(770,1138,o),
(773,1130,cs),
(1095,286,l),
(443,286,l)
);
}
);
width = 1636;
},
{
background = {
shapes = (
{
closed = 1;
nodes = (
(1398,25,ls),
(1413,25,o),
(1420,36,o),
(1420,52,cs),
(1420,57,o),
(1419,61,o),
(1419,61,c),
(843,1423,ls),
(808,1505,o),
(805,1508,o),
(710,1508,cs),
(620,1508,o),
(607,1500,o),
(577,1421,cs),
(57,63,ls),
(56,61,o),
(56,60,o),
(56,57,cs),
(56,41,o),
(67,25,o),
(85,25,cs)
);
},
{
closed = 1;
nodes = (
(665,1247,l),
(670,1266,o),
(691,1276,o),
(709,1276,cs),
(726,1276,o),
(746,1266,o),
(753,1250,cs),
(1167,192,l),
(298,192,l)
);
}
);
};
layerId = m001;
shapes = (
{
closed = 1;
nodes = (
(1349,0,ls),
(1384,0,o),
(1399,28,o),
(1399,52,cs),
(1399,59,o),
(1398,66,o),
(1396,71,cs),
(843,1433,ls),
(814,1509,o),
(779,1533,o),
(723,1533,cs),
(707,1533,ls),
(646,1533,o),
(606,1520,o),
(574,1430,cs),
(61,72,ls),
(59,67,o),
(58,62,o),
(58,57,cs),
(58,30,o),
(78,0,o),
(115,0,cs)
);
},
{
closed = 1;
nodes = (
(702,1313,ls),
(705,1320,o),
(708,1323,o),
(713,1323,cs),
(717,1323,o),
(723,1319,o),
(725,1313,cs),
(1162,171,l),
(291,171,l)
);
}
);
width = 1476;
},
{
background = {
shapes = (
{
closed = 1;
nodes = (
(1428,0,l),
(1465,0,o),
(1480,28,o),
(1480,52,cs),
(1480,59,o),
(1479,66,o),
(1477,71,cs),
(901,1433,ls),
(859,1531,o),
(837,1533,o),
(740,1533,cs),
(639,1533,o),
(613,1520,o),
(579,1430,cs),
(59,72,ls),
(57,67,o),
(56,62,o),
(56,57,cs),
(56,30,o),
(77,0,o),
(115,0,cs)
);
},
{
closed = 1;
nodes = (
(724,1241,ls),
(726,1248,o),
(733,1251,o),
(739,1251,cs),
(746,1251,o),
(752,1248,o),
(755,1241,cs),
(1156,217,l),
(368,217,l)
);
}
);
};
layerId = m002;
shapes = (
{
closed = 1;
nodes = (
(1417,0,ls),
(1454,0,o),
(1469,28,o),
(1469,52,cs),
(1469,59,o),
(1468,66,o),
(1466,71,cs),
(923,1433,ls),
(893,1509,o),
(855,1533,o),
(764,1533,cs),
(747,1533,ls),
(652,1533,o),
(610,1520,o),
(576,1430,cs),
(71,72,ls),
(69,67,o),
(68,62,o),
(68,57,cs),
(68,30,o),
(89,0,o),
(127,0,cs)
);
},
{
closed = 1;
nodes = (
(741,1234,ls),
(743,1241,o),
(748,1244,o),
(753,1244,cs),
(758,1244,o),
(763,1240,o),
(765,1234,cs),
(1146,223,l),
(381,223,l)
);
}
);
width = 1536;
}
);
unicode = 8710;
}
{
color = 6;
glyphname = minus;
layers = (
{
background = {
shapes = (
{
closed = 1;
nodes = (
(1225,472,ls),
(1277,472,o),
(1321,508,o),
(1321,561,cs),
(1321,643,ls),
(1321,693,o),
(1277,730,o),
(1225,730,cs),
(237,730,ls),
(186,730,o),
(142,693,o),
(142,647,cs),
(142,555,ls),
(142,508,o),
(186,472,o),
(237,472,cs)
);
}
);
};
hints = (
{
name = _corner.round;
origin = (0,0);
scale = (-1,1);
type = Corner;
},
{
name = _corner.round;
origin = (0,1);
type = Corner;
},
{
name = _corner.round;
origin = (0,2);
scale = (-1,1);
type = Corner;
},
{
name = _corner.round;
origin = (0,3);
type = Corner;
}
);
layerId = "997F8AB0-1B91-48A1-A6B5-F95345F1D981";
shapes = (
{
closed = 1;
nodes = (
(1216,453,l),
(1216,721,l),
(122,721,l),
(122,453,l)
);
}
);
width = 1338;
},
{
background = {
shapes = (
{
closed = 1;
nodes = (
(1145,533,ls),
(1159,533,o),
(1171,544,o),
(1171,563,cs),
(1171,647,ls),
(1171,664,o),
(1159,675,o),
(1145,675,cs),
(157,675,ls),
(143,675,o),
(132,665,o),
(132,652,cs),
(132,557,ls),
(132,543,o),
(143,533,o),
(157,533,cs)
);
}
);
};
hints = (
{
name = _corner.round;
origin = (0,2);
scale = (-1,1);
type = Corner;
},
{
name = _corner.round;
origin = (0,3);
type = Corner;
},
{
name = _corner.round;
origin = (0,0);
scale = (-1,1);
type = Corner;
},
{
name = _corner.round;
origin = (0,1);
type = Corner;
}
);
layerId = m001;
shapes = (
{
closed = 1;
nodes = (
(1131,525,l),
(1131,683,l),
(131,683,l),
(131,525,l)
);
}
);
width = 1262;
},
{
background = {
shapes = (
{
closed = 1;
nodes = (
(1175,508,ls),
(1206,508,o),
(1231,530,o),
(1231,563,cs),
(1231,647,ls),
(1231,678,o),
(1206,700,o),
(1175,700,cs),
(187,700,ls),
(157,700,o),
(132,678,o),
(132,652,cs),
(132,557,ls),
(132,530,o),
(157,508,o),
(187,508,cs)
);
}
);
};
hints = (
{
name = _corner.round;
origin = (0,0);
scale = (-1,1);
type = Corner;
},
{
name = _corner.round;
origin = (0,1);
type = Corner;
},
{
name = _corner.round;
origin = (0,2);
scale = (-1,1);
type = Corner;
},
{
name = _corner.round;
origin = (0,3);
type = Corner;
}
);
layerId = m002;
shapes = (
{
closed = 1;
nodes = (
(1146,498,l),
(1146,710,l),
(132,710,l),
(132,498,l)
);
}
);
width = 1278;
}
);
metricRight = "=|";
unicode = 8722;
userData = {
KernOnSpecialSpacing = {
L = math;
R = math;
};
};
}
{
color = 6;
glyphname = radical;
layers = (
{
background = {
shapes = (
{
closed = 1;
nodes = (
(766,-21,ls),
(901,-21,o),
(932,25,o),
(953,101,cs),
(1382,1625,l),
(1383,1631,o),
(1384,1637,o),
(1384,1645,cs),
(1384,1693,o),
(1352,1725,o),
(1314,1725,cs),
(1184,1725,ls),
(1148,1725,o),
(1118,1704,o),
(1109,1667,cs),
(759,309,ls),
(751,276,o),
(743,254,o),
(731,254,cs),
(714,254,o),
(710,276,o),
(698,312,cs),
(534,790,l),
(517,838,o),
(487,863,o),
(440,863,cs),
(429,863,o),
(420,862,o),
(408,859,cs),
(122,789,ls),
(94,782,o),
(75,758,o),
(75,730,cs),
(75,724,o),
(78,706,o),
(79,703,cs),
(102,608,ls),
(109,578,o),
(140,559,o),
(172,559,cs),
(178,559,o),
(185,560,o),
(190,561,cs),
(318,594,l),
(519,98,ls),
(556,4,o),
(606,-21,o),
(709,-21,cs)
);
}
);
};
hints = (
{
name = _corner.round;
origin = (0,0);
scale = (-1,1);
type = Corner;
},
{
name = _corner.round;
origin = (0,1);
type = Corner;
},
{
name = _corner.round;
origin = (0,2);
scale = (-1,1);
type = Corner;
},
{
name = _corner.round;
origin = (0,10);
type = Corner;
},
{
name = _corner.round;
origin = (0,11);
scale = (-1,1);
type = Corner;
},
{
name = _corner.round;
origin = (0,12);
type = Corner;
},
{
name = _corner.round;
origin = (0,14);
type = Corner;
}
);
layerId = "997F8AB0-1B91-48A1-A6B5-F95345F1D981";
shapes = (
{
closed = 1;
nodes = (
(944,0,l),
(1495,1748,l),
(1145,1748,l),
(729,346,ls),
(721,319,o),
(719,309,o),
(709,309,cs),
(699,309,o),
(695,319,o),
(687,344,cs),
(508,920,l),
(10,776,l),
(94,496,l),
(318,561,l),
(513,0,l)
);
}
);
width = 1333;
},
{
background = {
shapes = (
{
closed = 1;
nodes = (
(690,0,ls),
(793,0,o),
(811,25,o),
(829,92,cs),
(1273,1699,ls),
(1274,1702,o),
(1274,1704,o),
(1274,1711,cs),
(1274,1731,o),
(1266,1748,o),
(1254,1748,cs),
(1124,1748,ls),
(1112,1748,o),
(1103,1739,o),
(1098,1722,cs),
(690,192,ls),
(683,165,o),
(680,155,o),
(670,155,cs),
(660,155,o),
(658,165,o),
(648,190,cs),
(421,782,ls),
(408,815,o),
(397,828,o),
(374,828,cs),
(367,828,o),
(362,827,o),
(354,825,cs),
(75,754,ls),
(64,751,o),
(59,744,o),
(59,735,cs),
(59,731,o),
(60,727,o),
(61,722,cs),
(85,620,ls),
(88,607,o),
(97,603,o),
(105,603,cs),
(111,603,o),
(121,606,o),
(131,609,cs),
(283,651,l),
(509,95,ls),
(541,17,o),
(568,0,o),
(653,0,cs)
);
}
);
};
hints = (
{
name = _corner.round;
origin = (0,11);
scale = (-1,1);
type = Corner;
},
{
name = _corner.round;
origin = (0,12);
type = Corner;
},
{
name = _corner.round;
origin = (0,10);
type = Corner;
},
{
name = _corner.round;
origin = (0,1);
type = Corner;
},
{
name = _corner.round;
origin = (0,2);
scale = (-1,1);
type = Corner;
},
{
name = _corner.round;
origin = (0,14);
type = Corner;
},
{
name = _corner.round;
origin = (0,0);
scale = (-1,1);
type = Corner;
}
);
layerId = m001;
shapes = (
{
closed = 1;
nodes = (
(804,0,l),
(1286,1748,l),
(1105,1748,l),
(690,192,ls),
(683,165,o),
(680,155,o),
(670,155,cs),
(660,155,o),
(658,165,o),
(648,190,cs),
(400,837,l),
(54,749,l),
(91,597,l),
(283,651,l),
(548,0,l)
);
}
);
width = 1303;
},
{
background = {
shapes = (
{
closed = 1;
nodes = (
(736,-1,ls),
(859,-1,o),
(885,39,o),
(904,110,cs),
(1333,1695,ls),
(1334,1700,o),
(1334,1705,o),
(1334,1711,cs),
(1334,1741,o),
(1318,1773,o),
(1284,1773,cs),
(1154,1773,ls),
(1126,1773,o),
(1105,1754,o),
(1099,1728,cs),
(725,222,ls),
(724,218,o),
(720,207,o),
(706,207,cs),
(690,207,o),
(686,219,o),
(685,222,cs),
(485,814,ls),
(472,853,o),
(451,877,o),
(410,877,cs),
(399,877,o),
(391,875,o),
(383,873,cs),
(97,800,ls),
(76,795,o),
(65,776,o),
(65,759,cs),
(65,751,o),
(68,741,o),
(69,736,cs),
(92,638,ls),
(97,616,o),
(120,602,o),
(142,602,cs),
(149,602,o),
(153,603,o),
(158,604,cs),
(300,643,l),
(507,110,ls),
(541,21,o),
(583,-1,o),
(679,-1,cs)
);
}
);
};
hints = (
{
name = _corner.round;
origin = (0,0);
scale = (-1,1);
type = Corner;
},
{
name = _corner.round;
origin = (0,1);
type = Corner;
},
{
name = _corner.round;
origin = (0,2);
scale = (-1,1);
type = Corner;
},
{
name = _corner.round;
origin = (0,10);
type = Corner;
},
{
name = _corner.round;
origin = (0,11);
scale = (-1,1);
type = Corner;
},
{
name = _corner.round;
origin = (0,12);
type = Corner;
},
{
name = _corner.round;
origin = (0,14);
type = Corner;
}
);
layerId = m002;
shapes = (
{
closed = 1;
nodes = (
(903,0,l),
(1385,1748,l),
(1105,1748,l),
(721,281,ls),
(714,254,o),
(711,244,o),
(701,244,cs),
(691,244,o),
(687,254,o),
(679,279,cs),
(468,902,l),
(40,786,l),
(95,585,l),
(300,643,l),
(549,0,l)
);
}
);
width = 1273;
}
);
unicode = 8730;
}
{
color = 6;
glyphname = integral;
layers = (
{
background = {
shapes = (
{
closed = 1;
nodes = (
(634,-613,o),
(768,-424,o),
(768,-197,cs),
(768,1433,ls),
(768,1525,o),
(782,1591,o),
(847,1591,cs),
(875,1591,o),
(896,1578,o),
(922,1561,cs),
(948,1544,o),
(971,1532,o),
(998,1532,cs),
(1022,1532,o),
(1052,1542,o),
(1077,1577,cs),
(1125,1643,ls),
(1146,1672,o),
(1153,1696,o),
(1153,1719,cs),
(1153,1838,o),
(955,1887,o),
(833,1887,cs),
(564,1887,o),
(428,1699,o),
(428,1499,cs),
(428,-159,ls),
(428,-251,o),
(414,-317,o),
(349,-317,cs),
(321,-317,o),
(299,-303,o),
(274,-287,cs),
(247,-270,o),
(224,-259,o),
(198,-259,cs),
(176,-259,o),
(144,-267,o),
(118,-304,cs),
(71,-369,ls),
(50,-398,o),
(43,-424,o),
(43,-445,cs),
(43,-554,o),
(239,-613,o),
(363,-613,cs)
);
}
);
};
layerId = "997F8AB0-1B91-48A1-A6B5-F95345F1D981";
shapes = (
{
closed = 1;
nodes = (
(605,-613,o),
(741,-425,o),
(741,-225,cs),
(741,1433,ls),
(741,1525,o),
(755,1591,o),
(820,1591,cs),
(883,1591,o),
(908,1532,o),
(971,1532,cs),
(995,1532,o),
(1025,1542,o),
(1050,1577,cs),
(1098,1643,ls),
(1119,1672,o),
(1126,1696,o),
(1126,1719,cs),
(1126,1838,o),
(928,1887,o),
(806,1887,cs),
(537,1887,o),
(401,1699,o),
(401,1499,cs),
(401,-159,ls),
(401,-251,o),
(387,-317,o),
(322,-317,cs),
(259,-317,o),
(234,-258,o),
(171,-258,cs),
(147,-258,o),
(117,-268,o),
(92,-303,cs),
(44,-369,ls),
(23,-398,o),
(16,-422,o),
(16,-445,cs),
(16,-564,o),
(214,-613,o),
(336,-613,cs)
);
}
);
width = 1143;
},
{
guides = (
{
pos = (-30,2003);
}
);
layerId = m001;
shapes = (
{
closed = 1;
nodes = (
(467,-543,o),
(571,-385,o),
(571,-212,cs),
(571,1513,ls),
(571,1621,o),
(593,1749,o),
(730,1749,cs),
(808,1749,o),
(853,1696,o),
(874,1696,cs),
(883,1696,o),
(890,1701,o),
(899,1713,cs),
(946,1777,ls),
(955,1790,o),
(958,1796,o),
(958,1804,cs),
(958,1850,o),
(828,1913,o),
(716,1913,cs),
(495,1913,o),
(391,1755,o),
(391,1582,cs),
(391,-143,ls),
(391,-251,o),
(369,-379,o),
(232,-379,cs),
(154,-379,o),
(109,-326,o),
(88,-326,cs),
(79,-326,o),
(72,-331,o),
(63,-343,cs),
(16,-407,ls),
(7,-420,o),
(4,-426,o),
(4,-434,cs),
(4,-480,o),
(134,-543,o),
(246,-543,cs)
);
}
);
width = 963;
},
{
guides = (
{
pos = (0,2003);
}
);
layerId = m002;
shapes = (
{
closed = 1;
nodes = (
(516,-568,o),
(631,-396,o),
(631,-182,cs),
(631,1513,ls),
(631,1616,o),
(649,1724,o),
(760,1724,cs),
(836,1724,o),
(874,1663,o),
(911,1663,cs),
(924,1663,o),
(936,1670,o),
(950,1690,cs),
(997,1758,ls),
(1010,1777,o),
(1016,1794,o),
(1016,1810,cs),
(1016,1901,o),
(835,1938,o),
(746,1938,cs),
(506,1938,o),
(391,1766,o),
(391,1582,cs),
(391,-143,ls),
(391,-246,o),
(373,-354,o),
(262,-354,cs),
(186,-354,o),
(148,-293,o),
(111,-293,cs),
(98,-293,o),
(86,-300,o),
(72,-320,cs),
(25,-388,ls),
(12,-407,o),
(6,-424,o),
(6,-440,cs),
(6,-522,o),
(187,-568,o),
(276,-568,cs)
);
}
);
width = 1023;
}
);
unicode = 8747;
userData = {
KernOnSpecialSpacing = {
L = math;
R = math;
};
};
}
{
color = 3;
glyphname = lessequal;
layers = (
{
background = {
shapes = (
{
closed = 1;
nodes = (
(1175,371,o),
(1206,387,o),
(1220,426,cs),
(1239,480,ls),
(1248,505,o),
(1250,516,o),
(1250,527,cs),
(1249,564,o),
(1223,596,o),
(1185,606,cs),
(545,787,l),
(1197,983,ls),
(1238,995,o),
(1259,1025,o),
(1259,1062,cs),
(1259,1076,o),
(1255,1092,o),
(1250,1106,cs),
(1230,1168,ls),
(1219,1203,o),
(1190,1219,o),
(1158,1219,cs),
(1142,1219,o),
(1129,1215,o),
(1108,1207,cs),
(233,916,ls),
(159,891,o),
(149,845,o),
(149,782,cs),
(149,720,o),
(155,672,o),
(229,649,cs),
(1106,380,ls),
(1122,375,o),
(1133,371,o),
(1145,371,cs)
);
},
{
closed = 1;
nodes = (
(1186,0,ls),
(1227,0,o),
(1262,29,o),
(1262,73,cs),
(1262,187,ls),
(1262,229,o),
(1227,258,o),
(1186,258,cs),
(238,258,ls),
(198,258,o),
(163,229,o),
(163,192,cs),
(163,67,ls),
(163,28,o),
(198,0,o),
(238,0,cs)
);
}
);
};
guides = (
{
pos = (1355,258);
},
{
angle = 90;
pos = (122,0);
},
{
angle = 90;
pos = (1216,0);
}
);
layerId = "997F8AB0-1B91-48A1-A6B5-F95345F1D981";
shapes = (
{
closed = 1;
nodes = (
(1149,389,o),
(1186,426,o),
(1195,463,cs),
(1211,524,ls),
(1228,589,o),
(1196,633,o),
(1135,648,cs),
(309,852,l),
(309,762,l),
(1135,966,ls),
(1196,981,o),
(1228,1025,o),
(1211,1090,cs),
(1195,1151,ls),
(1186,1188,o),
(1149,1225,o),
(1099,1225,cs),
(1079,1225,o),
(1060,1220,o),
(1035,1212,cs),
(199,957,ls),
(120,933,o),
(122,867,o),
(122,807,cs),
(122,747,o),
(120,681,o),
(199,657,cs),
(1035,402,ls),
(1060,394,o),
(1079,389,o),
(1099,389,cs)
);
},
{
pos = (0,-453);
ref = minus;
}
);
width = 1393;
},
{
background = {
shapes = (
{
closed = 1;
nodes = (
(1096,381,o),
(1106,387,o),
(1113,407,cs),
(1131,462,ls),
(1138,481,o),
(1140,491,o),
(1140,496,cs),
(1139,516,o),
(1129,531,o),
(1112,536,cs),
(326,767,l),
(1123,1015,ls),
(1142,1021,o),
(1149,1035,o),
(1149,1054,cs),
(1149,1063,o),
(1146,1073,o),
(1142,1086,cs),
(1122,1151,ls),
(1117,1167,o),
(1111,1171,o),
(1098,1171,cs),
(1090,1171,o),
(1083,1168,o),
(1064,1161,cs),
(196,861,ls),
(145,843,o),
(139,817,o),
(139,762,cs),
(139,708,o),
(143,681,o),
(191,666,cs),
(1063,387,ls),
(1075,383,o),
(1081,381,o),
(1085,381,cs)
);
},
{
closed = 1;
nodes = (
(1126,25,ls),
(1140,25,o),
(1152,36,o),
(1152,55,cs),
(1152,144,ls),
(1152,161,o),
(1140,172,o),
(1126,172,cs),
(178,172,ls),
(164,172,o),
(153,162,o),
(153,149,cs),
(153,49,ls),
(153,35,o),
(164,25,o),
(178,25,cs)
);
}
);
};
guides = (
{
angle = 90;
pos = (131,0);
},
{
angle = 90;
pos = (1131,0);
}
);
layerId = m001;
shapes = (
{
closed = 1;
nodes = (
(1096,390,o),
(1108,410,o),
(1112,426,cs),
(1128,488,ls),
(1136,518,o),
(1128,542,o),
(1092,552,cs),
(281,782,l),
(281,754,l),
(1092,984,ls),
(1128,994,o),
(1136,1018,o),
(1128,1048,cs),
(1112,1110,ls),
(1108,1126,o),
(1096,1146,o),
(1074,1146,cs),
(1062,1146,o),
(1053,1143,o),
(1030,1136,cs),
(189,869,ls),
(138,853,o),
(131,821,o),
(131,768,cs),
(131,715,o),
(138,683,o),
(189,667,cs),
(1030,400,ls),
(1053,393,o),
(1062,390,o),
(1074,390,cs)
);
},
{
pos = (0,-525);
ref = minus;
}
);
width = 1293;
},
{
background = {
shapes = (
{
closed = 1;
nodes = (
(1138,356,o),
(1160,367,o),
(1171,399,cs),
(1189,454,ls),
(1197,476,o),
(1200,487,o),
(1200,496,cs),
(1199,523,o),
(1184,550,o),
(1150,560,cs),
(444,768,l),
(1162,991,ls),
(1196,1002,o),
(1209,1027,o),
(1209,1054,cs),
(1209,1066,o),
(1205,1080,o),
(1201,1093,cs),
(1181,1158,ls),
(1172,1187,o),
(1150,1196,o),
(1128,1196,cs),
(1114,1196,o),
(1100,1191,o),
(1084,1185,cs),
(213,884,ls),
(149,855,o),
(139,822,o),
(139,762,cs),
(139,704,o),
(147,670,o),
(209,643,cs),
(1072,367,ls),
(1088,362,o),
(1101,356,o),
(1115,356,cs)
);
},
{
closed = 1;
nodes = (
(1156,0,ls),
(1187,0,o),
(1212,22,o),
(1212,55,cs),
(1212,144,ls),
(1212,175,o),
(1187,197,o),
(1156,197,cs),
(208,197,ls),
(178,197,o),
(153,175,o),
(153,149,cs),
(153,49,ls),
(153,22,o),
(178,0,o),
(208,0,cs)
);
}
);
};
guides = (
{
angle = 90;
pos = (132,0);
},
{
angle = 90;
pos = (1146,0);
}
);
layerId = m002;
shapes = (
{
closed = 1;
nodes = (
(1089,360,o),
(1117,387,o),
(1125,419,cs),
(1141,480,ls),
(1155,533,o),
(1130,565,o),
(1082,580,cs),
(251,831,l),
(251,725,l),
(1082,976,ls),
(1130,991,o),
(1155,1023,o),
(1141,1076,cs),
(1125,1137,ls),
(1117,1169,o),
(1089,1196,o),
(1053,1196,cs),
(1036,1196,o),
(1022,1193,o),
(997,1184,cs),
(192,902,ls),
(130,880,o),
(132,831,o),
(132,778,cs),
(132,725,o),
(130,676,o),
(192,654,cs),
(997,372,ls),
(1022,363,o),
(1036,360,o),
(1053,360,cs)
);
},
{
pos = (0,-498);
ref = minus;
}
);
width = 1323;
}
);
unicode = 8804;
userData = {
KernOnSpecialSpacing = {
L = math;
R = math;
};
};
}
{
color = 6;
export = 0;
glyphname = _viet.acutecomb;
layers = (
{
anchors = (
{
name = _floor2;
pos = (177,1533);
}
);
layerId = "997F8AB0-1B91-48A1-A6B5-F95345F1D981";
shapes = (
{
closed = 1;
nodes = (
(395,1857,ls),
(439,1901,o),
(444,1942,o),
(395,1977,cs),
(329,2025,ls),
(284,2056,o),
(251,2048,o),
(222,1999,cs),
(80,1757,ls),
(64,1729,o),
(63,1709,o),
(90,1690,cs),
(131,1661,ls),
(153,1646,o),
(171,1635,o),
(191,1655,cs)
);
}
);
width = 481;
},
{
anchors = (
{
name = _floor2;
pos = (187,1533);
}
);
layerId = m001;
shapes = (
{
closed = 1;
nodes = (
(385,1875,ls),
(412,1900,o),
(412,1921,o),
(386,1944,cs),
(335,1990,ls),
(311,2012,o),
(282,2011,o),
(263,1982,cs),
(115,1752,ls),
(106,1738,o),
(104,1725,o),
(116,1713,cs),
(137,1693,ls),
(153,1677,o),
(164,1677,o),
(182,1693,cs)
);
}
);
width = 455;
},
{
anchors = (
{
name = _floor2;
pos = (161,1533);
}
);
layerId = m002;
shapes = (
{
closed = 1;
nodes = (
(400,1899,ls),
(433,1931,o),
(424,1966,o),
(397,1987,cs),
(332,2037,ls),
(289,2070,o),
(247,2046,o),
(228,2014,cs),
(67,1746,ls),
(57,1729,o),
(60,1710,o),
(80,1692,cs),
(105,1670,ls),
(126,1652,o),
(146,1653,o),
(167,1673,cs)
);
}
);
width = 472;
}
);
}
{
color = 6;
export = 0;
glyphname = _viet.circumflexcomb.case;
layers = (
{
anchors = (
{
name = _top;
pos = (449,1533);
},
{
name = floor1;
pos = (727,1773);
},
{
name = floor2;
pos = (740,1773);
},
{
name = top;
pos = (449,1879);
}
);
background = {
shapes = (
{
closed = 1;
nodes = (
(194,1623,o),
(206,1628,o),
(223,1641,cs),
(441,1802,l),
(659,1641,ls),
(676,1628,o),
(688,1623,o),
(703,1623,cs),
(718,1623,o),
(735,1627,o),
(746,1640,cs),
(797,1697,ls),
(812,1714,o),
(819,1727,o),
(819,1746,cs),
(819,1762,o),
(810,1775,o),
(798,1786,cs),
(601,1967,ls),
(571,1995,o),
(537,2017,o),
(500,2017,cs),
(382,2017,ls),
(345,2017,o),
(311,1995,o),
(281,1967,cs),
(84,1786,ls),
(72,1775,o),
(63,1762,o),
(63,1746,cs),
(63,1727,o),
(70,1714,o),
(85,1697,cs),
(136,1640,ls),
(147,1627,o),
(164,1623,o),
(179,1623,cs)
);
}
);
};
hints = (
{
name = _corner.round;
origin = (0,1);
scale = (-0.9,0.9);
type = Corner;
},
{
name = _corner.round;
origin = (0,2);
scale = (0.9,0.9);
type = Corner;
},
{
name = _corner.round;
origin = (0,11);
scale = (0.9,0.9);
type = Corner;
},
{
name = _corner.round;
origin = (0,12);
scale = (-0.9,0.9);
type = Corner;
}
);
layerId = "997F8AB0-1B91-48A1-A6B5-F95345F1D981";
shapes = (
{
closed = 1;
nodes = (
(449,1808,l),
(720,1599,l),
(861,1749,l),
(614,1967,ls),
(583,1994,o),
(545,2017,o),
(498,2017,cs),
(400,2017,ls),
(353,2017,o),
(315,1994,o),
(284,1967,cs),
(37,1749,l),
(178,1599,l)
);
}
);
width = 864;
},
{
anchors = (
{
name = _top;
pos = (433,1533);
},
{
name = floor1;
pos = (730,1803);
},
{
name = floor2;
pos = (690,1803);
},
{
name = top;
pos = (431,1889);
}
);
background = {
hints = (
{
name = _corner.round;
origin = (0,1);
scale = (-1,1);
type = Corner;
},
{
name = _corner.round;
origin = (0,2);
scale = (-1,1);
type = Corner;
},
{
name = _corner.round;
origin = (0,11);
scale = (-1,1);
type = Corner;
},
{
name = _corner.round;
origin = (0,12);
scale = (-1,1);
type = Corner;
}
);
shapes = (
{
closed = 1;
nodes = (
(431,1832,l),
(698,1650,l),
(775,1741,l),
(526,1955,ls),
(508,1971,o),
(488,1984,o),
(462,1984,cs),
(400,1984,ls),
(374,1984,o),
(354,1971,o),
(336,1955,cs),
(87,1741,l),
(164,1650,l)
);
}
);
};
hints = (
{
name = _corner.round;
origin = (0,1);
scale = (-1,1);
type = Corner;
},
{
name = _corner.round;
origin = (0,2);
scale = (-1,1);
type = Corner;
},
{
name = _corner.round;
origin = (0,11);
scale = (-1,1);
type = Corner;
},
{
name = _corner.round;
origin = (0,12);
scale = (-1,1);
type = Corner;
}
);
layerId = m001;
shapes = (
{
closed = 1;
nodes = (
(431,1850,l),
(698,1665,l),
(773,1750,l),
(516,1968,ls),
(498,1984,o),
(482,1992,o),
(456,1992,cs),
(406,1992,ls),
(380,1992,o),
(364,1984,o),
(346,1968,cs),
(89,1750,l),
(164,1665,l)
);
}
);
width = 853;
},
{
anchors = (
{
name = _top;
pos = (426,1533);
},
{
name = floor1;
pos = (789,1800);
},
{
name = floor2;
pos = (716,1800);
},
{
name = top;
pos = (426,1869);
}
);
background = {
shapes = (
{
closed = 1;
nodes = (
(165,1645,o),
(174,1651,o),
(186,1660,cs),
(426,1829,l),
(666,1660,ls),
(678,1651,o),
(687,1645,o),
(698,1645,cs),
(709,1645,o),
(720,1649,o),
(733,1663,cs),
(779,1711,ls),
(797,1730,o),
(802,1741,o),
(802,1751,cs),
(802,1762,o),
(797,1770,o),
(789,1777,cs),
(571,1980,ls),
(547,2003,o),
(520,2025,o),
(485,2025,cs),
(367,2025,ls),
(332,2025,o),
(305,2003,o),
(281,1980,cs),
(63,1777,ls),
(55,1770,o),
(50,1762,o),
(50,1751,cs),
(50,1741,o),
(55,1730,o),
(73,1711,cs),
(119,1663,ls),
(132,1649,o),
(143,1645,o),
(154,1645,cs)
);
}
);
};
hints = (
{
name = _corner.round;
origin = (0,1);
scale = (-1,1);
type = Corner;
},
{
name = _corner.round;
origin = (0,2);
scale = (-1,1);
type = Corner;
},
{
name = _corner.round;
origin = (0,11);
scale = (-1,1);
type = Corner;
},
{
name = _corner.round;
origin = (0,12);
scale = (-1,1);
type = Corner;
}
);
layerId = m002;
shapes = (
{
closed = 1;
nodes = (
(426,1821,l),
(702,1645,l),
(804,1774,l),
(569,1973,ls),
(543,1995,o),
(510,2013,o),
(465,2013,cs),
(387,2013,ls),
(342,2013,o),
(309,1995,o),
(283,1973,cs),
(48,1774,l),
(150,1645,l)
);
}
);
width = 853;
}
);
}
{
color = 6;
export = 0;
glyphname = _viet.circumflexcomb;
layers = (
{
anchors = (
{
name = floor1;
pos = (724,1493);
},
{
name = floor2;
pos = (772,1493);
},
{
name = top;
pos = (441,1533);
}
);
background = {
shapes = (
{
closed = 1;
nodes = (
(441,1471,l),
(640,1294,ls),
(663,1273,o),
(690,1272,o),
(719,1297,cs),
(774,1346,ls),
(806,1374,o),
(812,1403,o),
(777,1439,cs),
(581,1642,ls),
(555,1669,o),
(532,1684,o),
(480,1684,cs),
(402,1684,ls),
(350,1684,o),
(327,1669,o),
(301,1642,cs),
(105,1439,ls),
(70,1403,o),
(76,1374,o),
(108,1346,cs),
(163,1297,ls),
(192,1272,o),
(219,1273,o),
(242,1294,cs)
);
}
);
};
hints = (
{
name = _corner.round;
origin = (0,1);
scale = (-0.8,0.8);
type = Corner;
},
{
name = _corner.round;
origin = (0,2);
scale = (0.8,0.8);
type = Corner;
},
{
name = _corner.round;
origin = (0,11);
scale = (0.8,0.8);
type = Corner;
},
{
name = _corner.round;
origin = (0,12);
scale = (-0.8,0.8);
type = Corner;
}
);
layerId = "997F8AB0-1B91-48A1-A6B5-F95345F1D981";
shapes = (
{
closed = 1;
nodes = (
(441,1479,l),
(678,1260,l),
(824,1391,l),
(588,1624,ls),
(558,1654,o),
(524,1675,o),
(477,1675,cs),
(405,1675,ls),
(358,1675,o),
(324,1654,o),
(294,1624,cs),
(58,1391,l),
(204,1260,l)
);
}
);
width = 885;
},
{
anchors = (
{
name = floor1;
pos = (656,1475);
},
{
name = floor2;
pos = (704,1475);
},
{
name = top;
pos = (427,1533);
}
);
background = {
shapes = (
{
closed = 1;
nodes = (
(427,1522,l),
(642,1330,ls),
(664,1311,o),
(676,1309,o),
(696,1330,cs),
(726,1360,ls),
(740,1374,o),
(742,1393,o),
(726,1411,cs),
(532,1625,ls),
(510,1649,o),
(492,1662,o),
(466,1662,cs),
(388,1662,ls),
(362,1662,o),
(344,1649,o),
(322,1625,cs),
(128,1411,ls),
(112,1393,o),
(114,1374,o),
(129,1360,cs),
(159,1329,ls),
(178,1309,o),
(190,1311,o),
(212,1330,cs)
);
}
);
};
hints = (
{
name = _corner.round;
origin = (0,1);
scale = (-1,1);
type = Corner;
},
{
name = _corner.round;
origin = (0,2);
type = Corner;
},
{
name = _corner.round;
origin = (0,11);
type = Corner;
},
{
name = _corner.round;
origin = (0,12);
scale = (-1,1);
type = Corner;
}
);
layerId = m001;
shapes = (
{
closed = 1;
nodes = (
(427,1522,l),
(668,1304,l),
(750,1388,l),
(556,1604,ls),
(521,1643,o),
(504,1662,o),
(457,1662,cs),
(397,1662,ls),
(350,1662,o),
(333,1643,o),
(298,1604,cs),
(104,1388,l),
(186,1304,l)
);
}
);
width = 853;
},
{
anchors = (
{
name = floor1;
pos = (681,1481);
},
{
name = floor2;
pos = (726,1481);
},
{
name = top;
pos = (427,1534);
}
);
background = {
shapes = (
{
closed = 1;
nodes = (
(427,1500,l),
(641,1300,ls),
(659,1283,o),
(681,1287,o),
(700,1306,cs),
(752,1359,ls),
(777,1385,o),
(768,1405,o),
(754,1421,cs),
(562,1637,ls),
(535,1667,o),
(513,1684,o),
(475,1684,cs),
(379,1684,ls),
(341,1684,o),
(319,1667,o),
(292,1637,cs),
(100,1421,ls),
(86,1405,o),
(77,1385,o),
(102,1359,cs),
(154,1306,ls),
(173,1287,o),
(195,1283,o),
(213,1300,cs)
);
}
);
};
hints = (
{
name = _corner.round;
origin = (0,1);
scale = (-1,1);
type = Corner;
},
{
name = _corner.round;
origin = (0,2);
type = Corner;
},
{
name = _corner.round;
origin = (0,11);
type = Corner;
},
{
name = _corner.round;
origin = (0,12);
scale = (-1,1);
type = Corner;
}
);
layerId = m002;
shapes = (
{
closed = 1;
nodes = (
(427,1500,l),
(668,1273,l),
(785,1392,l),
(579,1618,ls),
(545,1655,o),
(512,1682,o),
(465,1682,cs),
(389,1682,ls),
(342,1682,o),
(309,1655,o),
(275,1618,cs),
(69,1392,l),
(186,1273,l)
);
}
);
width = 853;
}
);
}
{
color = 10;
glyphname = circumflexcomb_acutecomb.case;
layers = (
{
background = {
shapes = (
{
closed = 1;
nodes = (
(194,1613,o),
(206,1618,o),
(223,1631,cs),
(441,1802,l),
(659,1631,ls),
(676,1618,o),
(688,1613,o),
(703,1613,cs),
(718,1613,o),
(735,1615,o),
(746,1628,cs),
(805,1697,ls),
(820,1714,o),
(827,1721,o),
(827,1740,cs),
(827,1756,o),
(818,1775,o),
(806,1786,cs),
(601,1977,ls),
(571,2005,o),
(537,2027,o),
(500,2027,cs),
(382,2027,ls),
(345,2027,o),
(311,2005,o),
(281,1977,cs),
(76,1786,ls),
(64,1775,o),
(55,1756,o),
(55,1740,cs),
(55,1721,o),
(62,1714,o),
(77,1697,cs),
(136,1628,ls),
(147,1615,o),
(164,1613,o),
(179,1613,cs)
);
},
{
closed = 1;
nodes = (
(748,1975,o),
(777,1978,o),
(801,2000,cs),
(1054,2228,ls),
(1103,2272,o),
(1094,2320,o),
(1059,2349,cs),
(982,2413,ls),
(939,2448,o),
(894,2438,o),
(859,2387,cs),
(667,2104,ls),
(653,2084,o),
(653,2054,o),
(676,2035,cs),
(718,2000,ls)
);
}
);
};
layerId = "997F8AB0-1B91-48A1-A6B5-F95345F1D981";
shapes = (
{
ref = _viet.circumflexcomb.case;
},
{
pos = (528,0);
ref = _viet.acutecomb.case;
}
);
width = 864;
},
{
background = {
shapes = (
{
closed = 1;
nodes = (
(660,1649,o),
(664,1651,o),
(670,1656,cs),
(717,1693,ls),
(725,1699,o),
(727,1703,o),
(727,1710,cs),
(727,1715,o),
(725,1720,o),
(721,1725,cs),
(541,1955,ls),
(520,1982,o),
(503,1990,o),
(477,1990,cs),
(380,1990,ls),
(356,1990,o),
(336,1978,o),
(318,1956,cs),
(130,1725,ls),
(126,1720,o),
(124,1715,o),
(124,1710,cs),
(124,1703,o),
(126,1699,o),
(134,1693,cs),
(181,1656,ls),
(187,1651,o),
(191,1649,o),
(197,1649,cs),
(203,1649,o),
(207,1652,o),
(214,1659,cs),
(427,1860,l),
(637,1659,ls),
(644,1652,o),
(648,1649,o),
(654,1649,cs)
);
},
{
closed = 1;
nodes = (
(729,2028,o),
(733,2031,o),
(739,2037,cs),
(965,2259,ls),
(976,2270,o),
(979,2284,o),
(978,2291,cs),
(977,2296,o),
(976,2298,o),
(972,2301,cs),
(897,2361,ls),
(892,2365,o),
(889,2366,o),
(880,2364,cs),
(875,2363,o),
(868,2357,o),
(861,2347,cs),
(681,2086,ls),
(676,2079,o),
(675,2075,o),
(675,2071,cs),
(675,2067,o),
(677,2063,o),
(683,2058,cs),
(708,2034,ls),
(713,2030,o),
(716,2028,o),
(722,2028,cs)
);
}
);
};
layerId = m001;
shapes = (
{
ref = _viet.circumflexcomb.case;
},
{
pos = (536,29);
ref = _viet.acutecomb.case;
}
);
width = 853;
},
{
background = {
shapes = (
{
closed = 1;
nodes = (
(664,1623,o),
(674,1630,o),
(686,1639,cs),
(737,1680,ls),
(748,1690,o),
(753,1700,o),
(753,1710,cs),
(753,1720,o),
(748,1730,o),
(740,1741,cs),
(560,1969,ls),
(536,1998,o),
(512,2013,o),
(477,2013,cs),
(380,2013,ls),
(347,2013,o),
(319,1995,o),
(299,1971,cs),
(111,1740,ls),
(104,1732,o),
(98,1720,o),
(98,1709,cs),
(98,1700,o),
(101,1693,o),
(115,1682,cs),
(169,1636,ls),
(177,1629,o),
(187,1624,o),
(197,1624,cs),
(207,1624,o),
(217,1629,o),
(227,1638,cs),
(427,1827,l),
(630,1633,ls),
(639,1626,o),
(646,1623,o),
(654,1623,cs)
);
},
{
closed = 1;
nodes = (
(735,2003,o),
(742,2007,o),
(748,2012,cs),
(983,2242,ls),
(1002,2261,o),
(1005,2281,o),
(1002,2295,cs),
(1000,2305,o),
(995,2312,o),
(988,2318,cs),
(914,2377,ls),
(906,2384,o),
(892,2389,o),
(875,2385,cs),
(865,2383,o),
(851,2375,o),
(840,2359,cs),
(656,2093,ls),
(649,2083,o),
(644,2073,o),
(646,2063,cs),
(648,2058,o),
(651,2053,o),
(656,2049,cs),
(704,2007,ls),
(711,2001,o),
(718,1999,o),
(728,2001,cs)
);
}
);
};
layerId = m002;
shapes = (
{
ref = _viet.circumflexcomb.case;
},
{
pos = (616,27);
ref = _viet.acutecomb.case;
}
);
width = 853;
}
);
}
{
color = 6;
glyphname = commaaccentcomb.comb.case;
layers = (
{
anchors = (
{
name = _bottom;
pos = (304,0);
},
{
name = bottom;
pos = (304,-550);
}
);
background = {
shapes = (
{
closed = 1;
nodes = (
(317,-604,o),
(356,-572,o),
(383,-533,cs),
(446,-447,o),
(494,-361,o),
(494,-262,cs),
(494,-152,o),
(400,-80,o),
(300,-80,cs),
(217,-80,o),
(114,-125,o),
(114,-230,cs),
(114,-291,o),
(153,-343,o),
(205,-365,c),
(194,-400,o),
(169,-447,o),
(162,-460,cs),
(151,-478,o),
(143,-495,o),
(143,-515,cs),
(143,-541,o),
(155,-562,o),
(186,-578,cs),
(219,-593,ls),
(235,-601,o),
(253,-604,o),
(265,-604,cs)
);
}
);
};
layerId = "997F8AB0-1B91-48A1-A6B5-F95345F1D981";
shapes = (
{
closed = 1;
nodes = (
(317,-636,o),
(356,-604,o),
(383,-565,cs),
(446,-479,o),
(494,-393,o),
(494,-294,cs),
(494,-184,o),
(400,-112,o),
(300,-112,cs),
(217,-112,o),
(114,-157,o),
(114,-262,cs),
(114,-323,o),
(153,-375,o),
(205,-397,c),
(194,-432,o),
(169,-479,o),
(162,-492,cs),
(151,-510,o),
(143,-527,o),
(143,-547,cs),
(143,-573,o),
(155,-594,o),
(186,-610,cs),
(219,-625,ls),
(235,-633,o),
(253,-636,o),
(265,-636,cs)
);
}
);
width = 593;
},
{
anchors = (
{
name = _bottom;
pos = (264,0);
},
{
name = bottom;
pos = (264,-568);
}
);
background = {
shapes = (
{
closed = 1;
nodes = (
(251,-545,o),
(271,-525,o),
(289,-498,cs),
(348,-414,o),
(389,-338,o),
(389,-252,cs),
(389,-174,o),
(327,-125,o),
(260,-125,cs),
(200,-125,o),
(139,-153,o),
(139,-220,cs),
(139,-268,o),
(176,-307,o),
(215,-312,c),
(237,-337,l),
(234,-377,o),
(191,-463,o),
(179,-485,cs),
(173,-495,o),
(168,-504,o),
(168,-513,cs),
(168,-520,o),
(171,-522,o),
(175,-524,cs),
(208,-540,ls),
(216,-544,o),
(219,-545,o),
(225,-545,cs)
);
}
);
};
layerId = m001;
shapes = (
{
closed = 1;
nodes = (
(258,-547,o),
(267,-536,o),
(284,-515,cs),
(361,-421,o),
(395,-338,o),
(395,-269,cs),
(395,-174,o),
(333,-125,o),
(260,-125,cs),
(201,-125,o),
(145,-167,o),
(145,-229,cs),
(145,-278,o),
(179,-322,o),
(243,-328,c),
(236,-374,o),
(216,-428,o),
(179,-479,cs),
(167,-496,o),
(164,-502,o),
(164,-509,cs),
(164,-519,o),
(170,-523,o),
(187,-531,cs),
(206,-540,ls),
(214,-544,o),
(222,-547,o),
(234,-547,cs)
);
}
);
width = 513;
},
{
anchors = (
{
name = _bottom;
pos = (264,0);
},
{
name = bottom;
pos = (264,-568);
}
);
background = {
shapes = (
{
closed = 1;
nodes = (
(263,-568,o),
(291,-539,o),
(310,-511,cs),
(371,-424,o),
(414,-344,o),
(414,-252,cs),
(414,-161,o),
(340,-102,o),
(260,-102,cs),
(191,-102,o),
(114,-137,o),
(114,-220,cs),
(114,-279,o),
(159,-328,o),
(212,-335,c),
(209,-372,o),
(168,-454,o),
(157,-474,cs),
(151,-484,o),
(143,-498,o),
(143,-513,cs),
(143,-525,o),
(148,-537,o),
(164,-545,cs),
(197,-561,ls),
(207,-566,o),
(216,-568,o),
(225,-568,cs)
);
}
);
};
layerId = m002;
shapes = (
{
closed = 1;
nodes = (
(263,-588,o),
(291,-559,o),
(310,-531,cs),
(371,-444,o),
(414,-364,o),
(414,-272,cs),
(414,-181,o),
(340,-122,o),
(260,-122,cs),
(191,-122,o),
(114,-157,o),
(114,-240,cs),
(114,-299,o),
(159,-348,o),
(212,-355,c),
(209,-392,o),
(168,-474,o),
(157,-494,cs),
(151,-504,o),
(143,-518,o),
(143,-533,cs),
(143,-545,o),
(148,-557,o),
(164,-565,cs),
(197,-581,ls),
(207,-586,o),
(216,-588,o),
(225,-588,cs)
);
}
);
width = 513;
}
);
}
{
color = 6;
glyphname = dieresiscomb.case;
layers = (
{
anchors = (
{
name = _top;
pos = (447,1533);
},
{
name = top;
pos = (447,1962);
}
);
background = {
shapes = (
{
closed = 1;
nodes = (
(717,1646,o),
(774,1701,o),
(758,1786,cs),
(741,1870,o),
(657,1951,o),
(569,1968,cs),
(480,1985,o),
(423,1931,o),
(440,1846,cs),
(456,1761,o),
(540,1680,o),
(629,1663,cs)
);
},
{
closed = 1;
nodes = (
(413,1646,o),
(471,1700,o),
(454,1786,cs),
(438,1869,o),
(354,1951,o),
(267,1968,cs),
(177,1985,o),
(120,1930,o),
(136,1846,cs),
(152,1762,o),
(236,1680,o),
(327,1663,cs)
);
}
);
};
layerId = "997F8AB0-1B91-48A1-A6B5-F95345F1D981";
shapes = (
{
closed = 1;
nodes = (
(769,1658,o),
(844,1731,o),
(844,1825,cs),
(844,1918,o),
(769,1990,o),
(680,1990,cs),
(591,1990,o),
(516,1918,o),
(516,1825,cs),
(516,1731,o),
(591,1658,o),
(680,1658,cs)
);
},
{
closed = 1;
nodes = (
(303,1658,o),
(378,1731,o),
(378,1825,cs),
(378,1918,o),
(304,1990,o),
(216,1990,cs),
(125,1990,o),
(50,1918,o),
(50,1825,cs),
(50,1731,o),
(125,1658,o),
(216,1658,cs)
);
}
);
width = 894;
},
{
anchors = (
{
name = _top;
pos = (427,1533);
},
{
name = top;
pos = (427,1972);
}
);
layerId = m001;
shapes = (
{
closed = 1;
nodes = (
(748,1721,o),
(804,1778,o),
(804,1851,cs),
(804,1923,o),
(748,1979,o),
(680,1979,cs),
(612,1979,o),
(556,1923,o),
(556,1851,cs),
(556,1778,o),
(612,1721,o),
(680,1721,cs)
);
},
{
closed = 1;
nodes = (
(241,1721,o),
(298,1778,o),
(298,1851,cs),
(298,1923,o),
(242,1979,o),
(176,1979,cs),
(106,1979,o),
(50,1922,o),
(50,1851,cs),
(50,1779,o),
(105,1721,o),
(176,1721,cs)
);
}
);
width = 854;
},
{
anchors = (
{
name = _top;
pos = (452,1533);
},
{
name = top;
pos = (452,1972);
}
);
layerId = m002;
shapes = (
{
closed = 1;
nodes = (
(787,1668,o),
(854,1736,o),
(854,1821,cs),
(854,1905,o),
(787,1972,o),
(705,1972,cs),
(623,1972,o),
(556,1905,o),
(556,1821,cs),
(556,1736,o),
(623,1668,o),
(705,1668,cs)
);
},
{
closed = 1;
nodes = (
(281,1668,o),
(348,1736,o),
(348,1821,cs),
(348,1905,o),
(281,1972,o),
(201,1972,cs),
(117,1972,o),
(50,1905,o),
(50,1821,cs),
(50,1736,o),
(117,1668,o),
(201,1668,cs)
);
}
);
width = 904;
}
);
userData = {
KernOnSpecialSpacing = {
L = NoKerning;
R = NoKerning;
};
};
}
{
color = 6;
glyphname = dotaccentcomb.case;
layers = (
{
anchors = (
{
name = _top;
pos = (308,1537);
},
{
name = top;
pos = (308,1982);
}
);
layerId = "997F8AB0-1B91-48A1-A6B5-F95345F1D981";
shapes = (
{
closed = 1;
nodes = (
(420,1643,o),
(511,1727,o),
(511,1837,cs),
(511,1947,o),
(420,2030,o),
(308,2030,cs),
(195,2030,o),
(104,1947,o),
(104,1837,cs),
(104,1727,o),
(195,1643,o),
(308,1643,cs)
);
}
);
width = 593;
},
{
anchors = (
{
name = _top;
pos = (268,1533);
},
{
name = top;
pos = (268,1992);
}
);
guides = (
{
angle = 90;
pos = (257,0);
}
);
layerId = m001;
shapes = (
{
closed = 1;
nodes = (
(344,1720,o),
(406,1780,o),
(406,1860,cs),
(406,1940,o),
(344,1999,o),
(268,1999,cs),
(191,1999,o),
(129,1940,o),
(129,1860,cs),
(129,1780,o),
(191,1720,o),
(268,1720,cs)
);
}
);
width = 513;
},
{
anchors = (
{
name = _top;
pos = (268,1533);
},
{
name = top;
pos = (268,1992);
}
);
guides = (
{
angle = 90;
pos = (257,0);
}
);
layerId = m002;
shapes = (
{
closed = 1;
nodes = (
(358,1667,o),
(431,1737,o),
(431,1830,cs),
(431,1923,o),
(358,1992,o),
(268,1992,cs),
(177,1992,o),
(104,1923,o),
(104,1830,cs),
(104,1737,o),
(177,1667,o),
(268,1667,cs)
);
}
);
width = 513;
}
);
userData = {
KernOnSpecialSpacing = {
L = NoKerning;
R = NoKerning;
};
};
}
{
color = 6;
glyphname = hookabovecomb.case;
layers = (
{
anchors = (
{
name = _top;
pos = (328,1533);
},
{
name = top;
pos = (328,2109);
}
);
background = {
shapes = (
{
closed = 1;
nodes = (
(480,1281,o),
(574,1362,o),
(574,1507,cs),
(574,1632,o),
(478,1728,o),
(307,1728,cs),
(196,1728,o),
(81,1676,o),
(81,1605,cs),
(81,1589,o),
(86,1574,o),
(95,1548,cs),
(97,1540,l),
(97,1539,l),
(95,1548,l),
(109,1511,o),
(130,1489,o),
(154,1489,cs),
(166,1489,o),
(178,1493,o),
(204,1503,cs),
(224,1511,o),
(255,1522,o),
(284,1522,cs),
(326,1522,o),
(358,1511,o),
(358,1463,cs),
(358,1402,o),
(327,1367,o),
(290,1326,cs),
(289,1325,l),
(291,1327,o),
(285,1321,o),
(283,1319,cs),
(281,1317,o),
(276,1312,o),
(275,1311,cs),
(229,1262,o),
(331,1169,o),
(392,1215,cs)
);
}
);
};
layerId = "997F8AB0-1B91-48A1-A6B5-F95345F1D981";
shapes = (
{
closed = 1;
nodes = (
(495,1721,o),
(579,1806,o),
(579,1940,cs),
(579,2064,o),
(491,2163,o),
(317,2163,cs),
(200,2163,o),
(58,2095,o),
(58,2043,cs),
(58,2022,o),
(62,2004,o),
(85,1951,cs),
(94,1929,o),
(109,1921,o),
(123,1921,cs),
(136,1921,o),
(151,1926,o),
(173,1936,cs),
(207,1951,o),
(237,1962,o),
(280,1962,cs),
(338,1962,o),
(361,1928,o),
(361,1891,cs),
(361,1854,o),
(342,1827,o),
(279,1766,cs),
(263,1751,o),
(260,1739,o),
(260,1728,cs),
(260,1707,o),
(273,1686,o),
(308,1655,cs),
(335,1632,o),
(361,1631,o),
(397,1655,cs)
);
}
);
width = 640;
},
{
anchors = (
{
name = _top;
pos = (308,1533);
},
{
name = top;
pos = (308,2132);
}
);
background = {
shapes = (
{
closed = 1;
nodes = (
(456,1736,o),
(510,1810,o),
(510,1894,cs),
(510,2006,o),
(440,2089,o),
(288,2089,cs),
(195,2089,o),
(88,2043,o),
(88,2008,cs),
(88,1997,o),
(90,1982,o),
(101,1957,cs),
(110,1937,o),
(119,1925,o),
(137,1925,cs),
(144,1925,o),
(150,1928,o),
(166,1936,cs),
(190,1948,o),
(228,1966,o),
(267,1966,cs),
(336,1966,o),
(358,1925,o),
(358,1873,cs),
(358,1816,o),
(338,1788,o),
(294,1750,cs),
(274,1733,o),
(271,1728,o),
(271,1714,cs),
(271,1704,o),
(275,1698,o),
(282,1689,cs),
(306,1655,o),
(331,1645,o),
(351,1659,cs)
);
}
);
};
layerId = m001;
shapes = (
{
closed = 1;
nodes = (
(465,1742,o),
(510,1831,o),
(510,1908,cs),
(510,2008,o),
(439,2089,o),
(288,2089,cs),
(192,2089,o),
(89,2040,o),
(89,2005,cs),
(89,1994,o),
(90,1982,o),
(101,1957,cs),
(110,1937,o),
(119,1926,o),
(133,1926,cs),
(143,1926,o),
(150,1929,o),
(166,1936,cs),
(203,1952,o),
(229,1961,o),
(268,1961,cs),
(321,1961,o),
(361,1929,o),
(361,1874,cs),
(361,1819,o),
(338,1793,o),
(294,1752,cs),
(274,1734,o),
(270,1726,o),
(270,1716,cs),
(270,1706,o),
(274,1700,o),
(282,1689,cs),
(306,1655,o),
(331,1645,o),
(351,1659,cs)
);
}
);
width = 600;
},
{
anchors = (
{
name = _top;
pos = (308,1533);
},
{
name = top;
pos = (308,2132);
}
);
background = {
shapes = (
{
closed = 1;
nodes = (
(452,1704,o),
(539,1782,o),
(539,1905,cs),
(539,2022,o),
(442,2116,o),
(279,2116,cs),
(202,2116,o),
(68,2070,o),
(68,2009,cs),
(68,1996,o),
(73,1981,o),
(81,1957,cs),
(90,1932,o),
(105,1909,o),
(126,1909,cs),
(141,1909,o),
(162,1919,o),
(185,1928,cs),
(206,1936,o),
(232,1944,o),
(266,1944,cs),
(310,1944,o),
(353,1920,o),
(353,1866,cs),
(353,1821,o),
(329,1783,o),
(282,1741,cs),
(266,1727,o),
(256,1714,o),
(256,1701,cs),
(256,1686,o),
(268,1673,o),
(281,1661,cs),
(324,1621,o),
(349,1624,o),
(370,1640,cs)
);
}
);
};
layerId = m002;
shapes = (
{
closed = 1;
nodes = (
(489,1727,o),
(539,1819,o),
(539,1905,cs),
(539,2024,o),
(452,2116,o),
(290,2116,cs),
(181,2116,o),
(68,2064,o),
(68,2009,cs),
(68,1996,o),
(73,1981,o),
(81,1957,cs),
(90,1932,o),
(108,1911,o),
(129,1911,cs),
(142,1911,o),
(151,1914,o),
(169,1922,cs),
(206,1938,o),
(227,1944,o),
(264,1944,cs),
(323,1944,o),
(353,1911,o),
(353,1868,cs),
(353,1824,o),
(332,1796,o),
(266,1725,cs),
(260,1718,o),
(256,1710,o),
(256,1701,cs),
(256,1686,o),
(268,1673,o),
(281,1661,cs),
(324,1621,o),
(348,1624,o),
(370,1640,cs)
);
}
);
width = 600;
}
);
}
{
color = 6;
glyphname = periodcentered.loclCAT;
layers = (
{
anchors = (
{
name = _right;
pos = (297,746);
}
);
layerId = "997F8AB0-1B91-48A1-A6B5-F95345F1D981";
shapes = (
{
closed = 1;
nodes = (
(413,540,o),
(508,633,o),
(508,746,cs),
(508,859,o),
(413,952,o),
(298,952,cs),
(181,952,o),
(86,859,o),
(86,746,cs),
(86,633,o),
(181,540,o),
(298,540,cs)
);
}
);
width = 593;
},
{
anchors = (
{
name = _right;
pos = (228,744);
}
);
background = {
shapes = (
{
closed = 1;
nodes = (
(333,606,o),
(394,668,o),
(394,744,cs),
(394,818,o),
(333,880,o),
(258,880,cs),
(181,880,o),
(120,818,o),
(120,744,cs),
(120,668,o),
(181,606,o),
(258,606,cs)
);
}
);
};
layerId = m001;
shapes = (
{
closed = 1;
nodes = (
(303,606,o),
(364,668,o),
(364,744,cs),
(364,818,o),
(303,880,o),
(228,880,cs),
(151,880,o),
(90,818,o),
(90,744,cs),
(90,668,o),
(151,606,o),
(228,606,cs)
);
}
);
width = 453;
},
{
anchors = (
{
name = _right;
pos = (258,746);
}
);
layerId = m002;
shapes = (
{
closed = 1;
nodes = (
(351,568,o),
(428,647,o),
(428,744,cs),
(428,840,o),
(351,918,o),
(258,918,cs),
(163,918,o),
(86,840,o),
(86,744,cs),
(86,647,o),
(163,568,o),
(258,568,cs)
);
}
);
width = 513;
}
);
}
